<?xml version="1.0" encoding="UTF-8"?>
<svg id="Layer_1" data-name="Layer 1" xmlns="http://www.w3.org/2000/svg" viewBox="0 0 937.38 826.3">
  <defs>
    <style>
      .cls-1 {
        fill: #001110;
      }

      .cls-2 {
        fill: #0c1d25;
      }

      .cls-3 {
        fill: #030f16;
      }

      .cls-4 {
        fill: #0b1921;
      }

      .cls-5 {
        fill: #012137;
      }

      .cls-6 {
        fill: #051e25;
      }

      .cls-7 {
        fill: #101f23;
      }

      .cls-8 {
        fill: #60666b;
      }

      .cls-9 {
        fill: #062531;
      }

      .cls-10 {
        fill: #0b1d25;
      }

      .cls-11 {
        fill: #071f25;
      }

      .cls-12 {
        fill: #061318;
      }

      .cls-13 {
        fill: #0d161a;
      }

      .cls-14 {
        fill: #0d1b22;
      }

      .cls-15 {
        fill: #07191d;
      }

      .cls-16 {
        fill: #04131a;
      }

      .cls-17 {
        fill: #072027;
      }

      .cls-18 {
        fill: #09161a;
      }

      .cls-19 {
        fill: #02232d;
      }

      .cls-20 {
        fill: #07191e;
      }

      .cls-21 {
        fill: #060e17;
      }

      .cls-22 {
        fill: #676c6a;
      }

      .cls-23 {
        fill: #011412;
      }

      .cls-24 {
        fill: #0b1d20;
      }

      .cls-25 {
        fill: #021622;
      }

      .cls-26 {
        fill: #0a1f25;
      }

      .cls-27 {
        fill: #071219;
      }

      .cls-28 {
        fill: #797f7b;
      }

      .cls-29 {
        fill: #05212c;
      }

      .cls-30 {
        fill: #082431;
      }

      .cls-31 {
        fill: #031b21;
      }

      .cls-32 {
        fill: #061d22;
      }

      .cls-33 {
        fill: #092020;
      }

      .cls-34 {
        fill: #05202d;
      }

      .cls-35 {
        fill: #021f27;
      }

      .cls-36 {
        fill: #091b21;
      }

      .cls-37 {
        fill: #021b24;
      }

      .cls-38 {
        fill: #08232b;
      }

      .cls-39 {
        fill: #6f7374;
      }

      .cls-40 {
        fill: #06191e;
      }

      .cls-41 {
        fill: #001119;
      }

      .cls-42 {
        fill: #031a1f;
      }

      .cls-43 {
        fill: #042028;
      }

      .cls-44 {
        fill: #051b23;
      }

      .cls-45 {
        fill: #021f29;
      }

      .cls-46 {
        fill: #081c1a;
      }

      .cls-47 {
        fill: #051c24;
      }

      .cls-48 {
        fill: #092124;
      }

      .cls-49 {
        fill: #071d26;
      }

      .cls-50 {
        fill: #031b26;
      }

      .cls-51 {
        fill: #021c26;
      }

      .cls-52 {
        fill: #0b2f35;
      }

      .cls-53 {
        fill: #012031;
      }

      .cls-54 {
        fill: #0c1b22;
      }

      .cls-55 {
        fill: #051c21;
      }

      .cls-56 {
        fill: #071a22;
      }

      .cls-57 {
        fill: #041920;
      }

      .cls-58 {
        fill: #051e27;
      }

      .cls-59 {
        fill: #00130e;
      }

      .cls-60 {
        fill: #03131b;
      }

      .cls-61 {
        fill: #797984;
      }

      .cls-62 {
        fill: #737279;
      }

      .cls-63 {
        fill: #021e28;
      }

      .cls-64 {
        fill: #071e23;
      }

      .cls-65 {
        fill: #061d21;
      }

      .cls-66 {
        fill: #06191c;
      }

      .cls-67 {
        fill: #021922;
      }

      .cls-68 {
        fill: #091b22;
      }

      .cls-69 {
        fill: #051620;
      }

      .cls-70 {
        fill: #7d8786;
      }

      .cls-71 {
        fill: #021c27;
      }

      .cls-72 {
        fill: #081317;
      }

      .cls-73 {
        fill: #09202a;
      }

      .cls-74 {
        fill: #071c23;
      }

      .cls-75 {
        fill: #08242a;
      }

      .cls-76 {
        fill: #03141b;
      }

      .cls-77 {
        fill: #051c23;
      }

      .cls-78 {
        fill: #02202b;
      }

      .cls-79 {
        fill: #061419;
      }

      .cls-80 {
        fill: #061e27;
      }

      .cls-81 {
        fill: #041e25;
      }

      .cls-82 {
        fill: #031927;
      }

      .cls-83 {
        fill: #07222b;
      }

      .cls-84 {
        fill: #082f31;
      }

      .cls-85 {
        fill: #071f29;
      }

      .cls-86 {
        fill: #021a20;
      }

      .cls-87 {
        fill: #7b7a81;
      }

      .cls-88 {
        fill: #071a1e;
      }

      .cls-89 {
        fill: #7f8581;
      }

      .cls-90 {
        fill: #041f26;
      }

      .cls-91 {
        fill: #0a161b;
      }

      .cls-92 {
        fill: #081d25;
      }

      .cls-93 {
        fill: #052a31;
      }

      .cls-94 {
        fill: #07131c;
      }

      .cls-95 {
        fill: #818588;
      }

      .cls-96 {
        fill: #071b22;
      }

      .cls-97 {
        fill: #04151d;
      }

      .cls-98 {
        fill: #08222c;
      }

      .cls-99 {
        fill: #021919;
      }

      .cls-100 {
        fill: #05252f;
      }

      .cls-101 {
        fill: #091b1a;
      }

      .cls-102 {
        fill: #021419;
      }

      .cls-103 {
        fill: #03181c;
      }

      .cls-104 {
        fill: #071a18;
      }

      .cls-105 {
        fill: #051f29;
      }

      .cls-106 {
        fill: #0d2a32;
      }

      .cls-107 {
        fill: #03212b;
      }

      .cls-108 {
        fill: #021516;
      }

      .cls-109 {
        fill: #062128;
      }

      .cls-110 {
        fill: #06161c;
      }

      .cls-111 {
        fill: #061d23;
      }

      .cls-112 {
        fill: #021620;
      }

      .cls-113 {
        fill: #04131b;
      }

      .cls-114 {
        fill: #02161c;
      }

      .cls-115 {
        fill: #011417;
      }

      .cls-116 {
        fill: #041616;
      }

      .cls-117 {
        fill: #051b21;
      }

      .cls-118 {
        fill: #0e2336;
      }

      .cls-119 {
        fill: #07181d;
      }

      .cls-120 {
        fill: #051015;
      }

      .cls-121 {
        fill: #07151c;
      }

      .cls-122 {
        fill: #486b6c;
      }

      .cls-123 {
        fill: #00050c;
      }

      .cls-124 {
        fill: #03080f;
      }

      .cls-125 {
        fill: #01151c;
      }

      .cls-126 {
        fill: #04252f;
      }

      .cls-127 {
        fill: #0b181e;
      }

      .cls-128 {
        fill: #091b1d;
      }

      .cls-129 {
        fill: #032026;
      }

      .cls-130 {
        fill: #041316;
      }

      .cls-131 {
        fill: #07262e;
      }

      .cls-132 {
        fill: #0d2631;
      }

      .cls-133 {
        fill: #09272f;
      }

      .cls-134 {
        fill: #052229;
      }

      .cls-135 {
        fill: #03161e;
      }

      .cls-136 {
        fill: #031820;
      }

      .cls-137 {
        fill: #042733;
      }

      .cls-138 {
        fill: #04191f;
      }

      .cls-139 {
        fill: #08222a;
      }

      .cls-140 {
        fill: #041c24;
      }

      .cls-141 {
        fill: #06141b;
      }

      .cls-142 {
        fill: #071d25;
      }

      .cls-143 {
        fill: #071a1f;
      }

      .cls-144 {
        fill: #0c262e;
      }

      .cls-145 {
        fill: #051617;
      }

      .cls-146 {
        fill: #05191f;
      }

      .cls-147 {
        fill: #021c23;
      }

      .cls-148 {
        fill: #022028;
      }

      .cls-149 {
        fill: #06222f;
      }

      .cls-150 {
        fill: #06272b;
      }

      .cls-151 {
        fill: #071b23;
      }

      .cls-152 {
        fill: #061b24;
      }

      .cls-153 {
        fill: #0b282e;
      }

      .cls-154 {
        fill: #051a21;
      }

      .cls-155 {
        fill: #04171c;
      }

      .cls-156 {
        fill: #08191b;
      }

      .cls-157 {
        fill: #061319;
      }

      .cls-158 {
        fill: #082e37;
      }

      .cls-159 {
        fill: #828088;
      }

      .cls-160 {
        fill: #081b22;
      }

      .cls-161 {
        fill: #06202a;
      }

      .cls-162 {
        fill: #041b22;
      }

      .cls-163 {
        fill: #021e27;
      }

      .cls-164 {
        fill: #080e0f;
      }

      .cls-165 {
        fill: #061a1f;
      }

      .cls-166 {
        fill: #02171f;
      }

      .cls-167 {
        fill: #041718;
      }

      .cls-168 {
        fill: #0c1a1c;
      }

      .cls-169 {
        fill: #081c21;
      }

      .cls-170 {
        fill: #061f23;
      }

      .cls-171 {
        fill: #072228;
      }

      .cls-172 {
        fill: #7a7d80;
      }

      .cls-173 {
        fill: #08181a;
      }

      .cls-174 {
        fill: #010f0e;
      }

      .cls-175 {
        fill: #020e13;
      }

      .cls-176 {
        fill: #07171e;
      }

      .cls-177 {
        fill: #031c25;
      }

      .cls-178 {
        fill: #030e16;
      }

      .cls-179 {
        fill: #031a23;
      }

      .cls-180 {
        fill: #041e28;
      }

      .cls-181 {
        fill: #0d272e;
      }

      .cls-182 {
        fill: #021a22;
      }

      .cls-183 {
        fill: #02121c;
      }

      .cls-184 {
        fill: #05202b;
      }

      .cls-185 {
        fill: #07161d;
      }

      .cls-186 {
        fill: #081b1f;
      }

      .cls-187 {
        fill: #031b28;
      }

      .cls-188 {
        fill: #022129;
      }

      .cls-189 {
        fill: #0b151a;
      }

      .cls-190 {
        fill: #0b2b38;
      }

      .cls-191 {
        fill: #0a1b20;
      }

      .cls-192 {
        fill: #05151a;
      }

      .cls-193 {
        fill: #051419;
      }

      .cls-194 {
        fill: #0a2e33;
      }

      .cls-195 {
        fill: #7f8285;
      }

      .cls-196 {
        fill: #071c20;
      }

      .cls-197 {
        fill: #0c2827;
      }

      .cls-198 {
        fill: #04202d;
      }

      .cls-199 {
        fill: #031319;
      }

      .cls-200 {
        fill: #041c2a;
      }

      .cls-201 {
        fill: #051f25;
      }

      .cls-202 {
        fill: #011216;
      }

      .cls-203 {
        fill: #081f24;
      }

      .cls-204 {
        fill: #08202a;
      }

      .cls-205 {
        fill: #041719;
      }

      .cls-206 {
        fill: #021b23;
      }

      .cls-207 {
        fill: #091e22;
      }

      .cls-208 {
        fill: #818481;
      }

      .cls-209 {
        fill: #0a1e20;
      }

      .cls-210 {
        fill: #051c28;
      }

      .cls-211 {
        fill: #00161a;
      }

      .cls-212 {
        fill: #041b23;
      }

      .cls-213 {
        fill: #021921;
      }

      .cls-214 {
        fill: #0d2e34;
      }

      .cls-215 {
        fill: #020509;
      }

      .cls-216 {
        fill: #05222d;
      }

      .cls-217 {
        fill: #091d21;
      }

      .cls-218 {
        fill: #051315;
      }

      .cls-219 {
        fill: #011f2a;
      }

      .cls-220 {
        fill: #0b1b1d;
      }

      .cls-221 {
        fill: #0d2123;
      }

      .cls-222 {
        fill: #10292e;
      }

      .cls-223 {
        fill: #09222b;
      }

      .cls-224 {
        fill: #041d27;
      }

      .cls-225 {
        fill: #081a1f;
      }

      .cls-226 {
        fill: #09171e;
      }

      .cls-227 {
        fill: #031a1c;
      }

      .cls-228 {
        fill: #011c24;
      }

      .cls-229 {
        fill: #031d27;
      }

      .cls-230 {
        fill: #061b1e;
      }

      .cls-231 {
        fill: #657271;
      }

      .cls-232 {
        fill: #05181e;
      }

      .cls-233 {
        fill: #787a77;
      }

      .cls-234 {
        fill: #0b1f25;
      }

      .cls-235 {
        fill: #051c25;
      }

      .cls-236 {
        fill: #102029;
      }

      .cls-237 {
        fill: #071d27;
      }

      .cls-238 {
        fill: #041922;
      }

      .cls-239 {
        fill: #091317;
      }

      .cls-240 {
        fill: #041c21;
      }

      .cls-241 {
        fill: #0a1f29;
      }

      .cls-242 {
        fill: #05151c;
      }
    </style>
  </defs>
  <path class="cls-89" d="M695.74,239.65c6.6,7.58-10.85,10.22-11.99,6.47-1.54-5.09,9.2-6.31,11.99-6.47Z"/>
  <path class="cls-40" d="M644.75,211.65c2.37,1.75,3.56,2.63,3.56,2.63,4.59-6.28,6.78-7.1,6.54-2.47-.07-1.6.23-1.32.9.84,1.02-1.24,2.02-.24,3,3,2.48-1.24,7.15,2.3,9.16,3.92.18.15.49.13.84.08.71-1.53,2.12-3.96,4-4-1.23-2.47.72-3.68,3-3,2.08-.81,2.93.04,2.58,2.17-2.77,5.83.87,4.72,5.18,2.66l1.24,2.17c-3,7.17-9.45,11.48-16,15-1.22.8-3.8.81-5,0-1.87,1.86-6.79-.21-6-3-3.1,1.84-7.74-2.86-10.02-5.31-4.09-4.39-8.72-12.85-3.98-17.69,1.26-.12,1.6.88,1,3Z"/>
  <path class="cls-50" d="M688.75,206.65c.76,1.85.76,3.52,0,5,1.65-.03,1.57,1.43,0,2,.51,1.79-1.34,5.09-3,6-.27-.08-.65.04-1,0-2.32-.26-3.29-.93-3.01,2.99-1.7.41-.63-1.4-1.1-1.79-.26-.21-1.62.98-3.4-.09-3.87-2.34-1-4.06-.79-6.77.06-.7-.71-1.26-.7-1.34-2.71-1.01-1.81-3.24,1-3-3.96-5.06,5.97-3.21,9.06-.38l-.81-3.63c-3.4-3.03-4.49-5.69-3.25-7.99,3.76-2.9,9.98,6.41,7,9Z"/>
  <path class="cls-206" d="M677.75,482.65c1.08,17.09-.26,34.09-4,51-.03.46-.92,1.91-1,4l1,11c.39.83,2.33,3.38,3,4,.68,1.58-.01,4.09-2,3,.37,2.79-.63,3.45-3,2,1.4,1.38.77,1.99-1,1,.71,2.18-1.73,2.16-3,1-.57,2.39-1.39,3.72-4,3-.96,1.88-4.07,3.03-6,3-.25,1.54-2.41,2.41-4,2-1.83,3.32-5.45,5.39-10.86,6.2l-2.14,1.8c-1.44,1.8-4.97,4.34-7,3-6.21,2.74-4.2-4.05.57-5.85l7.29-2.64c.13-4.35-1.2-7.5-4-9.46-1.54-2.91-2.55-14.04,2.15-13.05l.89.54c-.95,4.15-1.16,12.46,3.11,8.46-.36-.88-.65-1.89-.21-2.74.79-1.53,13.12-8.92,15.21-7.26l-.7-1.1c1.02-6.62,1.92-13.25,2.7-19.9,2.7-7.62,4.17-15.71,4.4-24.29,3.14-5.24,5.92-10.61,8.34-16.13-.03-3.86,3.52-7.88,4.26-2.58Z"/>
  <path class="cls-182" d="M683.75,319.65c3.69-2.88,12.94-4.74,13,2-.38,2.97-.64,6.02-1,9-1.12,9.21-1.55,19.03-3,28-2.13,1.6-1.58-1.96-1.55-1.8.26,1.55.51,3.21.55,4.8.15,1.14.07,2.8,0,4-2.39,1.02-5.78-.94-5.96-3.74-2.86-.12-4.15-1.9-4.1-4.66-2.1-.32-3.08-1.85-2.94-4.59-.48-.08-.94-.19-1.31-.43-.6-.39-.98-9.77-.68-11.57l-8.12,4.75c-2.91-2.26-6.14-1.58-9.7,2.04-4.58,3.27-12.44,2.43-8.18-3.79,4.2-5.01,9.69-8.74,16.46-11.2,3.89-3.63,8.06-5.9,12.53-6.8-1.05-1.91.1-2.43,1.75-3.06-1.82-1.05-2.4-2.36-1.75-3.94-2.55-3.9,3.47-4.16,4,1Z"/>
  <path class="cls-134" d="M693.74,311.65c5.88,3.59,3.6,5.31,3,10-.25-2.03-6.88-2.88-7.58-2.75-2.56.47,1.63,4.1-5.42.75-4.64-3.91-.6-5.48,3.58-6.92-2.85-1.14-4.38-2.84-4.58-5.08-1.33-1.41-.77-1.92,1-1,3.18,1.71,6.59,4.1,10,5Z"/>
  <path class="cls-117" d="M348.8,387.65c-.44-.64-.23-1.18.62-1.63-2.06-2.97-2.39-10.42,1.7-11.43,1.24-.31,20.71,9.57,21.68,12.07,2.64,2.32,4.44,3.01,8,3,2.44-1.21,3.02-.44,2,2,1.46,2.28,3.8,3.62,7,4,2.34-1.74,4.71-.98,4,2,1.32.81,2.32,1.81,3,3,.85.34.85.67,0,1,.99,2.95-.65,3.09-4.9.43,2.35,4.05,1.34,10.57-2.09,5.57-2.26-.51-4.8-1.74-7-3-1.46,2.39-2.61,1.75-3-1-2.11-1.69-2.23-3.52-2.04-6.06-5.45,1-7.25.26-9.08-3.04-2.84-.94-5.13-1.24-6.87-.9l-.91,7.35c-3.39.75-2.48,3.04-1.09,5.65,1.37,19.11,1.64,38.92,0,58-1,4.18-1.44,8.55-1.32,13.11-1.52,2.57-4,1.24-5.38-1.06-.55,6.6-.32,13.35.7,20.23-3.75,18.18-1.8,37.08,2.18,55.05,1.47.41,2.38,1.01,2.83,2.67,2.47,3.57,2.61,12.9,1,17,.22,5.64.67,11.25,1.35,16.81-3.62,1.33-6.86,2.98-9.6,5.54l-2.75-.35c-10.73-6.18-21.26-12.89-31.99-19-.45-2.42,1.11-3.4,4.7-2.96.79-3.23,2.63-6.14,5.3-3.04,3.52,1.69,7.19,3.03,11,4,2.79-.72,5.59-.09,8.4,1.9-.21-2.99.65-5.29,2.6-6.9-.81-2.58-.89-5.42,0-8-.89-4.26-1.77-8.56-1.82-12.92-.22-19.35-.28-38.8-.13-58.16.02-2.15.31-4.3.64-6.46s.8-4.32,1.32-6.46c-.84-20.31-.71-40.69,0-61-1.15-7.45-1.15-14.78,0-22,1.8.85,1.8.51,0-1-1.21-.94-1.29-3.14,0-4Z"/>
  <path class="cls-165" d="M427.79,624.65c1.54.1,1.6-1.09,1.59-2.75-.16-7.42-.14-14.94-.1-22.23,0-1.21.56-1.11,1.51-.02,3.27,1.3,3.05,12.76,0,14.5l1.84-.25c-.63-4.04,1.35-7.1,5.95-9.17l2.21-1.08c-.07,9.86.26,19.86,1,30,.27-.86.61-.84,1,0,3.19-1.1,5.81.62,6,4,6.3,1.83,13.25,5.59,18,10,.9,1.89-.03,3.2-2.81,3.93l-.19,5.65c3.64.59,9.46,4.19,4.99,7.42-2.79-1.51-5.41-3.19-8-5l-5-3c-2.18-1.68-3.82-2.58-6-4-4.01-1.01-8.19-2.85-11-6-.34-.32-.65-.68-1-1-1.52-.17-4.17-1.49-5-3-.73-.46-1.45-.67-2-1-4.19-.66-9.32-1.62-11-6-8.38-5.11-16.54-11.02-25-16,.29-.7.63-.69,1,0l1.25-1.66c1.52.34,8.35-1.39,8.39-2.21-4.33-.88-9.71-5.05-4.64-8.13.28-.87.62-.86,1,0,.48.39.82,1.06,1,2,.62-1.24,1.29-.91,2,1,2.72-1.26,10.25,2.84,10,6,1.38-.8,3.08.76,4,2,.93-.27,1.26.07,1,1,2.19.39,4.27,1.51,6.24,3.38,1.58-1.62,1.86-.62,1.76,1.62Z"/>
  <path class="cls-162" d="M284.82,488.65c3.44,2.81,4.7,11.42,2,15,4.24,10,5.95,22.31,4,33-.55,1.85-1.09,4.73,0,6,1.85-1.36,2.39-.79,1,1l3,3c.87.33.87.67,0,1l2.08,2.65c5.34.15,6.76,4.94,2.21,7.53l-13.28-.18c-2.54.29-5.21-.71-8-3-.17-.18.16-.78,0-1,1.1-5.24,2.48-15.09,0-17-.87-13.71-3.83-29.41-6-43-.92-.67-.67-3,0-4,3.1-5.52,10.71-8.16,13-1Z"/>
  <path class="cls-42" d="M307.81,512.65c-.4-2.48-.83-11.26,2.7-8.1,1.61,14.33,2.1,28.54.58,42.98,1.75,2.88,2.97,4.86,4.86,1.74-4.74-.87-2.98-4.7-1.15-7.76,2.45-21.29,2.22-42.64-.7-64.05-9.98-.54-.18-14.41,3.71-3.82,1.41,23.18,1.93,46.45,1.54,69.83l.46-2.83c.28-.87.62-.86,1,0,2.53,7.04,2.29,14.38,1.76,21.76,1.4.06,4.35,1.93,3.24,4.24,1.11.7,1.44,1.37,1,2-4.38.2-2.52,4.5-3,5-.29.3-5.64-.53-7,1-.65-.37-1.98-.42-3-1-9.67-3.99-19.64-9.81-28-16,2.53-3.21,12.58-1.14,14-2.01.19-.11-1.02-2.64,1-3.98-5.2.52-5.26,0-6-4.01,3.09-.53,6.71.45,10.87,2.93-.71-12.97,0-25.62,2.13-37.93Z"/>
  <path class="cls-20" d="M359.8,571.65l1.28-.05c.01,5.73.59,11.08,1.72,16.05,3.05-1.21,6.4-.43,10.03,2.35,4.68,2.33,12.17,6.1,13.97,10.65l-1.06,2.35c-8.75.09-8.04,3.11,2.12,9.08,4.45-.8,10.37,3.06,7.93,7.57h-1c-15.01-8.84-30.79-17.24-45.99-26,3.08-2.42,7.06-6.35,10.99-6.01.03-5.32,0-10.67.01-15.99Z"/>
  <path class="cls-189" d="M277.82,536.65l1.27-.79c1,3.77,1.05,7.76,1.55,11.6l-2.83,6.19c-.31-.43-.22-.77-1-1,0-4.26.34-8.59,1-13-.04-1,.06-2.01,0-3Z"/>
  <path class="cls-80" d="M560.77,143.65c3.02.92,8.54,4.24,9,7-.35,2.76-.69,5.43-1,8-.67.33-1.21.57-1.31.44-3.41-4.14,1.3-2.09.29,1.1-.38,1.2-1.22,2.02-2.41,2.49.56,2.15.84,3.9-1.57,4.97,2.47,1.43,1.79,2.48-1,2l-2.08-.43c-.62-3.19-5.09-17.56-8.72-11.42l-2.2-.15c-3.72,3.58-12.81,9.37-15,2-.1-1.35,1.02-2.72,3.35-4.11,5.51-9.06,12.16-12.17,22.64-11.89Z"/>
  <path class="cls-138" d="M557.77,213.65c.39.51,1.79,2.57,2,3,2.96,6-.4,8.04,7,9,2.46-.63,6.3-.81,8,1,.14.73,3.97,2.66,5,3,2.65.69,3.65,1.69,3,3,1.52,1.65.8,2.4-1.37,2.73,1.46,3.7-1.76,9.74-5.63,7.27-.31.88-.64.87-1,0-2.67-1.28-5-2.95-7-5-2.51-1.47-6.35-.52-9.25.22-1.13-.29-8.86-9.47-4.75-10.22-2.49-2.44,1.25-4.39,3.85-4.82l-1.16-3.23c-2.7-1.45-3.92-3.18-.69-3.95-1.22-2.43-.88-3.43,1-3,1.01-.84,1.4-.29,1,1Z"/>
  <path class="cls-100" d="M563.77,167.65c.23-2.07-.41-4.95-1.01-6.99,4.29.73,2.94-1.47,3.01-5.01,2.71-.59,1.65,1.3,2.99,2.99.23-1.33.89-1.3,1,0,.27-.86.61-.84,1,0,.44-.45.77-.12,1,1,1.14,1.03,4.18,5.9,5,6,.72,1.76.89,4.33,0,6,.18,2.42-.49,3.42-2,3-1.13,3.62-2.9,3.08-5.3-1.64-3.49-1.34-5.39-3.13-5.69-5.36Z"/>
  <path class="cls-33" d="M560.77,143.65c-4.12,2.17-10.63,2.71-14.72,4.33-1.1.43-5.41,7.29-6.71,8.73s-3.54,1.72-4.56,2.94c2.32,1.85-.01,8.94-3,9-2.35-.35-1.66-5.78-.98-7.68,1.62-4.54,12.76-16.84,17.97-17.32,4.41-1.55,7.58-1.35,12,0Z"/>
  <path class="cls-202" d="M569.77,151.65c.91,1.96.74,5.08,0,7-.27-.14-.05,1.2-1,0,.32-2.5-1-6.27,1-8,.05.32-.03.67,0,1Z"/>
  <path class="cls-231" d="M570.77,158.65c-.29-.13-.75.13-1,0-.15-2.31.21-4.71,0-7h1v7Z"/>
  <path class="cls-47" d="M575.76,242.65c2.38-1.26,4.64-3.47,4.03-6.38-.17-.81-3.4.09-1.55-4.64,1.12-2.85,3.13,4.02,4.51,1.02.29.36.74.63,1,1,2.54,3.65,3.24,6.31,5,10,1.69-.03,2.97,1.19,3.84,3.64,4.02.65,5.74,2.1,5.16,4.36-.2,1-.44,3.01-.72,6.03-2.68.45-4.74,1.69-6.18,3.74-6.26-.55-11.37,5.26-14.09,10.23.31.46.53.87.41,1.14-.98,2.27-3.88,8.42-5.03,10.45-.17.3-.72.39-1.38.41l-1.94-1.2c2.45-7.82,1.72-11.5-2.2-11.05-1.74,5.6-2.97,11.34-3.69,17.2-1.02-.08-1.78.2-2.16,1.05,3,.91,2.74,6.05-1,4-.85-3.23-.85-5.9,0-8-.65-5.55.55-12.47,4-17,1.98-5.65,7.8-11.55,13-14,.49-3.4-.16-6.56-1.96-9.48l.96-2.52Z"/>
  <path class="cls-76" d="M624.76,239.65c4.34.44,7.37,1.83,11,4,3.12.14,5.86,3.06,7,6,1.16,2.12,2.11,4.37,4,6,2.04,2.44,3.94,7.92,2,10-.01.91-.06,1.34-1,1-.85.49-1.65.48-2.41-.1-.32-1.79-5.05-17.44-7.65-15.15-1.51,2.5-6.22,5.64-8.94,4.25-1.54,2.48-4.31.68-4-2l-1.8-.41c-1.54,1.61-4.5,2.32-6.2.41-.36,1.52-2.61,3.01-4,2-2.41.87-2.53-.57-2.36-2.79-5.98-1.16-8.53-3.23-7.64-6.21-2.11-2.04.58-4.61,3-3,5.55-3.58,12.48-4.65,19-4Z"/>
  <path class="cls-85" d="M644.75,211.65c-.48-6.88,1.47-11.5,5.84-13.86,1.04-3.85,4.47-9.08,6.99-3.51.51,1.12,1.31,6.29,1.17,7.37.27,1.88-.27,4.13-1.62,6.76.15,2.25-.31,3.66-1.38,4.24-.97-.74-2.3,1.88-1.5-3-2.06,2.25-3.05,7.12-7.03,6.66-2.49-.29-2.04-3.48-2.47-4.67Z"/>
  <path class="cls-44" d="M647.75,197.65c2.99-5.11,7.33-9.3,13.01-12.57,3.23.45,6.37.26,9.42-.55,1.52,2.14,3.04,3.51,4.56,4.12h1c-.22,1.75,1.04,3.64,1,5,4.53,5.49-4.96,11.2-9,7-.92-1.38-1.66-2.95-3-4-2.45-1.91-4.48,2.23-6,5-.75-2.95-2.92-.85-2.99-.99-.45-.96.87-8-1.51-7.99-2.15.02-2.25,5.14-2.69,5.78-.56.8-2.83.53-3.58,1.43-1.7,2.03-1.48,9.38-3.22,11.77-.36-1.01-.34-1.55-1-3,.44-4.54,2.16-7.11,4-11Z"/>
  <path class="cls-29" d="M676.75,193.65c1.18,1.96,3.21,2.64,5,4,.96,3.07,4.8,5.36,5.75,8.74.49,1.72.26,3.51.24,5.25-2.9.59-4.36-2.28-6.71-2.83-1.51-.35-3.53,1.87-3.3-.44-1.22-2.18-.85.75-.98,1.27-1.79-2.13-5.96-3.35-7.48-5.04-1.21-1.35-1.02-3.21-1.52-3.96,4.89-.86,8.8-.5,9-7Z"/>
  <path class="cls-29" d="M686.74,213.65c.31,1.38-.54,2.66-1.98,2.99v-2.99s1.98,0,1.98,0Z"/>
  <path class="cls-29" d="M688.75,211.65c.13-1.65-.09-3.35,0-5,.4,1.29,2.51,3.5,0,5Z"/>
  <path class="cls-230" d="M674.75,188.65c-4.56,2.82-3.02-2.25-4.01-3s-3.14,1.93-4.55,2.05c-2.1.19-2.83-1.92-5.18-1.43-5.78,1.23-3,5.09-3.26,5.36-4.99-1.68-5.12,1.17-7.16,4.33-.32.49-2.23,3.78-2.83,1.67,2.91-6.15,4.23-9.69,11-13,6.06-2.96,13.18-3.19,16,4Z"/>
  <path class="cls-75" d="M661.75,320.65c-7.39.74-4.28-7.45.15-10.22-.97-7.57,4.72-10.53,10.85-7.78,1.61-.56,3.61-.22,6,1,.26-2.15,2.56-.62,3,1,.65.31,1.34,1.65,2,2l-1,1c-.17.84-.62,1.43-1.4,1.73-3.5-.07-11.27.62-9.6,5.27-2.96,6.3-6.29,8.3-10,6Z"/>
  <path class="cls-107" d="M374.8,226.65c1.19,1.02.56,3.68-1,4,.52.28.5.61,0,1-.32,1.45-.65,2.79-1,4,.95,1.49.9,2.53-1,2-.49,3.54-2.69,9.41-6.42,10.83-3.08.02-6.18.62-6.58,3.17,1.56,2.65-.56,3.68-3,3-.04,1.03-.37,2.03-1,3,1.76,1.92,1.55,2.16-1,2-1.78,3.87-5.58,5.49-11.38,4.85-1.61,2.6-4.85,6.08-6.61,2.15-.58-.41-.58-1.08,0-2-2.63.43-2.87-.08-1-2-1.59-1.99-3.73-3.43-6.45-4.33.82-6.59,9.9-7.31,12.42-3.68l1.03-.99v-1c.61-1.59,3.74-5.32,5-7,2.49-2.57,5.47-5.59,9-6,.78-1.67,3.11-4.17,5-3,.34-.46.67-1.13,1-2,.96-4.02,2.54-5.42,6.72-5.05-.2-4.07,5.47-7.81,6.28-2.95Z"/>
  <path class="cls-48" d="M330.81,176.65c1.52,1.19,2.96,2.87,4.32,5.04,3.93.98,6.49,2.64,7.68,4.96,1.64.15,3.31.48,5,1,1.18,2.22,2.79,3.56,4.82,4.02-.22,1.94-.16,3.6.18,4.98.91,1.38-.09,2.38-3,3-5.92,2.67-14.6.36-19-4-1.19-.6-3.08-1.41-4-2,.39-1.72.06-3.29-1-4.73-.39-3.18-.1-10.38,2-12.27.23-.86.57-.83,1,0,.26-1.52,1.56-1.65,2,0Z"/>
  <path class="cls-157" d="M314.81,245.65c10.01-2.07,19.18.72,27,7-.1.27.08.66,0,1l-1.14.79c-2.45-2.31-4.92-2.22-7.97-1.16-7.72-3.35-14.49-3.24-20.31.31-2.91-1.17-7.86,2.12-10.35,3.96-1.32,3.09-7.33,8.05-6.23,3.1,2.87-7.91,11.04-13.36,19-15Z"/>
  <path class="cls-132" d="M327.81,176.65c1.53,4.04-.93,8.27.02,12.33.22.94,2.9.45,2,3.17-.09.28-2.43,1.26-3.02,1.5-6.02-.62-9.76-10.9-8-16,.18-1.67,2.8-4.51,3-5,2.7-.1,5.5,1.12,6,4Z"/>
  <path class="cls-137" d="M337.81,163.65c.45,2.95-1.39,10.7-5,11-1.42.54-2.75,1.21-4,2-.34-.02-.71.06-1,0-2.38-.52-4.69-1.91-6-4,.12-.29-.11-.71,0-1,3.56-.93,5.66-3.99,6.3-9.16,2.85-4.86,13.71-5.29,9.7,1.16Z"/>
  <path class="cls-111" d="M264.82,430.65c3.23-2.18,8.59-1.91,7.6,3.22l1.39,1.78c.05-2.72,1.88-2.62,3.58-.64l1.79,16.94c3.7,7.58,2.48,10.78-3.65,9.59l.03,22.76c-.41,2.58-3.34,5.72-4.75,2.34-1.48-6-1.81-12-1-18-.2-1.22-.96-1.83-1-2-.76-2.12-.76-4.12,0-6-.06-.48.08-.99,0-1.48-.18-.48-.52-.58-.99-.52-.92-1.66-.63-4.25,0-6-.62-6.65-2.07-13.64-3-20-.52-.72-.77-1.49,0-2Z"/>
  <path class="cls-139" d="M260.82,231.65c.54-1.42,2.04-1.39,4.49.09,3.4-1.5,5.9-1.52,7.51-.09,5.17-3.48,5.66,1.34,4.95,5.77l1.81-.37c.94-3.56,4.54-4.51,6.24-1.4v2c-.08-.07-1.19-.11-1.49,0-.55.21-8.22,5.99-9.51,6.99-.28.87-.62.86-1,0-5.47,1.23-8.19-.17-8.17-4.19l-3.41-.7c-3.32-4.28-5.65-3.19-6.99,3.26l-2.42-.37c-2.27-2.59-1.67-2.21-3-5-2.77-5.28,7.78-9.72,11-6Z"/>
  <path class="cls-92" d="M252.82,242.65c3.96-3.17-.59-7.92,7.53-7.09,1.96.2,1.38,1.88,2.68,2.41,1.33.54,4.58.56,4.74.74.44.48-.39,2.89.16,3.8,1.36,2.25,6.67-1.78,5.88,2.15-.32,2.87-6.28,5.3-9,4-5.24.69-8.78-2.33-12-6Z"/>
  <path class="cls-106" d="M263.82,217.65c1.35.66.36,3.5-.31,4.95-3.28,3.27-4.17,5.95-2.69,8.05.87.28.86.62,0,1-1.91-.28-11.67,2.34-11,6-1.43-3.01-2.33-4.24-3-8-.25-1.4-1.21-2.83-.84-4.32.29-1.19,1.67-1.39,1.84-1.68,1.51-1.89,5.68-3.69,7.5-1.67.37-4.56,8.9-11.34,8.49-4.33Z"/>
  <path class="cls-171" d="M271.82,303.65c4.1.74,1.25,5.54-2.25,6.1l4.15.4c5.36-4.76,12.18.58,5.1,2.5-1.33,2.87-3,3.87-5,3-3.99,1.89-12.34,4.16-15.37-.11-2-2.81-1.08-3.82,1.38-5.89,1.04-1.76,3.83-3.21,6-3,1.24-.64,2.19-1.58,3-2,.75-.39,2.18-.29,3-1Z"/>
  <path class="cls-65" d="M273.82,315.65c1.76,2.98-3.63,6.89-6,4-5,2.24-2.46,5.22,7.63,8.96,4.89,2.08.58,7.64-3.74,6.64-.09,1.69-.33,3.31-1.89,4.4.3,1.99.27,5.19-2,6,.31,3.36-3.28,1.51-3.32-1.54-4.07-.31-6.49-1.9-6.93-6.14-2.59.14-4.5-1.3-5.75-4.32-.66-3.84-2.54-8.06-3-11-.2-1.28-.27-5.96.21-6.8.38-.67,9.16-5.27,10.79-6.2-2.37,6.32,3.52,6.52,8.54,6.51,1.79,0,4.27-2.47,5.46-.51Z"/>
  <path class="cls-201" d="M251.82,333.65c2.03-.61,1.69,1.54,2.73,1.95s3.16-.32,4.35.47c1.33.88-.28,6.43,5.32,5.67,1.16-.16-.1-2.53,1.59-2.08l1.05,6.47.97-.48c2.98-.58,3.58,2.54,1,4l-.57,2.19c-3.98,1.81-10.26,6.93-5.84,10.76-2.4,6-2.36,12.36.13,19.07l2.77,1.1c1.42,5.54,2.25,11.18,2.46,16.94,4.09,5.3-.37,9.57-4.95,7.94-.01-.94-1.14-3.18-1-6,1.39-1.41,1.39-1.75,0-1l-1.22-.1-3.78-29.9c-2.48-8.34-3.13-18.05-3-27-.5-3.26-1.43-6.69-2-10Z"/>
  <path class="cls-179" d="M267.82,198.65c9.12-.44,13.18,6.94,14,7,1.28-.38,2.19,4.31,1,5,2.12,2.29-1.06,3.52-3.04.88.1,5.09-1.22,7.47-3.96,7.12-2.61,1.54-7.75-4.59-6-7-1.47.38-2.8.72-4,1-1.97,1.56-5.23,3.46-8.12,2.68-2.62,3.42-3.91,1.53-3.88-5.68.09-.56.74-1.36,1-2,2.04-4.94,7.68-8.74,13-9Z"/>
  <path class="cls-73" d="M275.82,218.65c3.96-4.68-.02-22.8,6.09-7.01.44-.07.84-1.01.91-.99,2.69-.49,7.31,4.73,8.34,7.64s1.46,9.49-1.34,10.36c-.25,1.13-.56,3.14-1,4-2.23.13-4.27-1.48-6.12-4.84-1.91.74-3.2.35-3.88-1.16-2.13-1.67-4.33-5.41-3-8Z"/>
  <path class="cls-144" d="M278.82,226.65c.2-.11,4.19-1.08,4.41-1.07.45.02,5.17,5.97,5.58,7.07-.68,1.35-1.59,2.39-3,3-1.78.77-3.85-.13-3.94.04-.27.51.29,2.1-.23,2.72-.42.49-5.58,1.48-5.82,1.24-.73-2.67,2.29-9.21-3-8-1.09-2.82,3.12-6.7,6-5Z"/>
  <path class="cls-131" d="M253.82,209.65l1.01,6c2.09.23.47-3.41.99-3.99,1.69-1.88,1.96,1.76,2.63,1.95,3,.86,3.73-1.98,3.97-2.01,1.3-.19,3.01,1.11,3.39,1.06.82,1.36-.48,4.22-2,5-.33-4.09-5.37,1.77-5.68,2.3-1.69,2.78-.07,6.46-.32,6.7-1.59,1.55-3.56-3.66-4.69-3.92-1-.24-3.98.97-5.31.93.15-.25-.17-1.23.29-1.68,1.41-1.37,4.89-2.07,5.54-3.98.8-2.38-.25-5.83.17-8.34Z"/>
  <path class="cls-210" d="M673.75,432.65c8.07,1.11,6.18,6.91,3.2,12.49-.15.29-.12,1.35-.11,1.29,1.11-5.07,5.47-8.13,5.91-1.78,2.45,3.19.35,9.39-1,13-.3,2.69-1.71,7.24-2,10-.53,4.98-1.51,10.33-2,15-3.08-2-1.55-.53-1.96,1.52-1.89,9.52-8.07,12.67-9.74,21.29-.63,3.27.32,8.4-.31,11.68-.54,2.81-5.1,6.18-3,11.5l-1.99-2.99c-.26-6.5.41-12.83,2-19-.77-2.2-.77-4.54,0-7-.48-3.79-.25-8.38,1-12-.72-1.11-.38-2.42,1-2-.58-1.81-.58-3.48,0-5-1.67-3.77-2.07-10.19,2-13-.76-1.87-.76-3.87,0-6-2.83-1.1-1.71-4.4,1-5,2.12-5.37,2.45-10.37,1-15v-1c.05-1,.38-1.67,1-2,.11-1.73.44-2.63,1.01-1.13-.27-3.06.65-9.37,2.99-4.87Z"/>
  <path class="cls-47" d="M678.75,352.65c.9,2.44,4.65,2.87,4.86,3.1,1.29,1.4-2.56,5.2,5.14,3.91-2.77,5.86.76,1.79,3,5.99-.22,3.89-1.64,8.93-2,13-.15,1.64.1,3.35,0,5-.49,1.58-.72,2.27-1,4,.6,1.88,1.04,4.24,0,6-2.12,16.77-4.06,34.01-6,51l-1.99-2.99c.9,4.24-1.84,2.4-2.81,3.19-.87.71,1.02,3.65-2.19,2.8l1.98-12.99c-5.75,6.44-3.67,1.96-3.99-2-1.71-1.15-2.13-3.5-1.25-7.05,4.5-11.66,3.97-22.6,2.25-34.95-1.75-.18-1.43-2.11,0-3,.92-.97,1.25-2.97,1-6-.91.51-1.25-.16-1-2l1.75-15.1c-.43-2.2-.02-3.5,1.25-3.9-3.03-1.06-1.85-7.17,1-8Z"/>
  <path class="cls-47" d="M692.74,358.65c-.17,1.06-.43,2.08-1,3-.05-.33-3.01-1.91-.99-6,1.66-.39.61,1.9,1.99,3Z"/>
  <path class="cls-229" d="M628.76,515.65c1.7,4.82,2.32,9.81,2.01,14.88,1.86,1.32,2.57,3.67,2.15,7.04l1.57.9c1.84-3.13,4.85-5.38,5.27-.83,1.49,2.76,1.64,7.33,0,10,0,.13-.97,1.13-1.04,2.42-.12,2.13-.4,7.2.02,8.88.07.3,3.36,3.14,4.42,4.35.44.5,2.96.35,1.5,2.28-.12.15-1.85-.12-1.98.67-.2,1.2,1.74,4.78,1.09,5.4-.44.41-7.9,1.66-10.95,4.56-1.76,1.67-1.76,2.78.94,2.44.67,2.06-.52,2.97-2.19,3.86-1.19.63-5.31,2.09-5.81,1.14-.52,3.2-.61,3.33-3,1-2.8,2.23-6.87,2.04-8.72-1.23.14,3.92-2.01,6.75-6.44,8.5l-3.83,3.72c-.34,3.61-4.59,6.42-8,5-11.74,5.35-20.24-1.86-8.85-11.11.53-.43,1.31.21,1.85,1.11,1.84-.77,4.88-2.28,6.76-5.01-1.85-6.07-1.11-9.4,2.24-9.99,1.03-1.11,2.97,4.68,2.78,4.98-1.53,2.34,6.89-2.15,7.8-3.72,5.75-2.75,10.89-5.83,15.42-9.26-1.02-1.7,1.42-2.62,3-2,.27-16.3.6-32.96,1-50,.28-.87.62-.86,1,0Z"/>
  <path class="cls-145" d="M641.75,447.65c.72,2.1,1.05,4.43,1,7,.85.19.81.53,0,1-.38,5.44-.71,10.77-1,16,.85,8.61.9,17.39,0,26-.2,16.3-.27,32.34,0,48.5.04,2.59-3.96,11.73,2,10.5-.08.11,1.66,1.31-.56,1.93-6.11,1.71-2.59-6.49-3.44-10.93.12-3.32-.06-6.68,0-10-2.96-11.98-3.25-26.09,0-38l-1.94-3.39c1.05-16.55,1.12-33.03.2-49.44,1.83-2.81,2.89-2.07,3.74.82Z"/>
  <path class="cls-210" d="M674.74,507.65c-5.75.22-2.04-1.34-.98-3.99h.97s0,3.99,0,3.99Z"/>
  <path class="cls-208" d="M725.74,588.66c-.34,1.45-1.61,2.29-2.99,1.98v-1.99s2.99,0,2.99,0Z"/>
  <path class="cls-135" d="M676.75,340.65c-1.41,1.74-4.13,3.85-6,5-4.58,4.37-10.13,7.73-16,10-1.19,1.81-5.65,5.14-8,4-.95,1.58-1.61,3.25-2,5-4.48,1.81-3.41-4.11-1.98-7-4.04.75-6.72.09-8.02-2-.32-.92-.17-1.75.71-2.14,3.44-1.51,5.8-2.68,8.29-5.86-.11-2.72,4.92-4.59,7-4,1.45.74-.36,4.52,2.47,4,.56-.1,5.13-2.04,5.31-2.27.62-.75,0-2.23.22-2.74.07-.17,1.97,1.12,3.23.84,1.02-.23,1.97-1.83,3.27-1.84,1.41-.01,2.51,1.98,3.99,2,2.2.04,5.51-4.23,7.51-2.99Z"/>
  <path class="cls-153" d="M682.75,307.65c2.81.87,4.81,3.84,8,4.01-1,4.85-9.82,2.57-7,7.99-1.11-.53-2.02-1.9-3.48-2.01l-.52,1.01c-3.31-2.65-4.27-2.68-8-4-1.22-.43-2.21-1.52-4-1.01,1.33-4.68,10.75-7.31,15-5.99Z"/>
  <path class="cls-228" d="M469.78,615.65c-.36-1.24-.28-11.73.18-12.14,1.68-1.48,4.69.38,5.59,2.37,1.46-2.17,2.96-2.69,4.23-.23,1.11,14.39,1.46,28.84,1.04,43.36.75,1.57,1.42,1.92,3.96.64-1.03-1.68.3-2.68,4-3-.15-2.25.98-3,3-2,5.61-2.03,10.94-4.7,16-8,4.31.43,1.1,4.84-1.62,6.11l1.62,4.89c3.14-1.05,5.46-1.47,3,2,.89,2.78-5.32,7.84-8,6,.35,1.99-.51,2.38-2,1,.05,3.22-4.88,5.12-7,3-.32,2.26-1.82,3.5-4,3-.24.85-.58.83-1,0-.22,1.97-1.63,2.3-3,1,.82,2.85-2.7,4.83-5,3-2.4.18-4.73.18-7,0-1.82-.75-2.91-.87-5-2,.38-5.51-5.49-4.78-6.88-6.12-.32-.3.17-7.41-.01-8.78,1.93.57,4.47-2.01,4.89-2.1-.44-2.15.22-3.48,2-4,.67-9.34,1-18.67,1-28Z"/>
  <path class="cls-10" d="M480.78,666.65c-1.59.83-1.74,1.23-4,2-.94-.59-2.03-1.6-3-2,1.72-4.04,4.23-.66,7,0Z"/>
  <path class="cls-140" d="M389.8,407.65c.5-.31,2.05.59,2.02-.52-1.22-2.62-2.7-4.28-2.01-7.48.39-.45,5.58,1.2,5.75,2.75l1.24-.75c4.63-.45,12.11,4.69,16,8,2.39,1.17,5.06,2.17,8,3,5.23.44,11.17,4.32,15,8,4.07-1.18,10,2.96,11,7,2.39-.57,6.06,1.68,6,4,5.37,7.45-5.77,8.98-11,6-.88,24.69-1.22,50.03-1,76-1.81.38-3.03-1.08-3.67-4.37l-1.57-.82c-1.17,6.54-3.09,8.6-5.75,6.2-.6-22.24-.77-44.53-.5-66.79.05-3.84,6.17,5.4,1.5,6.29,3.28,2.39,1.23,10.46,0,14.5,1.78-6.37,2.94-15.8-.2-21.44l-1.3-8.2c.65-1.98.48-4.43-.51-7.36-.27.86-.61.84-1,0l-2.78.36-14.51-8.54-.71-2.82-5.04-2.26c-1.43.35-1.68-.28-.96-1.74-1.25,1.36-1.64.74-1-1l-1.38-.13c-3.49,3.47-6.47,2.97-7.62-2.87l2,3.75v21.79l-2,1.45c.14,1.49-.53,2.33-1.94,2,.23,5.46.26,10.94-2.06,16,.68,2.17,1.78,5.87-1,6-.88-1.74-.78-5.14,0-7-.46-15.54-.91-31.31-1.33-47.32l1.33-.68c-1.38-1.32-.79-1.87,1-1Z"/>
  <path class="cls-232" d="M314.81,350.65c10.5,2.76,19.07,8.73,27,16,11.62,6.8,23.36,13.3,34.99,20,1.2,4.3-2.23,2.98-4,0-4.2-1.49-4.66-3.27-6.98-4.38-1.66-.79-7.66-1.96-9.27-2.68-1.73-.77-5.81-7.28-6.67.7-.24,2.23,2.35,7.71-1.08,7.36-2.19-1.3-3.53-2.64-4-4-1.89,1.54-4.35.86-3.88-1.54-2.61-.15-3.65-.97-3.12-2.46-4.51.74-12.25-4.86-14-9-.68-.34-1.98-.56-3-1-1.41.22-2.07,2.22-2,6,.76,1.51.75,3.49,0,5-.28.87-.62.86-1,0-3.96,2.97-5.07-3.43-2.88-6.72l-4.67-1.54c-.22,3.21-1.37,4.97-3.45,5.26-.7-3.47-.7-7.55,0-11-.45-2.04-1.49-3.21-3.01-4.64-4.01-1.76-6.01-3.88-5.99-6.36-.51-1.74-1.84-2.4-4-2-2.52,1.52-3.47.52-2-2-2.62-4.83-3.4-14.54,4-12,7.38,1.15,13.74,6.47,19,11Z"/>
  <path class="cls-225" d="M358.8,554.65c-6.57-.91-3.99-1.13-5.27-5.19-2.58-8.18-4.17-29.21-3.77-38.35.19-4.35,2.04-10.33,2.05-14.97.02-7.1-4.01-18.56,1.98-24.49-.44.81,2.36,8.25,3.53,5.02,1.43-3.94-1.14-9.03,2.48-12.02,1.32,27.55,1.03,55.47.36,83.13-.06,2.3-.63,4.59-1.36,6.87Z"/>
  <path class="cls-101" d="M361.8,403.65c1.58,3.73.79,8.07,0,12,.54,21.66,1,43.36,0,65l1.8,3.05.21,24.92-2.01,3.03c.27,24.98.61,49.98,1,75,.87.28.86.62,0,1-.46-.16-1.35.2-1.97,0-1.15-1.51,1.55-13.42-1.03-15.99,0-5.68-1.01-12.17-1-17,.06-29.77.97-60.03,1-90,.02-19.27-.55-38.75,0-58-4.93-3.97,1.67-9.17,2-3Z"/>
  <path class="cls-232" d="M361.8,393.65c.27-1.13-1.99-3.81,1.99-5-.64,3.59.36,4.86,4.02,4.99-.38-.92-1.96-2.57.5-2.01,5.14,1.17,2.23,4.79,2.49,5.01.34.29,7.18-2,8.94-.93l.06,7.94c-2.7-1.09-16.62-11.38-18-10Z"/>
  <path class="cls-26" d="M348.8,475.65h-1c-.92-20.31-.76-40.69,0-61,.28-.87.62-.86,1,0,.14,20.31-.03,40.68,0,61Z"/>
  <path class="cls-156" d="M413.79,408.65c1.19,1.44.64,1.97-1,1-4.72-2.49-8.76-4.47-13.22-6.27-.8-.32-2.24-1.14-2.77-1.73-.13-.15.08-.67,0-1v-1c.41.22,1.82,0,2.89.57,4.79,2.61,9.71,5.19,14.11,8.43Z"/>
  <path class="cls-26" d="M353.8,410.65c-.11.17-3.74,1.19-4,.99,4.12-4.33-2.14-11.76,4-15.99-.54,2.54.73,13.9,0,15Z"/>
  <path class="cls-26" d="M361.8,397.65c1.58,1.18,1.53,4.79,0,6l-1.01-1.99h-.98c-.06,1.65.04,3.33-.01,4.99-9.71-4.29-.43-5.3.52-6.98.31-.56,1.15-4.61,1.48-6.02-.06,1.32.09,2.68,0,4Z"/>
  <path class="cls-13" d="M337.81,572.65l-2.06.81c-3.08-1.8-6.32-1.94-8.94-4.81-.41-.45-.61-1.43-1-2,3.79,2.01,7.91,3.8,12,6Z"/>
  <path class="cls-26" d="M376.8,386.65c1.52.88,2.84,2.34,4,3-3.58,3.72-7.02,1.33-8-3,1.23.44,3.22,2,4,0Z"/>
  <path class="cls-232" d="M389.8,395.65c-4.82-1.05-5.96,1.88-7-4,2.26,1.29,4.81,2.74,7,4Z"/>
  <path class="cls-232" d="M389.8,407.65c-.32.19-.59.78-1,1-1.49,2.42-2.42,1.69-3-1-1.36,1.28-1.65.73-1-1-.75-.55-1.33-1.37-2-2,1.94.7,5.75-.48,7,3Z"/>
  <path class="cls-26" d="M348.8,567.65c-1.68-1.58-1.67-6.46,0-8-.05,2.65.14,5.35,0,8Z"/>
  <path class="cls-26" d="M348.8,391.65c5.34.77,2.62,5.95,0,1-.01-.33.02-.67,0-1Z"/>
  <path class="cls-232" d="M396.8,399.65v1l-3-3c1.3.74,2.44,1.7,3,2Z"/>
  <path class="cls-31" d="M388.8,561.65c4.92-1.62,4.56,5.21,3.74,8.9,2.91,1.88,5.81,5.01,7.26,8.1l1,1.38c-.03,9.25-.03,18.46,0,27.62.23,1.18-.4,2.63.48,3.99,1.29,2,6.21,1.2,6.53,4.53.18,1.9-9.72,4.87-12,3.48-.26-1-3.82-5.66-4.16-5.78-.52-.19-2.03,1.01-4.53.05-1.15-.44-10.15-7.17-10.31-7.8-.34-1.36,3.19-4.33,4.29-4.76,2-.77,2.94.33,5.7-.71,1.34-1.08,2.01-3.08,2-6,.96-4.61.84-9.38,0-14v-19Z"/>
  <path class="cls-6" d="M428.79,583.65c.35-5.27,1.93-8.42,5-1.98,2.09-5.3,6.14-5.24,6,.98l1.07.4c.53,6.78.96,14.01-.07,20.6-.51,5.81-5.08,4.12-5.54,4.91-.9,1.57-.43,7.08-1.48,8.09-1.32,1.27-2.98-1.83-2.98-2.5v-14.5c-1.76-.22-.95,2.26-1,3.49-.31,7.48.23,15.03,0,22.51-1.86.56-1.7-.84-1.99-.99-1.09-1.29-1.62-2.12,0-1.77.26-8.97.59-18.04,1-27.23.08-3.85-.4-8.31,0-12Z"/>
  <path class="cls-175" d="M441.79,440.65c0,18.32,0,36.68,0,55,1.14,4.85.65,10.8,0,16,1.43,7.98,1.48,16.02,0,24,.88,9.16.82,19,0,28,.55,22.19.88,43.86,1,65,.87,1.49.35,3.93-1,5-3-3-1.04-24.41-1-30,.05-6.16.86-15.42-1-21,0-1.96-.64-3.17-1.94-3.65,2.69-20.54,2.21-42.18,1.16-63.05l1.78-2.31c-.12-13.5.07-27.04.09-40.51,0-5.02-.8-11.03-.71-16.16.08-4.79.04-12.54.57-16.94.18-1.45.17-1.38,1.06-2.39,1.95-.66,1.95.34,0,3Z"/>
  <path class="cls-116" d="M401.8,607.65h-1c-1.79-9.38-.98-19.45-1-29-1.02-1.25-1.68-2.65-1.94-4.24l.85-21.26c-1-3.64-2.65-11.71,3.09-9.5.06,21.32-.05,42.68,0,64Z"/>
  <path class="cls-86" d="M268.82,387.65c4.3.24,5.39,3.16,6,7,2.71,1.91,4.45,18.13,3.28,19.72-.35.48-.8.89-1.28,1.28-.08,1.51.14,2.71,1,4,2.82.74,2.4,2.87,0,4-.28,1.92-.12,3.34,1,5,.86,1.2.74,2.79,0,4,3.24,1.73,4.49,8.26,2,11,.74,1.8.74,3.47,0,5,1.37-1.32,1.96-.71,1,1,.77,2.43.77,4.76,0,7,1.82-.43,2.37.69,1,2,.79,2.48.79,5.47,0,8,.58,7.24,1.24,14.77,2,22-2.05-1.89-4.78-2.54-7.52-2.04s-1.9,4.09-5.47,3.04c-.3-1.12-.98-1.89-1-2,0-.33.01-.67,0-1,2.47.56,2.69-1.89,2.9-3.57.47-3.82-.74-22.61.1-23.43,1.14-1.12,7.59,2.65,5.97-3.3-.19-.7-1.7-.66-2.14-2.05-1.21-3.85-1.34-17.84-1.91-18.58-.26-.33-1.38.03-1.92-.06-.97-1.54-1.96-3.17-2.99-4.89l2.85-8.76c-2.75-7.64-4.6-15.62-5.55-23.96-1.95-2.46-2.4-9.26.69-10.39Z"/>
  <path class="cls-1" d="M290.81,542.65c-.14.01-.37,1.15-.98,1.01.23-2.14-.95-5.5.98-7.01.21,1.93-.14,4.04,0,6Z"/>
  <path class="cls-90" d="M306.81,377.65l1.95,3.02.14,54.51c2.08,1.73,4.28,1.51,6.6-.66l2.3,1.13c1.63,12.53,1.58,25.46,0,38-2.47.61-1.52-3.11-4.49-1.99-1.38.52-2.05,3.49-1.52,3.99.99.92,4.6-2.99,4.91,5.61.67,18.69,4.01,42.37,0,60.8-.31,1.41-2.06,3.32-1.92,4.07.65,3.56,1.79.21,3-.47-.26,1.61.45,4.01.07,5.37-.09.32-5.76,2.93-6.05,2.63-.27-.29.29-4.11-2.85-4.14l1.56-25.23c-2.54-5.73-.36-12.99-1.72-19.62l-.99,8c0-.49-.97-2.71-1-5-.85-19.37-1.18-38.37-1-57-.69-27.95-.49-56.04,0-84,.28-.87.62-.86,1,0,.3,3.61-.21,7.37,0,11Z"/>
  <path class="cls-99" d="M319.81,410.65c.76,5.66.81,11.35,0,17v42c.84,13.99.8,28.01,0,42,.73,5.32.73,10.68,0,16,.74,4.31.73,8.68,0,13-.04,7.65.03,15.35,0,23-3.46-2.84-1-10.67-.94-15.55.32-24.62-.91-49.71-1.05-74.45-.07-12.65.06-25.35,0-38-3.12-9.28-3-20.69,0-30,.28-.87.62-.86,1,0,.34,1.55.67,3.22,1,5Z"/>
  <path class="cls-166" d="M457.79,164.65l2.64.44c5.88-2.67,12.37-4.16,9.01,4.55l10.63-3.05c1.56.15,3.55.4,3.71,2.06.22,1.42-.85,2.42-3.19,2.99.04,4.16-1.22,5.83-3.81,5.01-.64,1.57-2.31,1.24-5-1-1.81-.77-3.81-.77-6,0-.8.93-2.93,1.92-4,1-.29.88-.63.87-1,0-2.81-.7-5.1-1.91-6.89-3.64-2.52,1.75-7.74,4.6-7.11-.36,2.56-3.26,3.36-3.99,7-6,1.2-.66,2.76-1.56,4-2Z"/>
  <path class="cls-125" d="M466.78,162.65c1.45-.92,3.45-.79,5,0,6.87-3,17.98,3.97,21,11,.56,2.01,1.27,4.05,2,6,.75,1.73.18,2.69-1.71,2.15-.67-.19-7.55-9.66-7.28-11.15-2.3.56-2.96-.11-2-2-6.24-1.17-10.72,3.77-16.99,2.99l1.99-7.99c-.35-.26-5.29.76-6.24,1.07-1.04.35-.96,4.23-4.76-.08,3.01-1.07,5.77-1.77,9-2Z"/>
  <path class="cls-166" d="M471.78,162.65c-1.49-.14-3.49-.11-5,0v-1c1.6.06,4.15-.62,5,1Z"/>
  <path class="cls-158" d="M534.77,159.65c1.47.3,4.47,1.9,5.57,1.92.44.01.35-1.46.68-1.66.77-.47,1.98.54,2.75.14,1.71-.88,4.82-3.38,5.02-5.4l.98,2.99c2.62,1.12,1.76,2.9-1,3-.11,1.63-1.11,2.97-3,4,.66,1.96-.36,2.34-2,1-2.81,2.26.75,5.65,3.52,7.79.34,4.21,1.04,5.93,5.48,6.24,7.45-1.77,12.11-.12,14,4.96-3.73,2.41-5.07,4.46-10.38,3.95-2.71-.26-13.99-6.15-16.62-7.95-2.85-1.96-4.48-4.78-7-7-.35-1.58-1.16-3.38-1-5,.09-.87,2.49-8.39,3-9Z"/>
  <path class="cls-170" d="M563.77,167.65c3.53,2.06,8.86,3.14,9.01,7.99l1.99-.99c-.41,1.12-.09,2.38-1,4-1.71,3.04-3.67,2.88-5,4-1.67.77-3.87-.31-6.58-3.23-1.93.12-16.19.88-11.75-3.08.36-.32.84-.52,1.34-.69.8-1.78,2.99-2.55,6.57-2.31,1.42-2.3,2.9-3.53,4.43-3.69.15-.47.88-.98,1-2Z"/>
  <path class="cls-38" d="M543.77,165.65c2.7.41,2.44.93,0,2,2.34.71,2.96,1.16,3,4,2.09-2.73,6.95,1.01,5,4,.14.2-.28,1.21.17,1.8,1.27,1.66,8.77-.65,11.13.23l5.69,4.97c-.6.51-.87,1.27-2,2-2.93-.24-2.26-2.76-5.95-3.6-4.68-1.06-10.25,2.77-14.03-1.92-1.53-1.9-.89-4.2-1.7-6.27-.58-1.46-3.74-2.13-3.31-6.68,1.19-2.15,1.9-.5,1.99-.54Z"/>
  <path class="cls-57" d="M511.78,191.65c5.51,4.45,9.31,14.44,10.04,14.99,1.07.8,6.84-2.79,7.96-2.99,9.47-1.67,20.5,2.01,27,9l-1,3c-1.74-.2-3.69-.89-5.85-2.07-.38,5.68-3.93,7.08-6.15,2.07-5.79-2.66-10.79-2.32-15,1l.39,1.28c-4.17,2.27-7.46,4.69-8.88,9.33l-1.5-.6c-.91-1.85-.78,4.35,0,3,2.72-.85,4.9,2.88,3,5,3.79-1.88,5.27,5.05,2.35,7.24-1.05.79-7.92,2.28-8.34-.24-3.71-.78-7.37-2.45-11-5-2.25.25-2.26-.53,0-1l.62-2.3c7.17-2.11,8.19-10.76,5.38-15.7-1.14-2.37-2.33-4.97-3.57-7.8-1.79-2.1-2.6-4.17-2.43-6.2-1.77-1.75-.74-3.56,3.08-5.41-.26-3.22-.63-9.06,3.92-6.59Z"/>
  <path class="cls-12" d="M553.77,227.65l.46,2.98c2.62.01,3.46,4.62,4.16,5.12.95.68,8.57.33,10.39.92-.11.48-1,.83-1.01.98-2.85.38-5.85,1.05-9,2-3.94,1.19-2.69,2.48-4.33,3.68-2.47,1.81-2.97.81-5.67,4.32-2.06,2.56-9.11,5.01-8,0-.86-.33-.86-.66,0-1,.6-5.2,2.94-9.87,7-14-2.06-2.32,2.32-6.6,5-5,.33-.87.66-.87,1,0Z"/>
  <path class="cls-241" d="M555.77,215.65c.19.34-.18,1.39.03,2l1.93-.98c.04,1.62,2.87,7.09,2.04,7.98-.13.14-2.64.11-3.72.7-1.3.71-1.59,1.81-2.28,2.3-.22.16-.79-.16-1,0-2.63-.11-7.37-4.99-7-8-2.22,1.43-5.12-.37-4-3-1.05-1.72-.38-2.06,2-1,.64.4,1.95-.39,2.49,2,3.27-2.85-.82-6.36,4.03-6.04,2.59.17,4.23,1.84,5.47,4.05Z"/>
  <path class="cls-136" d="M602.76,246.65c1.35,2.89,8.29,3.78,9.89,5.12.15.12-.74,2.95.11,3.88-.84,1.47-3.73,5.3-5,5-2.43,6.18-8.22,6.92-14,6-1.79,1.39-7,1.09-9,0,1.03-1.91.36-1.91-2,0-.05,1.89-4.13,4.94-6,5-3.04-2.71,3.82-5.18,5.61-7.37.79-.96.7-2.82,1.77-3.73,1.85-1.58,4.15-.45,5.9-.89,1.04-.26.98-2.01,1.72-2.48,1.35-.85,3.68-.31,3.95-.57.52-.49-.4-4.36.04-4.97.12-.16,1.41.1,2,0,2.86-.43,2.38-2.38,5-5Z"/>
  <path class="cls-149" d="M560.77,289.65c.79-3.44,2-3.49,4.13-.71,3.59-3.25,4.42-.1,4.87,1.71,1.72-.8,2.05,1.2,1,6,1.74.88,1.42,5.03,1,7,2.07,5.18-7.53,5.88-10.08,1.7-5.05.37-14.85-.12-16.92-4.7-.83-1.5,2.98-4.21,4.04-2.61l7.45-.94c1.23.81,2.39-.34,3.51-3.45,1.68-.12.83-2.5,1-4Z"/>
  <path class="cls-200" d="M570.77,283.65c2.21.64.98,6.52-1,7-.21,1.24.89,4.15-.99,4,.38-10.12-3.03-2.97-3.51-2.97-3.04.01-1.38-4.7-4.5-2.02.33-2.94,3.09-18.66,4.08-19.95.36-.47,9.13-1.33,7.19,5.73-1.34,4.88-1.04,3.94-1.28,8.22Z"/>
  <path class="cls-143" d="M648.75,265.65c.24,1.16.92,5.66,1.11,5.9.38.47,8.02,2.89,10.89,5.1,6.03,4.66,8.05,10.54,9.74,17.77.36,1.55-.11,4.19.42,5.07.24.39,6.8,2.61,7.83,4.16-.76-.2-2.67.65-6-1-3.2,2.22-5.19-1.92-4.96-4.82l-5.45-3.26c.83,8.46.14,21.59-10.84,24.87-3.98,5.32-9.9,8.51-9.83-.68l-3.82-1.26c.41,4.28-.62,6-3.1,5.15-.87-.25-.84-.58,0-1-.7-3.1-.85-6.93,0-10,1.98-1.66,5.57-1.32,5,2l.85-.76c11.98,8.51,22.23-13.41,14.14-22.24-1.99-2.11-4.3-3.65-6.92-4.62l-.08-1.38c-2.91-1.53-4.25-3.39-4.03-5.56-5.38.03-10.43-1.3-5.73-6.85-.15-1.83.11-3.36.76-4.59l1.57-.42c1.65,4.1,4.34,5.22,5.05.03l2.38-.61c.14-.31.77-.62,1-1Z"/>
  <path class="cls-105" d="M628.76,255.65c.87-1.54,6.43-3.71,6.84-4.15.78-.82-.88-4.97,1.64-3.84.42.19,6.2,6.26,6.44,6.65,1.43,2.26,1.85,9.49,4.07,12.34-1.92,4.2.38,5.75-6.51,6.01-3.14.12-.22-4.04-2.49-5.01l-1,1c-3.78,1.45-5.38-4.94-4-8-1.35-2.21-2.89-3.56-5-5Z"/>
  <path class="cls-47" d="M634.75,322.65c2.3-1.89-.36-7.8,2.5-9,.5,3.22,4.95,2.32,6.04,3.95s-.65,5.99,1.93,5.03c2.13-.79,3.63-3.71,5.13-4.83,1.5-1.12,3.68-1.32,5.08-2.47,6.53-5.39,6.61-20.37,1.31-26.68l12.55,7.95c1.78,2.75-1.94,3.37,3.45,6.04l-3.99,3-1-3.99c.44,1.89-3.56,3.81-3.72,4.23-.7,1.96.22,4.29-.5,5.57-.64,1.14-8.29,4.43-1.8,9.19-2.54,1.33-5.6,3.36-8,5-3.52.1-6.85,2.1-10,6-1.91,3.04-9.08,9.14-13,7-2.34,1.6-14.25,6.04-12.71.66.23-.79,1.01-1.27,1.71-1.66l-.65-2.09c5.66-3.98,10.87-8.28,15.65-12.91Z"/>
  <path class="cls-148" d="M446.79,172.65c2.16,2.69,5.3-1.97,7.53-1.67.92.12,1.58,1.7,2.5,2.14,3.14,1.48,3.98-1.26,3.96,3.54-3.78,4.61-5.43,9.42-4.95,14.43l-1.05,1.57c2.59-.06,1.17,2.31,0,4-1.73,2.55-5.28,1.98-6-1-5.43-1.13-11.15-.05-15.92,2.68l-1.08-.68c-.7.23-1.31.35-1.57.1-1.31-1.21,1.01-2.66.16.15-1.52,5.01-7.63,7.05-8.93-.15l-3.37,6.68c-1.25,7.22-4.36,9.98-5.28,1.21v-1c1.42-2.3,1.89-4.05,3-6,4.44-7.81,10.18-16.55,20-18,.2,1.1,7.86.78,6,0,.24-1.46,3.79-6.47,5-8Z"/>
  <path class="cls-229" d="M357.8,162.65l.42,8.07c2.55,5.66,2.06,9.01-1.47,10.04-.97,3.51-4.88,5.1-4.95.9-2-1.82-1.69-1.99,1-2,1.41-4-.19-4.89-3.71-6.1-1.24-1.4-3.7-5.46-3.28-6.9-3.53-.08-4.53-1.08-3-3-1.66-.71-3.33-.71-5,0-.66-5.74-7.24-1.85-8.87.87s-1.8,9.39-7.12,7.13c5.21-3.44,4-9.54,6-15,2.35-1.49,4.49-3.8,7-5,13.8-6.58,15.44,3.92,23,11Z"/>
  <path class="cls-150" d="M361.8,165.65c1.2,1.16,1.41,2.63,2,4-2.08,2.85-2.18,6.82-.3,11.89-.31,2.16-.76,4.12-2.49,5.52l.79.58c-3.57,5.33-3.6,5.41-9,9-8.32,1.67-2.17-.38-1-3.99-4.85.67-4.38-.52-3.99-5.01-1-.63-.99-1.3,0-2-2-2.18,1.59-5.45,4-4,3.35,2.34,2.86-2.8,3.01-3.01s3.66,1.11,4.02-1.66c.34-2.59-2.1-3.94-2.55-5.83-.06-.26-.24-4.72-.23-5.33.04-2.04-.62-1.99,1.75-3.17.66.62,3.51,2.94,4,3Z"/>
  <path class="cls-177" d="M341.81,253.65c-.03.14,1.87,1.23-.51,1.99-2.86.92-2.27-1.73-3.15-1.98-2.96-.82-7.5,2.16-8.34,4.97,2.03.23,4.37,1.32,5.48,3.02.31.48-.5.94-.48,1-1.82,2.76-5.59-.02-5-3-6.09-.87-10.89-1.29-16.61,1.74l-1.39-.74c-4.65,2.08-9.31,3.55-13.97,4.44-3,8.26-2.31,11.09,2.06,8.51-.36-5.72,6.77-10.1,4.91-2.94,1.7,1.84,2.88,4.24,3.55,7.23l-1.55,1.77c2.08,3.37,3.17,6.46,3.26,9.29-6.84-.92-11.59-.02-14.25,2.71,1.87,1.3,1.54,1.97-1,2,1.59,2.6-1.49,4.45-4,4,1.22,4.12.89,6.45-1,7-1.26-.43-1.93-2.09-2-5-2.09-1-1.63-2.93,1.36-5.77-3.13-1.89-5.9-1.91-8.3-.06l-2.06-1.17c2.97-8.21,3.76-6.06,8-12,1.45-1.06,2.92-2.16,4.4-3.3-.18-6.34,1.02-11.9,3.6-16.7.22.14.69-.12,1,0,.12.05.17,1.02.49.99.97-.1,3.31-4.51,4.49-5.62.5-.46,8.11-4.67,8.88-4.85,1.07-.26,2.51.67,3.47.5.77-.14.57-1.79,1.37-1.99,8.27-2.08,10.94-.17,17.84,1.51,2.72.66,5.97-.42,9.47,2.47Z"/>
  <path class="cls-9" d="M276.82,299.65c3.59-5.46,9.62,1.63,11,6,1.79,1.71,5.57,6.56,5,9,1.71,3.65,4.69,6.24,8.95,7.77,2.68,5.44-6.68,2.24-9.1.49l-1.84.74c-4.84-.11-8.57-4.65-11.65-8.84-2.44.42-2.23-.57-.35-2.16-.04-.41,1.34-1.98,1-2.99-2.33-.03-3.39,2.12-5.83,2.46-1.35.19-9.82-1.01-10.16-1.48.86-3.17,5.19-2.21,7.02-3.48,1.53-1.06.67-2.9.97-3.51.86-1.72,3.18-3.68,5-4Z"/>
  <path class="cls-34" d="M278.82,292.65l5.5-2.93c2.57,1.17,4.45,2.53,7.49,1.94.42,3.43-3.64,5.39-4,8,1.05,2.78,1.05,4.78,0,6-5.05-2.07-4.44-7.15-11-6-.73-2.96,1.25-4.92,2-7Z"/>
  <path class="cls-114" d="M361.8,259.65c1.73-2.46,5.42-.98,5,2,3.78-.45,5.11.55,4,3l8.11,5.37c1.34,1.51,2.84,4.11.88,5.63,1.04,4.16,1.88,8.22,2.54,12.19l-2.54-.19c-.66,1.66-2.35,2.21-5.08,1.66-.11,2.09-.49,3.29-2.92,3.34-2.18-1.86-3.18-4.86-3-9-1.83.32-3.17-1.35-4-5-.4.3-.81.55-1.25.66-.5.12-8.34-4.41-7.74-5.66-3.3.55-6.64,1.6-10,3.14l-2-1.14c-2.94,1.19-2.94.52,0-2-3.15-1.4-1.34-3.86,5.44-7.38,1.28-2.5,2.67-4.51,4.56-6.62.31-1.25,1.01-1.89,1-2,.02-.69.1-1.25.4-1.4.39-.2,8.04.74,6.6,3.4Z"/>
  <path class="cls-213" d="M395.8,204.65c-1.31,2.01-1.32,4.17-.03,6.5l-1.07,2.96c1.84.13,2.97.37,3.1,2.55,1.91,1.86,1.67,2.38-1,2-1.35,1.91-3.22,2.19-3.04-.39-3.48.77-6.47.9-8.96.39-1.98,1.95-5.6,4.25-8,5l-2.43-1.1c-1.93,3-5.01,4.25-8.44,2.84-.93,3.28-2.3,6.36-4.12,9.25-.1.99.09,2.03-.02,3.02-.51-.07-.91-1.03-.98-1.02-.86-5.67.74-9.82,2-15,8.82-10.53,17.83-19.75,32.99-17Z"/>
  <path class="cls-187" d="M353.8,259.65c-2.52,10.26-2.9,7.26-9.7,12.34-.5.37-.2,1.59-.3,1.66-2.91,3.74-9.42,9.25-14,7-.18.9-.52.86-1,0,.71-4.92,3.04-9.59,7-14,3.47.66,4.8-3.8,5.71-4.02,3.6-.86,8.87.55,12.29-2.98Z"/>
  <path class="cls-74" d="M371.8,237.65c2.66.59,3.29,3.29,1.87,8.09,3.5.1,7.59,3.39,7.13,6.91-.53,4.96-10.36,1.72-12-1-1.23,1.42-2.99,1.55-5.27.4-2.2.93-3.78.8-4.73-.4-2.34-.85.06-2.8,1.07-3.44,1.9-1.2,5.75-1.24,7.04-2.97,1.08-1.46.54-3.74,1.11-4.39.86-.99,1.82.98,3.79-3.21Z"/>
  <path class="cls-71" d="M361.8,234.65c.49-4.64,1.2-8.68,3.01-12.99h.97c-.86,2.61,3.74,2.54,5.45,2.06.51-.14,3.01-9.5,5.56-.06,1,1.18-.51,3.44-2,3-5.82-2.49-3.61,5.16-5.01,9l-1.99-4.01c-2.66-.21-4.64.75-5.99,3.01Z"/>
  <path class="cls-79" d="M373.8,236.65c3.67-.39,6.93,6.28,8,10,1.48,1.27,3.14,4.1,1,5,.92,1.53-1.12,2.65-2,1-2.12-.8-3.29-3.57-5.05-4.48-1.24-.64-3.67-.36-3.89-.57-1.42-1.38,1.99-8.15-.05-9.95.26-.55.94-1.77,1-2,.43-.67.76-.34,1,1Z"/>
  <path class="cls-108" d="M347.8,185.65l.72.48c.07.62-.7,1.19-.72,1.52-3.24.31-10.35-.23-5-1,.89.1,4.3-.57,5-1Z"/>
  <path class="cls-132" d="M332.81,174.65c.83.26.81.6,0,1-.66.21-1.4.88-2,1-.53.1-1.4.04-2,0-.67-2.46,2.19-3.17,4-2Z"/>
  <path class="cls-194" d="M361.8,187.65c-5.83,2.02.03-2.32.04-2.56.11-3.18-2.05-9.97-1.78-13.68.06-.85.89-1.76.76-2.75l2.99,1c3.76,8.83,2.88,10.71-2,18Z"/>
  <path class="cls-147" d="M270.82,363.65l-1.76,1.39c-8.07-2.06-1.56,8.11.76,11.19l-.45,6.6c.95,2.18.77,3.78-.55,4.81-.56,2.25-1.53,5.01-.99,7.32.17.74,1.81.6,1.98,1.36,1.34,6.08,2.13,11.75,3.27,18.57.44,2.65,2.58,5.84,2.66,7.23.19,3.43-5.22,8.03-1.91,13.52-.59-.1-1.88.18-2,0-.38-.55.36-3.66,0-4.02-.29-.29-5.65.55-7.01-.99-.15-1.05.39-2.5-1-3-.06-2.52.81-6.32-1-8-.02-3.99.06-8.01,0-12v-3.99s2.01,3.99,2.01,3.99l1-3.99,1.98,1.99c.58-2.32-1.71-3.7-1.99-5.58-.51-3.42,1.33-12.8-2.21-16.27-.5-.49-2.29.39-2.82-.79-.29-.64-2.61-13.14-2.56-13.84.23-3.63,6-5.87-1.39-9.01,4.02-4.16,6.05-9.43,11.99-10.51,3.38,3.44,4.43,9.8,2,14Z"/>
  <path class="cls-192" d="M267.82,319.65c-3.21,3.58-1.3,3.16,2,5,9.37,2.98,18.58,8.61,26,15l-4.01,1.51,5.02,1.99c-.03,1.64-6.57-1.99-5,3.85.2.75,4.4.78,0,4.65-6.93-4.33-14.93-7.77-22-12-4.22-2.52-.65-1.67-.29-2.17.22-.31-.15-3.85.3-4.83.45-.45,3.51,1.41,3.99.99,2.19-1.94-2.56-1.68-1.99-2.99l4.99.49c-1.38-3.66-12.55-5.97-12.96-6.58-.14-.2-.25-4.8-.04-4.92.63-.36,2.95.26,4.01,0Z"/>
  <path class="cls-147" d="M261.82,400.65c.09-1.02,2.05-3.83,1.01-6,1.95.21,1.38,7.64.98,8-.25.23-1.63-1.02-1.99-1,.02-.33-.03-.67,0-1Z"/>
  <path class="cls-83" d="M673.75,432.65c-3.59-.77-1.33,2.8-1.97,5.35-.29,1.15-1.92.53-2.03.65-.72-1.16-.81-2.89,0-4-1.12-2.45-.79-3.45,1-3-.72-5.64.09-11.52,1-17l.51-2.63c-2.43-.39-1.64-1.36.49-2.37-1.55-5.58-.57-13.81,2-19,3.14,6.98,4.4,18.66,2.53,26.03-2.08,8.17-4.51,3.94-3.53,15.97Z"/>
  <path class="cls-83" d="M668.75,441.65c1.3-.47,3.29-.85,4.47-.01,2.49,1.76-1.25,2.18-1.92,2.96-.88,1.02.42,3.91.28,4.58-.06.29-5.29,2.34.17,1.97-.03,2.03-3.24,2.44-4,5.49.62-4.73.73-10.19,1-15Z"/>
  <path class="cls-83" d="M675.75,381.65c.52,2.64,2.69,6.76-1,6,.15-1.81-.04-4.69,1-6Z"/>
  <path class="cls-65" d="M590.76,436.65l1.9,1.85c-.55,2.87-.74,19.36,1.32,19.97,2.06-.8,3.99-.07,5.78,2.18.68.21.64.55,0,1,.74,1.33.73,2.7,0,4-2.24,5-3.83,5.57-7.31.87-.61-.83-1.33-2.42-.69-1.87,3.09,2.33,3.23,13.13,0,15-2.56-6.57-2.81-6.55-.76.05,1.97,1.89,2.46,5.07,1.46,9.55l4.34.46-.2-9.28c-.54-4.52.51-7.44,3.15-8.77.32,12.83.41,24.24.27,34.22l.73,1.78v12c1.97,3.3,1.96,6.7,0,10,.71,1.39,1.28,2.78,1.33,4.2.48,12.37.99,25.98-1.33,37.8l1.31,1.6c-.7,3.99,1.58,3.93,4.69,3.4,1.96-3.01,5.29-5.01,10-6,.9-1.7,5.36-4.5,7-3,1.82.25-.15,2.71-.71,3.06-1.65,1.04-4.2,1.63-6.02,2.67-2.66,1.52-7.51,3.82-9.53,5.24-2.8,1.98-2.31,5.2-8.74,3.57l-.99-6.54-1.85-1.72-.18-19.61c-1.92,3.99-3.5,8.1-4.73,12.34l-2.23,1c-.28.87-.62.86-1,0-1.41-1.91-2.02-3.59,0-5,.2-7.12.87-13.96,2-20.5-.57-.09-1.01-.19-1.01-.3-.31-10.36-.27-21.66.05-32.03,0-.23.43-.45.96-.67-1.05-3.55-1.37-7.62-.94-12.22l-1.06-3.28c-2.49-2.09-2.48-3.9,0-6,.6-23.67.94-48,1-73l2.07.7c-.42,7.06-.45,14.16-.07,21.3Z"/>
  <path class="cls-212" d="M588.76,590.65c-3.07-.41-5.95,7.77-4.95,8.95,1.44,1.7,9.83.08,11.95,1.05-.49,3.21-1.93,4.09-5,3,.55,2.27-1.24,3.62-3,2,.29,3.01-.08,3.39-3,2-1.7,3.67-5.04,5.67-10,6l-.23,1.12c-1.82,0-2.99.16-3.77,1.88-.23.9-.56.88-1,0l-.03,2.18c-3.61,1.56-7.26,2.83-10.97,3.82-5.94,3.34-4.77-3.81-.74-3.99.83-.04-2.06,2.92-2.26,0-5.92-2.3-4.87-8.91.3-11.57-.61-3.92.29-6.07,2.7-6.43l1,3c.26-.82.6-.8,1,0,1.02-3.95,5.98-6.3,10-6-1.15-2.63.93-3.91,3-2,.32-.91.65-.91,1,0,1.76.24,2.42-.1,2-1l-.32-1.4c4.11-2.04,7.89-4.57,11.32-7.6,3.3-.39,4,3.7,1,5Z"/>
  <path class="cls-55" d="M629.76,464.65c.88-.06,1.57.24,2.03.96l.9,22.75c2.94,4.14,3.31,6.18,2.73,11.45,1.75-1.2,3.19-1.25,4.33-.16-.14,12.65.22,25.35,0,38-2.75-3-3.51,4.4-4.49,3.99-.82-1.32-3.35-1.94-4-3-1.35-2.22.75-6.1-1.49-6.99l-1,7.99c-.04-7.99.02-16.01-.01-23.99-.04-8.99,0-18.01,0-27-.76-7.99-.78-16.01,0-24,.28-.87.62-.86,1,0Z"/>
  <path class="cls-188" d="M597.76,575.65c-.04.39-1.04,1.55-1.1,3.41-.06,2.13,1.33,7.75.93,8.39-.22.34-1.65.46-2.26,1.26-.74.96-.44,2.77-.59,2.92-.59.59-2.81-.86-3.52-.87-.22,0-1.76,3.13-3.44,2.88-.55-1.38.94-2.44.99-3,.26-2.73-.97-4.19-1-5-.74-1.81-.71-4.18,0-6-.78-1.24-1.05-2.89,0-4,.71-2.66,1.04-5.32,1-8,1.55-8.9,5.65-11.62,7.12-22.37.17-1.26.41-5.45,1.87-5.62.09,6.83-.07,13.69-.03,20.54.04,5.85.7,8.88.04,15.46Z"/>
  <path class="cls-160" d="M603.76,595.65c-.25-3.13,5.48-8,7.84-8.1.71-.8-.75-4.85,1.66-5.89,2.79-.78,2.08,1.55,3.9,2.19.52.18,5.14.85,5.59.81.87.28.86.62,0,1,.79,2.46-.75,3.46-3,2,.85,1.73-2.45,2.75-4,2-.32,3.52-6.95,6.93-10,5-.65.36-1.35.63-2,1Z"/>
  <path class="cls-66" d="M642.75,469.65c.01.67,0,1.33,0,2h-1c.01-5.08-.85-11.53,1-16,.18,4.64-.08,9.35,0,14Z"/>
  <path class="cls-66" d="M629.76,447.65l1.86-13.74c1.62-9.92,6.36-12.25,10.3-1.52,2.39-.52,1.4,4.81.84,7.26-.39,2.73-.73,5.4-1,8-2.48-1.51-2.07-1.48-1.75,1.24,1.77,15.37-.08,34.84-.25,50.76l-4.49,3c-3.66-2.5-.98-6.95-1.64-9.27-.39-1.37-2.3-2.02-2.69-3.43-.78-2.79-1.01-20.66-1.18-25.29-.89-4.89-.78-10.15,0-15-.01-.67.01-1.33,0-2Z"/>
  <path class="cls-59" d="M642.75,441.65c.93,3.61.8,7.38,0,11v2c-.06-1.38-.92-4.23-1-7-.07-2.44-.71-6.39,1-8,.73.63.74,1.34,0,2Z"/>
  <path class="cls-95" d="M683.75,569.65c.51.2,1.78-.23,2,0s-1.19,2.21-1,2.99c-.19-.05-2.1,1.08-3,0,.67-1.08,1.09-1.35,2-3Z"/>
  <path class="cls-15" d="M653.75,325.65c-2.66,1.82-6.07,3.41-8,6-.6.13-1.59-.19-2,0-2.1-5.5,3.06-3.39,3.91-4.13.33-.29,1.29-7.63,6.09-1.87Z"/>
  <path class="cls-37" d="M634.75,355.65h10.99c.62.55-4.5,6.95-.99,9,.77,2.68.81,6.31,0,9,.75.86.74,2.13,0,3l-2.4.2c-.6-5.56-1.8-6.77-3.61-3.63-2.47-.02-4.47.79-6,2.43-.28.87-.62.86-1,0-.28-2.28-.61-4.62-1-7-1.23,2.71-3.9,4.37-8,5-1.26.23-2.61.2-4.06-.1-1.58,2.75-4.48,4.58-7.18,2.33-1.41-1.18-2.64-6.38-2.77-8.23-.3-1.37,1.03-2.7,4-4,2-1.8,3.66-2.47,5-2,5.26-1.47,10.38-3.7,15.34-6.67l1.66.67Z"/>
  <path class="cls-173" d="M643.75,347.65c.88,2.32-2.14,1.76-2.01,2.5.2,1.16,2.38-.37,2.01,1.49-3-1.04-3.28,2.04-3.98,2.4-1.13.57-2.76.52-5.02,1.61-4.31,2.1-8.08,4.11-12.65,5.85-1.27.49-3.35,2.27-4.35.15-.23-1.33.92-1.65,2-1-.09-1.5,1.01-2.41,3.32-2.72,2.76-2.92,5.05-4.47,8.68-5.28,4.83-.81,7.64-2.65,12-5Z"/>
  <path class="cls-182" d="M662.74,347.66c.68,1.36-4.55,2.39-4.99,1.98v-1.99s4.99,0,4.99,0Z"/>
  <path class="cls-115" d="M441.79,180.65c-.01.07,1.2.36,1.01.98-3.21-1.09-7.94,2.77-7.01-.98,1.84-.27,4.08.19,6,0Z"/>
  <path class="cls-88" d="M468.78,487.65c.48-10.01.69-19.99.63-29.92l1.37.92c.78.21,1.94.53,2,1.14.74,7.19.39,17.17-2,23.86,2.09-10.76,5.01-6.65,9,0,1.68,2.58,1.44,8.4-1.62,10.23l2.53,9.05c.51,34.27.21,68.51-.91,102.71-5.3-.3-2.06,9.11-3,10.01h-2.99c-.69-4.23,2.27-10.02-2.99-11.01.45,3.76-.8,7.31-1.01,11-.28.87-.62.86-1,0,.13-42.58-1.06-85.45,0-128Z"/>
  <path class="cls-152" d="M519.77,614.65c1.99,2.61,2.67,5.98,2.03,10.11l15.02-8.31,1.95,1.2c3.25-1.08,8.41-.39,11.24,1.75,1.48-2.24,4.25-3.38,5.75-.75.2.22,2.24-.17,3.01,0l-3,3.98h3c.85.24.82.57,0,1.01-.27.88-.61.87-1,0-1.12,3.28-3.56,5.09-7,4-.1,2.52-3,5.09-5,3-.34.88-1.34,1.54-3,2-.49,1.28-2.16,2.28-5,3-.67,2.08-3.81,2.94-6,3,1.13,2.05.13,2.72-3,2-3.72,2.39-7.31,4.93-10.78,7.6l-2.22-.6c-.42,3.15-2.57,4.1-5,2-.37-1.97-2.05-1.52-3-2-.73-2.86,3.61-6.34,6.54-5.57,2.45-1.35,1.8-17.81,1.49-21.05l1.97-1.38.55-2.67c-1.86-28.6-2.1-57.27-.73-86.02,1.83-1.15,2.81-.16,2.69,1.86.23,27,.25,54.59-.51,81.84Z"/>
  <path class="cls-205" d="M481.78,462.65c.67,3.6,1,7.5,0,11,.48,26.15.63,52.3.45,78.47,2.54,7.78,1.19,15.65-.45,23.53.79,7.99.85,16.01,0,24,.97,6.82.97,13.49,0,20,.85,4.96.84,10.03,0,15l.98,1.04c-.47,5.05.2,9.7,2.02,13.96-2.34,2.1-3.45,3.92-4.99-.5-.06-14.5.06-29.01,0-43.5-.15-34.17.07-68.37.05-102.55-2.82-4.61-2.9-5.74-4.08-10.75-.12-.51-3.94-1.76-1.47-4.69,5.95,7.46,5.32,1.91,5.5-4-2.28-5.85-3.75-26.05-.67-30.16,1.26-1.67,3.72,1.14,2.11,3.83l.56,5.34Z"/>
  <path class="cls-163" d="M517.77,619.65c.07,8.21,2.05,19.95-3.5,26-1.64-5.14-2.8.96-6.49,2-.29-.15-1.23.37-1.8-.18-.2-.2-2.24-4.98-2.19-5.25.25-1.23,5.16-2.08,3.98-5.57-.8-1.06-.27-1.58,1-1l1-6c-1.41-.85-1.35-3.11,0-4,.16-2.38.5-4.38,1-6,2.83-5.86,2.92-13.25,1.89-19.55-.98-5.44,4.83-9.82,5.25-3.12.47,7.51.62,15.25-.15,22.67Z"/>
  <path class="cls-167" d="M509.78,625.65c.03,1.32.07,2.68,0,4l-1,6c-.24.4-.7.66-1,1-3.15,3.59-7.62,5.7-11.92,7.57-1.04.45-3.52,2.36-4.07.43,2.27-1.49,14.54-8.26,15-9l.57-11.73c-2.31-1.43-2.37-6.92.43-8.27-.81-3.97-.76-8.01,0-12,4.48.53,2.86,8.63,1.96,12.65.45,3.22.47,6.34.04,9.35Z"/>
  <path class="cls-211" d="M468.78,643.65c.22-9.3-.03-18.69,0-28h1c-.52,9.44,2.29,19.66-1,28Z"/>
  <path class="cls-159" d="M495.78,663.65c-.9,1.63-1.81-.01-2,0v-1l2,1Z"/>
  <path class="cls-88" d="M389.8,457.65c8.61-4.4,9.72.9,9.04,8.04,0-1.36.32-1.04.96.96l1.19.02c.04,24.43.06,48.17.08,71.22l.73,1.76c0,1.33,0,2.67,0,4-4.17,1.94-1.06,6.92-1.1,9.61-.11,8.3-.92,17.09-.9,25.39-3.43,1.23-6.39-7.9-8.9-5.89-.45.36.65,2.29-1.09,1.88.2-3.81,3.21-10.35-1.01-12.99-.38-32.69-.38-65.35,0-98,.01-.82.96-3.54,1-6Z"/>
  <path class="cls-207" d="M429.79,514.65c3.51,0,3.55-7.75,4.01-10,1.95,1.28,3.25,3.08,5.84,3.13-.59,2.13,1.02,4.72,1.15,5.87,1.7,15.4.9,43.53.04,59.54-.17,3.17-1.53,6.21-1.04,9.46-.22-.65-.91-2.89-1.01-3.01s-2.86.96-2.96,1.08c-.23.25,2.11,6.29-1.51,5.92l-4.5-7.99c.89,1.91-.92,4.16-1.01,5,.16-2.64-.24-5.38,0-8,.34-20.35.67-40.69,1-61Z"/>
  <path class="cls-154" d="M389.8,457.65c.25-14.64-.2-29.35.01-43.99l1.61,12.66c-.49,3.85-1.45,8.4.12,12.09.61,1.44.26,1.49,2.26,1.24v-27c2.19.84,1.33,4,4.49,2.99,1.76-.82,1.16-4.18,2-3.99,3.56.81,2.19,3.53,2.51,3.99h-1c-.83,16.5-1.14,33.02-.92,49.57l-1.08,1.43c-.18-.17-1.79.54-2.05-.62-.63-2.8,1.38-7.79-3.94-8.38-.99,1.25,2.27,10.34-3,9.99,1.66-3.13,1.4-7.25-1-9.99Z"/>
  <path class="cls-155" d="M474.78,443.65c.07,3.2-2.95,3.21-9.03.01l.09,3.62c5.11,4.39,5.75,6.85,1.94,7.37-2.61-1.75-5.36-3.29-8-5-4.75-3.08-10.54-7.65-15.33-10.19-2.47-1.31-1.14-.5-2.67,1.19v-3c.7-.8,2.5-1.68,3.52-1.98,2.94-.86-.96,2.94,1.99,2,.82-.26,5.29-1.82,5.5-2.03.14-.14-2.1-3.42-.01-3.99.87.5,2.65.66,4.02,1.44,6.03,3.41,11.9,7.22,17.97,10.56Z"/>
  <path class="cls-98" d="M428.79,431.65c1.3,1.36,1.09,2.31,1.01,4.01l1.98-1.02v4.02s-1.98.47-1.98.47c2.77,6.01,4.82,15.95,3.93,22.96-.15,1.19-1.66,5.92-2.94,6.56v-14.5c0-.32,1.58-6.77-1-6-.05,22.16.08,44.34,0,66.5-.07,20.27.8,41.03-1,61-.34-27.97.46-56.03,0-84l-.44-41.57c-1.18-6.31-1.03-12.46.44-18.43Z"/>
  <path class="cls-130" d="M414.79,408.65c1.61,1.92,3.9,2.81,6,4l-.59.83c-3.19.24-5.31-2.73-7.41-3.83.3-.32.62-.82,1-1,.25-.11.66.09,1,0Z"/>
  <path class="cls-32" d="M319.81,443.65c0,7.99,0,16.01,0,24,0,.67,0,1.33,0,2v-42c.79,5.31.74,10.67,0,16Z"/>
  <path class="cls-32" d="M319.81,407.65c0,1,0,2,0,3-1.6-.84-.97-3.39-1-5-.61-8.31-.61-16.64,0-25,.02-1.66-.05-3.34,0-5,.28-.87.62-.86,1,0-.13,10.65,0,21.35,0,32Z"/>
  <path class="cls-42" d="M320.81,527.65h-1c.01-5.32,0-10.68,0-16h1c0,5.32-.03,10.68,0,16Z"/>
  <path class="cls-204" d="M571.77,360.65c2.41,1.32,1.55,3.23.09,5.09-2.76,2.24-4.43,3.61-.54,5.41.82.38.81,1.49.45,2.49-7.93,7.81-18.2,13.33-28.99,16l-1.97.29c-1.8-.37-14.09,7.04-17.03,9.71l-1.69,3.32c-9.53,6.57-19.36,12.63-29.51,18.16l-3.79-.48c-5.56,4.5-13.14,9.71-20,5-.63-.37-1.98-.41-3-1-1.18-.68-2.51-2.11-4-3-1.51-1.9-.84-2.24,2-1-1.4-4.35,5.05-3.75,4.12.7,5.85,3.09-.08-3.49-2.63-5.6l1.51-2.1.9-.55c7.36,5.35,20.34,2.4,24.09-5.45-.77-1.52-.11-3.85,2-7-.86-.25-.84-.59,0-1-.61-3.98,2.72-5.32,10-4-1.29-2.59,1.83-4.8,4-3,1.83.74,2.83-.93,3-5-2.79-.98-1.91-2.92,1-2,2.52.61,4.18-1.73,5-7l1.01-1.07c2.36,2.73,4.69,3.42,6.99,2.07,2.89-.6,7.46-.64,11,0-.78-2.65,6.05-6.31,8-4,2.95-2.23,5.05-5.26,6.29-9.08,5.35,1.19,9.59.89,12.7-.92-.06-3.4,6.6-6.53,9-5Z"/>
  <path class="cls-30" d="M423.79,379.65c.29,1.1.62,2.1,1,3,1.39-.14,5.08,2.47,2,4-.09,2.47.68,4.21,2.59,5.87l-.59,2.13c1.31,1.95,2.6,3.93,3.87,5.92,3.1,1.87,18.94,3.09,22.13-.92,1.61-.91,2.17-.43,1,1,2.75,5.16,5.43,9.03,10.78,11.74l.22,1.26c.15,3.41,4.44,4.26,6.99,5.01.45,1.73-1.98.38-2.02,1.56-.03.77,1.09,2.05.95,2.85-.59,3.29-9.43.08-5.92-3.42-1.48-.44-2.02.6-3,.99-3.27-1.19-6.6-2.86-10-5-2.29-1.82-4.62-2.82-7-3-1.17-.66-2.1-1.49-3-2-3.45-2.87-11.66-7.82-18-9-2.33-1.34-4.66-2.67-7-4-3.93,1.47-12.31-5.07-13-9-2.33-2.83,2.67-8.51,6-9,3.08-2.43,10.04-3.93,12,0Z"/>
  <path class="cls-198" d="M385.8,364.65c2.04.25,3.9,1.96,5.59,5.1,3.19,2.24,4.99,4.54,5.41,6.9,4.9,1.66,9.9,2.66,15,3l-6,9c-2.41-1.36-6.46-2.56-9-4-7.66-4.36-15.51-9.97-23-14,.96-1.83,3.36-1.73,7.18.29,1.13-3.52,2.74-5.62,4.82-6.29Z"/>
  <path class="cls-82" d="M360.8,354.65c1.87,1.63,3.54,3.96,5,7,1.7-1.17,4.03-1.15,6.98.06l10.54-1.71c1.59-.14,2.24,1.05,2.48,2.65,1.34,1.6.81,2.14-1,1-4.73,2.23-9.72,3.9-15,5-2.24-1.12-4.72-1.96-7-3-3.68-1.29-6.97-3.57-10-6-.66-.63-1.01-1.17-2-2-.7-3.13,8.4-5.61,10-3Z"/>
  <path class="cls-5" d="M384.8,363.65c1.69-.7,1.94-.58,1,1l-3.02,9-8.98-3c-1.21-.65-2.73-1.37-4-2,.33-5.16.76-2.01,4.45-3.05,3.29-.93,6.52-3.53,10.55-1.95Z"/>
  <path class="cls-2" d="M443.79,410.65c-5.4-3.08-12.2-5.68-18-9,4.64-2.24,11.53,4.26,15.83,6.67.49.27,4.46,1.38,2.17,2.33Z"/>
  <path class="cls-236" d="M453.79,415.65c4.23-.61,6.26,3.04,10,5-.67.27-1.55.12-2,1-3.02-1.81-6.39-4.51-9-6,.3-.53.64-.52,1,0Z"/>
  <path class="cls-54" d="M453.79,415.65h-1c-1.75-1-4.09-1.92-6-3l.56-.95c2.31.68,5.19,1.65,6.44,3.95Z"/>
  <path class="cls-32" d="M306.81,377.65c.04-1.33,2.1-5.41,1-7.99,3.89.25,5.9,3.73,9.98,1,.39,2.78-2.09,4.83-2.09,7.51,0,1.75,1.98,2.06,2.1,2.49,1.34,7.55.75,17.04,0,25,.11,10.08-.05,19.84,0,30-4.4,1.76-5.09,4.78-9.99,1l-1,9.99c.33-17.81-.47-35.72-.05-53.54.12-5.18-.1-10.53.04-15.46Z"/>
  <path class="cls-41" d="M318.81,405.65h-1c-.06-5.52,1.11-21.08,0-25h1c-.08,8.3-.16,16.7,0,25Z"/>
  <path class="cls-192" d="M293.81,353.65c1.7-3.75,6.37.39,4,2-.88-.58-2.6-1.1-4-2Z"/>
  <path class="cls-207" d="M441.79,511.65v-16h1c-.01,5.08.85,11.53-1,16Z"/>
  <path class="cls-116" d="M401.8,539.65c-3.01.53-2.05-1.42-1.88-3.35,1.83-20.15-.19-40.09-.22-60.16,0-2.85,2.12-7.64.1-9.49,1.89-17.12-1.77-34.32,2-51,.08,41.32-.1,82.68,0,124Z"/>
  <path class="cls-88" d="M388.8,594.65c.19-4.63-.04-9.36,0-14,1.69,3.56,1.67,10.65,0,14Z"/>
  <path class="cls-51" d="M502.78,430.65c6.32-1.84,10.3,2.03,4.6,6.93.55,2.41-.13,3.6-2.6,3.07.54,1.45-.46,2.12-3,2-1.15,4.46-10.48,9.99-15,10-3.46,2.28-5.13,5.61-5,10l-1.99-8.99c-.24,9.97.29,20.03-.01,29.99-3.98,1.51-4.22-4.95-5.5-4.98-1.88-.05-1.87,4.93-3.5,4.98v-25c-1.76-.22-.95,2.26-1,3.49-.32,7.67.26,15.41.04,23.09-.04,1.29-1.04,2.29-1.04,2.42-.45-10.97,1.06-22.33-1-33-.04-.19.91-1.05.45-2-.91-1.87-4.11-2.8-4.48-5.55-1.29-9.75,5.77-3.43,9.05-2.81,1.52.28,1.74-.59,1.98-.63,2.82-.5,2.81-.86,5-2,2.56.18,4.74-1.05,5-3,4.75-2.82,9.18-6.23,14-9,1.54-1.92,2.54-2.25,3-1,2.64-.67,2.83.06,1,2Z"/>
  <path class="cls-207" d="M442.79,563.65h-1v-28c1.66,1.04,1,3.79,1.02,5.49.08,7.5-.02,15.03-.02,22.51Z"/>
  <path class="cls-146" d="M270.82,363.65c.5,3.67,1.49,7.66,2,11,1.43,4.08,1.77,8.08,1,12,.22,1.25.81,2.15,1,3,.7,1.83.7,3.5,0,5-1.68,0-.59-1.94-1.13-2.82-.19-.31-2.63.22-4.87-4.18-3.1-6.07-.14-7.59-.99-11.31-.08-.36-3.74-4.85-3.93-5.47-1.84-5.88.31-10.53,6.92-7.23Z"/>
  <path class="cls-111" d="M278.82,427.65v1h-3s2-5,2-5c.19,1.05.7,2.75,1,4Z"/>
  <path class="cls-111" d="M277.82,419.65c-3.08-1.77-.99-3.76-1-4,.8,1.24.95,2.56,1,4Z"/>
  <path class="cls-125" d="M495.78,181.65c.45,1.06.95,3.75,1.11,3.88.43.36,4.16.03,5.93.58,2.2.68,7.03,3.98,8.96,5.54-3.77,1.37-1.01,5.7-2.21,7.8-.2.35-4.33,2.43-4.79,4.2-1.87,1.96-2.69,1.74-3-1-4.59-1.69-9.59-2.02-15-1-1.8,2.04-5.23,5.05-8,5-.78,1.98-3.75,3.24-5,2-1.26,1.38-3.82,1.26-3-1-2.31-.4-.73-5.41,1-5,2.53-3.29,3.78-4.82,6.33-1.11-2-3.96-.83-6.95,3.52-8.96l1.15-1.94c-.92-.32-.92-.66,0-1-1.26-1.56-.59-3.23,2-5l1.14-.74c3.59,3.22,5.11,2.03,7.61-2.18l2.26-.08Z"/>
  <path class="cls-161" d="M485.78,170.65c3.73,3.04,4.47,3.07,7.02,7.51.42.73,1.24,3.87,1.98,1.49.2.52.69,1.26,1,2-2,4.4-3.87,5.75-8.52,6.98-.45-2.37-1.23-2.64-2.48-3.98-2.51,1.32-3.29.52-2-2-2.94-3.27-2.92-5.68.07-7.23-1.68-3.75-1.29-7.39,2.93-4.77Z"/>
  <path class="cls-235" d="M485.78,170.65c-4.77-.43.07,3.87-.43,5-.44.98-2.83,2.34-3.56,3.51l1,3.49c-1.01-1.02-5.41-5.69-6-6,2.04-.95,1.68-6.59,2.07-6.93.19-.17,4.68-1.07,4.93-1.07,1.25,0,1.56,1.64,2,2Z"/>
  <path class="cls-184" d="M492.78,231.65c9.7-4.35,13.7-3.02,12,4-.23.07-.96,1.19,0,1-.37.09-1.67,1.87-3,2-2.67,1-4,2.33-4,4,.07,2.09.07,4.09,0,6,2.63-1.14,5.76,2.63,4,5,.48,1.02,1.64,6.36,2,8,.5,8.34-9.69,6.11-12,1-2.01-.46-3.72-2.05-5.12-4.76-2.65-2-3.94-4.08-3.88-6.24-1.15.85-1.68.31-1-1-3.11-1.35-1.76-3.38,4.06-6.08-1.23-2.9-.91-4.87.94-5.92-.89-.3-.88-.63,0-1-1.77-2.32-.11-4.32,5-6,.33,0,.67.03,1,0Z"/>
  <path class="cls-58" d="M510.78,217.65l3.99,2.04c-1.42,8.6-.73,13.18-9.99,15.96-2.27-3.27-4.45-.76-1-4.99-3.3-.61-6.81,1.39-9.68,1.73-.76.09-1.24-.75-1.31-.74,1.71-4.23,14.02-4.05,14.87-5.13.18-.23.77-4.38,1.13-5.87-.57-1.06-.24-2.71,1-3h1Z"/>
  <path class="cls-60" d="M543.77,215.65l-2,1c-2.89,1.73-6.22,1.73-10,0-.88.18-2.35-.25-3,0-3.12-3.11,6.37-4.86,7.52-4.84,3.55.07,5.07,2.35,7.48,3.84Z"/>
  <path class="cls-123" d="M518.77,226.65c.15.91-.23,2.24,0,3,.57,1.63-.81,2.9-1,1.5l.02-5.51c.48.11.84,1,.98,1.01Z"/>
  <path class="cls-164" d="M540.77,246.65c.46-2.5-.49-4.7.76-7.75,1.06-2.59,4.36-4.41,6.24-6.25,1.78.2-.81,2.84-1.19,3.31-3.15,3.88-4.64,5.46-5.81,10.69Z"/>
  <path class="cls-16" d="M607.76,260.65c.4,2.58,1.9,4.72,3,7,.56,1.17,1.8,2.5,2,3,6.72,3.28,1.51,9.78-5,6-1.31,1.22-4.72-.03-5-2-2.55,1.14-3.25.44-2-2-2.5-.89-4.84-2.56-7-5-.1-.26.08-.66,0-1-.14-.58-1.36-1.75-1-1.99,4.53.54,7.73,1.11,11.56-1.98,1.2-.97,1.26-2.8,1.51-3.03.55-.49,1.76.99,1.92,1Z"/>
  <path class="cls-16" d="M582.76,266.65c-1.93-.13,1.48-2.89,1.64-2.92.85-.16,6.61.03,7.35,1.43l-6.99,1.49c-.65.07-1.48-.14-2,0Z"/>
  <path class="cls-142" d="M544.77,300.65c6.22,1.33,12.97,4.59,18.99,1.99-1.65,4.46,6.47,4.28,8.01,1.01.57.02.9.69,1,2,1.4-1.27,1.91-.74,1,1,2.97.76,4.64,3.1,5,7,3.06-.5,6.36,8.03,4,10,.09,4.82-4.94,2.25-4.98-1.99-.07-.1-1.88.86-1.8,1.55,2.06,2.82,1.7,7.31-2.22,5.44-2.95.14-7.23-5.21-6-8-3.22-1.23-6.56-2.77-9.99-4.63-3.11-.1-5.45-.89-7.01-2.37-2.31.16-4.28-1.73-5.91-5.67-2.87-1.87-4.23-3.97-4.09-6.33.12-1.34,1.92-1.23,3-1,.29.09.67-.07,1,0Z"/>
  <path class="cls-141" d="M638.75,267.65c-.73,1.96.85,4.3.91,5.58.01.29-3.59.57-1.91,2.4,2.33,2.54,7.7.71,7.99,1.02.21.23-.25,3.1.14,4.39.61,2.02,4.38.67,1.87,3.61-2.59-.69-5.61-.32-8,0-.91,1.9-5.29,2.01-7,1-1.52,1.15-2.18.48-2-2-1.33-3.15-.19-6.43,3.43-9.85.57-3.04,1.76-4.75,3.57-5.15.18-.56,0-1.12,1-1Z"/>
  <path class="cls-128" d="M634.75,322.65c-.34,2.55-2.24,2.57-3.49,4.96l-11.5,10.04c-2.81.69-13.75,2.75-13.11-1.66.18-1.23,1.14-1.28,2.11-.34,1.18-1.59,4.92-1.24,7-1,.09-1.23,1.4-2.04,3.93-2.43,3.14-3.41,6.68-6.71,10.62-9.89l2.45.32c-.03-.91.1-1.28,1-1,.28-.87.62-.86,1,0-.03.33.04.67,0,1Z"/>
  <path class="cls-47" d="M634.75,321.65h-1c-.98-2.94-.98-6.27,0-10,.19-.89.52-.86,1,0-.11,3.29.26,6.74,0,10Z"/>
  <path class="cls-68" d="M586.76,327.65c-4.16-3.16,7.07-11.51,9.68-10.15,1.66.86,5.83,10.65,4.31,13.15l1.25-.61c2.21,1.08,4.13,2.62,5.75,4.61,1.56-.87,2.06-.5,1,1-.02.14-1.16.36-1.01.98,1.84-.05,3.71.13,5.56.07,4.26-.14,4.42-2.02,6.45.95.36.53-.15,2.43,1.57,2.83,2.35.54,6.98-1.57,9.43-1.83-8.37,4.77-16.58,10.19-25,15-.12,3.59-6.99,6.64-10,5-2.41-.36-2.9-2.98-1.48-7.87-3.03.1-4.54-.94-4.52-3.13.88-1.91,2.9-3.25,6.07-4-4.09-1.52-5.78-3.52-5.07-6-1.87.63-1.62-2.5-1-4-1.85-.34-2.84-2.34-3-6Z"/>
  <path class="cls-19" d="M412.79,205.65l1.99,4.99c.17-7.61,5.06-13.65,8.51-19.99-.16,4.02-.62,8.17,3,10.99.41-1.57,2.45-2.22,2.82-3.27.47-1.35-1.17-6.16,2.67-.73,1.68.8.63,1.76-1,2-1.26,3.12-2.93,5.12-5,6-.99,1.35-1.36-.99-1.32-.88.83,2.26-2.07,15.9-3.84,17.06-1.67,1.1-12.96,2.87-13.84-.18-2.8-1.52-1.72-3.52,1.18-4,1.15-1.72,2.75-3.39,4.82-5-.25-2.25.17-4.72,0-7Z"/>
  <path class="cls-204" d="M410.79,213.65c.42,2.8-1.27,2.78-5.06-.08-3,4.17-5.64,5.2-7.94,3.08l-5.99-1.01c-.49-2,2.04-2.7,2.01-4.49-.04-2.32-4.43-4.14,1.99-6.5,6.26,1.13,11.35,3.51,15,9Z"/>
  <path class="cls-133" d="M410.79,213.65c.82-.11,1.5-.26,2-1,.02.16,1.87,2.17,1,3-.21.2-2.02-.35-2.75.18-.85.63-.6,2.42-1.14,3.22-.86,1.28-3.87-.48-3.11,2.61-.71,1.27-2.38,1.27-5,0-.38,1.52-1.05,1.18-2-1-2.34,1.32-3.21.59-3-2,.39-.49.65-1.75,1-2,.89-.65,2.59-.59,3.62-1.39.85-.66,2.61-3.55,3.07-3.62,3.78-.59,4.64,2.62,5.81,2.79.32.05.45-.77.49-.78Z"/>
  <path class="cls-78" d="M311.81,260.65c0,1.32-1.05,2.75-3.16,4.29-.91,2.28-1.85,4.18-2.84,5.71-.07-.14-.92.14-1,0-.34-.61.77-2.37-.98-1.99-2.28,1.76-1.72,6.76-2.02,6.99-.35.27-2.27-.29-3.26,0-.39.11-3.27,5.64-4.55-2.52-.14-.87,1.88-9.1,2.3-9.53,1.21-1.24,3.26-.27,5-.88,3.53-1.24,7.09-4.39,10.52-2.07Z"/>
  <path class="cls-119" d="M289.81,304.65c2.44,6.46,8.32,12.57,15.68,12.76,1.64.04,3.1-1.41,4.91-1.71,5.02-.82,2.99,1.5,4.41,4.95,2.17,4.95-2.65,3.49-5.21.46-6.03,4.05-14.04-.31-16.79-6.46-2.45-2.79-4.5-5.18-5-9-.19-1.49-.2-4.52,0-6,1.01,1.47,1.37,3.34,2,5Z"/>
  <path class="cls-226" d="M295.81,291.65c.06-.12-1.17-1.56.21-2.76,2.91-2.55,9.97-.15,13.78-.24.29-2.17-1.93-3.08-2.55-4.98-.49-1.53-.17-3.06-.44-4.02,12.47,14.42-2.42,8.15-11,12Z"/>
  <path class="cls-49" d="M292.81,314.65c1.59,1.82,4.27,5.2,6.66,5.68.33.07,6.33.32,6.81.29,1.32-.08,2.29-1.54,3.05-1.62,2.26-.22,5.91,6.35,5.48,1.64.26.62,1.49,1.39,2,2,.89.19.86.52,0,1,1.57,3.87,13.44,11.21,20.54,10.1l.45.9c.66,1.19,1.01,2.31-.19,2.91,5.19.84,5.92,4.87,2.19,12.09-3.61.23-6.14-2.41-9-4-5.74-4.88-12.07-8.88-19-12-6.48-3.24-12.67-6.48-19-10-.41-.23-1.6.23-2,0-.34-3.28.85-1.81,2.7-1.21,2.54.83,4.23,2.66,7.29,1.2l-7.03-5.49-.97-3.5Z"/>
  <path class="cls-212" d="M379.8,287.65c7.1.7,14.78,2.18,23.05,4.43l.95,1.57c2.15,1.68,1.37,3.17-1.3,3.51,1.42,3.07.22,3.3-2.7,2.49l-.86.8c-7.36-2.42-16.87-2.05-22.13,4.2-1.6,3.45-3.11,7.14-4.54,11.07,1.89,1.2,2.04,5.01-.46,5.93,4.13,3.59,4.68,14.04-1.25,11.61l-1.75.39c-.24,1.07-1.9,1.73-5,2-.43,1.72-.76,2.49-2,1-1.96-.28-4.22-.07-6.77.63-2.65-5.52-5.64-6.57-8.97-3.14l-2.26-1.49c-.7,1.79-2.55,2.09-3,0,.15-2.63,2.49-3.96,7-4,3.07-1.97,5.69-4.1,9-6,1.52-1.72,2.19-4.05,2-7,.01-.16.77-1.73,1-3-.83-6.38,5.34-15.7,9.74-20.03l2.25.03c1.16-2.3.7-4.14,1.11-4.88.45-.81,6.19-.44,6.89-.12Z"/>
  <path class="cls-193" d="M381.8,279.65c3.08-.17,4.36,5.69,3,8,3.15-.74,6.15-.74,9,0,3.26-.54,10.33-1.19,11,4,3-1.26,4-.59,3,2,.02,3.22-3.47,3.13-4,0-5.85-1.59-12.6-3.12-18.68-3.79-1.75-.19-2.62,2.15-3.29,1.78-.2-.11-1.82-3.9-2.02-3.99,4.21-2.94-3.35-8.57,0-12,1.9-.04,2.05,2.29,2,4Z"/>
  <path class="cls-4" d="M343.81,273.65l-.97,1.5.97.5c-1.38.82-4.18,3.89-6,5-.41,1.74-3.37,2.74-5,2-1.36-.49-3.65,1.25-3-2,3.8-.14,10.61-4.57,14-7Z"/>
  <path class="cls-240" d="M632.75,375.65c2.14.59,2.99,3.08,2.56,7.47,6.73-1.04,6.33,7.69,5.78,12.57-2.2,1.85-1.4,6.25,1.66,6.46-.77-.2-1.8-.47-2-1.14-.22-.73-.04-13.1,0-15.2-.7-3.68-.04-6.07,2-7.16l.77-1.19c1.08,9.14,1.16,18.54.23,28.19.04,11.98.06,24.02,0,36-.28.87-.62.86-1,0,0-.67.01-1.33,0-2-.04-2.33.04-4.67-.01-7l-1.98,3.99c-.77-3.6-1.59-7.86-5-9.99l-6.01,21c-.17-10.31.04-20.69,0-31,.38-4.79.71-9.46,1-14,.1-9.04.44-18.04,1-27h1Z"/>
  <path class="cls-64" d="M590.76,436.65c-.31-4.19-1.11-19.68,1.81-22.04,3.85-3.11,6.19,2.17,5.17,5.97,1.26,0,1.78.86,2.02,2.08.68,12.66.81,25.35,0,38-2.35,4.86-2.14-.93-3.5-.98-.4-.02-1.78,2.37-2.48,1.98-.15-.08-1.87-2.64-1.93-2.8-2.5-6.64-1.45-15.06-1.1-22.2Z"/>
  <path class="cls-109" d="M588.76,397.65c-2.68-2.59,5.32-6.21,6.91-5.94.3.05,4.38,2.91,4.56,3.16.27.39.23,4.28-.47,4.78.86,7.58.65,15.39,0,23-1.53-.43-3.82,1.38-4.01-1.47-.15-2.17,1.3-6.35-1.98-5.54.73,3.38-2.5,5.86-2.8,8.73s-.02,8.48-.21,12.28l-2-22c-.83-5.28-.5-11.67,0-17Z"/>
  <path class="cls-64" d="M599.76,471.65c-2.3,8.14-.37,17.55-1.01,25.99-2.89-.4-2.83-5.63-3.07-5.9-.21-.24-5.53-.56-5.93-1.1-.19-.27,1.17-4.65,1.1-6.49-.13-3.56-1.5-6.89-1.09-10.49l1.99,6v-15l-1.99,3.99v-6.99c1.86.39,2.18,2.64,3.37,3.68.43.37,1.46.17,1.78.43,1.2.91.77,1.81.85,1.87,3.05,2.25.61-5.14,3.98-1.98.73,2,.73,4.02,0,6Z"/>
  <path class="cls-227" d="M587.76,493.65c3.79,1.84,1.27,7.24,2,10.34.18.77,2.03.71,1.99,1.11-.08.82-1.99,3.21-1.99,4.04v33c0,6.66-.5,14-2,20.5-.15-22.98.23-46.02,0-69Z"/>
  <path class="cls-197" d="M588.76,397.65c.72,4.51-.03,12.01,0,17,.15,22.47.25,45.03.02,67.51-.02,1.69.64,4.45-1.02,5.49-.04-4.32.05-8.68,0-13-2.52-2.12-2.5-3.87,0-6-.3-23.45-.6-46.91-.9-70.36-2.03-1-1.11-1.86.9-2.64,2.39-2.18,3.99-.48,1,2Z"/>
  <path class="cls-102" d="M600.76,461.65c-.28.87-.62.86-1,0,0-.33,0-.67,0-1,.05-12.65.04-25.35,0-38-.02-7.64.19-15.36,0-23,.28-.87.62-.86,1,0-.39,20.63.05,41.37,0,62Z"/>
  <path class="cls-104" d="M600.76,507.65c-2.85.6-2.15-1.64-2.05-3.5.6-10.96.97-21.45,1.05-32.5.01-2-.01-4,0-6,0-1.33,0-2.67,0-4h1c-.04,15.32-.02,30.68,0,46Z"/>
  <path class="cls-227" d="M587.76,575.65c-1.95-1.26-1.94-2.73,0-4-.02-1.33.01-2.67,0-4h1c-.17.99,2.13,6.21-1,8Z"/>
  <path class="cls-43" d="M549.77,596.65c-.75-4.64-.41-13.94,6-10.5-3.24-1.29-3.1-12.93,0-14.5,1.65-3.24,2.65-.57,3,8,1.69,3.43,1.59,12.17.01,15.99-.1.24.5-5.1,1.99-3.99.46,2.5.46,5.16,0,8,2.72,1.17,2.28,2.41,0,4-.22.04-.83.08-1,0-.33-1.39-.66-2.39-1-3-1.11,3.47-.44,4.95-.98,7.3-.22.94-3.5,1.29-4.02,5.34-.35,2.7.93,1.83,1.92,3.19.42.58-.08,1.99.08,2.17-1.06.44-3.62.48-4.01,1.51-.75,1.98,4.19,1.53,2.01,3.48-.15.14-3.85,1.17-3.99,1.02-.16-.18.17-2.75-1.42-4.09-2.58-2.18-7.08-.06-9.59-2.92-1.07-2.04.17-3.94,2.17-2.81,1.01-1.53,1.93-2.02,2.82-.19,1.32-.23,3.85-1.5,4.29-2.74l.71-14.78,1-.49Z"/>
  <path class="cls-46" d="M559.77,603.65c-1.39-.64-1.05-1.57-1-3,.16-.5-.11-1.36.01-1.99h.98s.01,4.99.01,4.99Z"/>
  <path class="cls-174" d="M576.76,594.65l.99.51c.39,3.35-2.41.53-2.99.49.62-.37,1.42-.58,2-1Z"/>
  <path class="cls-35" d="M632.75,375.65c.05-1.96-.45-3.68,1.5-4.98l3.5,1.99c-.59-4.36.77-2.46,3.27-3,.68-.15,1.22-3.95,2.73-2,.87,1.13-1.38,7.41,1.01,8.99.74,9.5.52,19.48,0,29h-1c-.03-7.79.32-15.72,0-23.51-.05-1.23.76-3.71-1-3.49v23.5c0,.18-2.32,2.48-2.5,2.48-1.18,0-2.8-6.88-2.53-8.31.11-.59,2.93-.26,2.08-6.21-.32-2.24-2.83-8.25-4.31-4.21-.81,2.21,1.92,5.46-1.73,4.76l-1.01-15Z"/>
  <path class="cls-238" d="M608.76,367.65c.41,1.45,3.13,2.3,3.48,2.97.47.89-.7,2.27-.35,2.83,1.24,1.99,6.57,3.15,3.86-1.79,2.38.11,5.88-.99,7,2-1.48,2.47-5.04,4.71-8,5-.74.61-1.78.94-3,2-.28.87-.62.86-1,0-6.18.85-12.62,4.98-10,12-.14,2.31.04,4.68,0,7h-1c-.02-.94.18-3.84,0-3.99-.33-.28-2.3.29-3.27,0-1.08-.31-.64-1.86-.77-1.95-1.97-1.47-1.86,1.39-2.22,1.65-1.15.83-3.89-.49-4.73,2.29-.15-.95.37-1.64-1-2-.99,1.3-2.99,1.97-6,2-4.49,2.11-15.94,7.78-19,11-1.78,6.34-2.45,13.01-2,20-.04,1,.03,2,0,3-.46,4.19-.8,8.52-1,13l-2.42-1.89c-.82-9.79-.85-19.6-.11-29.42-3.7-1.48-7.06-6.99-8.47-10.68-.27.56-.61.54-1,0,.54-1.82,2.54-3.49,6-5,10.58-6.82,21.51-12.71,32.63-18.58l3.36-.42c4.64.58,7.85-.96,9.64-4.63,3.13-.55,7.14-1.81,7.36-5.37-.52-1.69.91-2.39,2-1Z"/>
  <path class="cls-35" d="M631.76,375.65c.24,9.22-.53,18.18-1,27-.13-.94.2-2.16,0-3v-31c1.68.09.95,5.06,1,7Z"/>
  <path class="cls-203" d="M509.78,427.65c-5.06-.35,3.69-5.15,5.96-5.34,5.16-.42,10.63,5.61,6.04,9.34-.86,19.33-1.2,39.33-1,60,2.3,26.34,3.02,54.14,2.08,80.67-1.44,9.63-2.13,19.4-2.08,29.33,2.93,2.4,2.21,10.97-1,13-.81-26.42,1.08-53.1,0-79.51-.05-1.22.75-3.72-.99-3.48-.12,9.83.11,19.69.03,29.54-.14,17.56.2,35.25-.02,52.97-.02,1.69.64,4.45-1.02,5.49-.07-8.38-.24-16.66-1.01-25-4.12,2.03-1.14,7.88-1.26,10.72-.07,1.49-1.53,2.41-1.68,3.82-.37,3.35,1.77,10.19-3.05,10.46l-.92-.48c1.23-6.24.87-12.32-1.08-18.25,2.52-19.26,2.94-39.47,0-58.7,1.04-2.96.92-5.54-.37-7.74-.22-6.87-.36-15.5,1.63-21.62-2.78-8.02-1.56-13.88,3.64-17.58l.16-2.91c-1.92-5.85-1.28-8.42,1.93-7.73l1.32-.22c-.13-15.97-.5-31.93-1.13-47.87-1.92-.87-2.65-2.49-2.18-4.88-2.4-.54-4.48-1.32-4-4.03Z"/>
  <path class="cls-196" d="M509.78,459.65c.9.09,1.94.46,2.05,1.25.64,4.79,1.48,8.93,2.95,13.75,3.17.77,3.12,8.31,1,10,0,.15-.95.77-.96,1.57-.04,3.12,1.88,5.94.75,9.72-.99,3.3-5.7,2.87-5.91,7.21-.17,3.66,3.42,6.38,2.09,11.81-.2.81-1.81.27-2.05,2.12-.21,1.64-.8,16.31-.65,17.15.19,1.06,2.21,1.08,2.53,1.58,1.49,2.34-1.79,4.72-1.8,6.33,0,.96,1.76,3.16,2.06,5.93,1.12,10.25,1.05,35.79-.04,46.1-.27,2.51-1.97,4.38-2.06,6.06-.14,2.69,3.45,6.96,2.02,12.74-.59,2.37-1.3.2-.99,6.67.09,1.83.59,4.97-1,6-.06-3.24-.93-5.89-1.02-8.56-.14-4.19,2.38-9.84-.98-13.44-.63-49.76-.76-99.39-.39-148.88,2.11-2.41,6.8,3.69,2.39,4.88Z"/>
  <path class="cls-196" d="M508.78,635.65c.14-1.88-.77-4.88,1-6-.14,2.67.55,3.47-1,6Z"/>
  <path class="cls-109" d="M509.78,427.65c3.2.76,1.57,3.07,5.99,1.01l.02,6.99,1.98-3.99c.65,20.61,2.07,41.35,0,61.99l-1.99-8.99c-.06-3.69-.88-7.17-1-10-1.54-4.24-2.01-8.45-1.82-12.92-1.91.21-2.97-.49-3.18-2.08-.12-1.02,0-4.45-2-3.5,0,49.16.03,98.35,0,147.5,0,3.99,0,8.01,0,12-1.66-1.04-1-3.79-1.02-5.49-.32-26.15.02-52.37.02-78.51-.84-14.65-.79-29.36,0-44-.83-10.6-.79-21.41,0-32-.08-3.76.6-9.16-.01-12.53-.37-2.07-1.95-2.32-1.99-2.47-.18-.88,2.83-2.64-1-3.49,3.03-2.23,4.85-.53,4.01-5.5-2.17.07-3.31.44-5.01-1-.38-2.17,5.42-5.05,7-3Z"/>
  <path class="cls-8" d="M496.78,662.65c-.05-.13-1-.38-1-1,1.03.3.93.99,1,1Z"/>
  <path class="cls-62" d="M535.77,672.65c.18-.02,1.46-1.57,1.99-1,.23.25-.23,1.71,0,2-2.04,1.27-2.17,1.67-2-1Z"/>
  <path class="cls-7" d="M488.78,420.65c.6,1.9-2.22,2.92-4,4-1.33.81-8.04,4.98-8.54,5.03-3.72.38-5.52-2.92-7.46-4.03,1.47-.58,6.91,1.05,7.54.72,1.24-.65,1.21-2.35,1.62-2.6.63-.38,2.35.87,3.87.48.7-.18,4.89-2.72,6.96-3.6Z"/>
  <path class="cls-199" d="M484.78,438.65l.97.49c-.69,2.5-4.05,4.79-5.97,2.51,1.63-.85,3.38-2.03,5-3Z"/>
  <path class="cls-224" d="M502.78,360.65c-.17-1.79,1.18-2.67,4.05-2.64-.3-2.94.92-4.48,3.99-4.25,4.26.31,12.77,16.08,9.68,20.37.31,1.71,1.07,3.55,2.28,5.52.7-2.56,1.15-2.52,2,0-2.7,4.89-5.06-.35-8-1v-2l-2.07-.74c-.13-4.4-1.44-5.82-3.92-4.26-2.29-2.58-4.94-6.03-7-9-.16-.64-.76-1.33-1-2Z"/>
  <path class="cls-181" d="M576.76,352.65c3.21,0,3.25,3.12,2.03,5.53,6.5,3.72,7.31,6.63,2.42,8.74l-1.44,1.73c-2.65,1.56-5.04,3.36-8,5-.4-1.69-2.55.42-3.04-.51-3.68-6.91-.36-5.91,1.95-9.12.81-1.12.67-2.65,1.09-3.36,1.57-2.69,2.92-5.64,5-8Z"/>
  <path class="cls-191" d="M464.78,409.65c2.19,1.63,2.95,2.85,6,4,3.01-.13,6.01.2,9,1,1.24-.25,3.75-1.38,5-2l5.7-5.56,1.3.56c0,.06.98-.16.99.53.04,4-2.9,3.41-5.55,5.44-1.01.78-1.24,2.72-1.57,2.95-.49.34-2.65-.89-4.13-.72-1.61.19-2.76,1.37-4.85,1.29-3.31-.13-7.04-1.98-9.87-3.49-5.6-2.99-9.35-6.72-11-13l1.6-.25c2.28,3.4,4.75,6.49,7.4,9.25Z"/>
  <path class="cls-72" d="M562.77,365.65c-.31,6.57-10.74,1.24-12.85,3.16-.19.17-.51,2.54-1.57,3.9-1.71,2.2-2.88,1.96-4.57,2.95,3.24-3.77,4.36-7.92,6.15-12.39.4-1,1.82-1.49,1.85-1.61,5.95.68,4.67,6.09,11,4Z"/>
  <path class="cls-169" d="M542.77,389.65c-6.29,3.58-13.07,6.6-19,10-1.51-.02.99-3.68,1.16-3.79.31-.2,1.79.82,2.76.29,3.54-1.96,8.07-6.13,11.57-7.57,1.78-.73,2.75-1.19,3.5,1.07Z"/>
  <path class="cls-220" d="M503.78,395.65c-4.57,2.48-7.52-.22-10,4-.46-2.36-3.64-4.95-2.99-7.99l12.99,3.99Z"/>
  <path class="cls-222" d="M511.78,376.65c1.55.87,3.21.87,5,0,.02.66,0,1.33,0,2-.02,4.18-.07,7.53-3.99,10,.45-1.29-.92-2.46-1.01-3-.06-.32.03-.67,0-1-.96-2.21-.8-4.77,0-7v-1Z"/>
  <path class="cls-222" d="M510.78,387.65c2.04,3.84-1.4,11.89-3,5,.59-.68,2.21-3.72,3-5Z"/>
  <path class="cls-129" d="M343.81,332.65c3.79-.65,4.01-2.32,5.65-2.73.84-.21,2.24.81,2.34.73.43-.31.12-3.57.29-3.79,1.79-2.32,10.24-3.58,5.8,1.39-1.18,1.32-3.71,1.24-3.95,1.52-.99,1.2,1.17,5.4,1.88,5.85,1.49.96,2.42-2.94,5.49-1.95l.49,2.97c1.63,1.38-.21,3.54-2,4-.32,1.96-.8,3.99-1.44,6.08,2.03.35,3.42,4.4,2.44,5.92,1.21.46,1.36,1.56,0,2l-10,3c-2.71-2.26-6.11-3.99-9-6-.21-.15-1.3.34-1.82-.18-.47-.47-.02-1.63-.18-1.82-.45-.56-2.14-.99-1.99-1.48.61-2.03,3.5-4.47,2-8.53-3.47-.45-8.05,1.77-8.98-2.52-.64-2.95,3.47-.66,5.15-.98.93-.18,1.38-1.28,1.83-1.5.05-1.28.83-1.52,2-1,1.42.12,2.75-.21,4-1Z"/>
  <path class="cls-14" d="M330.81,345.65c-6.54-3.63-13.11-7.34-19-12,.43.22,1.77.02,2.89.57,5.02,2.46,14.12,6.38,16.11,11.43Z"/>
  <path class="cls-63" d="M423.79,360.65c2.34-3.36,6.32-5.31,11.97-5.83l1.34-2.37c.7-5.6,2.98-10.67,7.31-3.77-.33,5.48-.87,10.81-1.62,15.97.51.8.56,1.58.05,2.34-4.45-2.05-7.8-1.83-10.05.66.34,2.4-1.25,4.76-4.77,7.05l-2.23,3.95c-.32.6-.65.6-1,0-.16.79-.49,1.13-1,1-3.98-.53-8.16.09-12,0-2.63-.06-9.27.09-11.34-.31-1.54-.3-2.49-1.83-3.65-2.69,1.44-1.61,4.42-1.47,8.93.41,4.57,1.62,7.59.82,9.06-2.41,2.2-6.11,5.2-10.78,9-14Z"/>
  <path class="cls-36" d="M426.79,386.65c1.84-.59,2.99.4,3.44,2.97l5.56,4.03c4.77,1.6,9.48,1.72,12,7,.06,2.97-13.95.81-15.13.24-.34-.17-3.84-5.52-3.87-6.24-1.63-1.72-4.79-6.09-2-8Z"/>
  <path class="cls-237" d="M428.79,394.65c1.98,2.08,5.21,1.13,4,6.01,5.71-2.08,9.86.04,14.99,0,3.15-.03,4.06-.23,7-1,.56,2.81-7.96,4.92-10.17,4.8-3.81-.19-19.07-3.52-15.82-9.8Z"/>
  <path class="cls-3" d="M424.79,379.65v3c-.15.02-.5.9-.98,1.01.13-1.25-.27-2.89-.02-4.01.17-.76.55-.71,1-1,.87.28.86.62,0,1Z"/>
  <path class="cls-56" d="M390.8,366.65l2.65.15c4.96,5.83,14.41,10.12,21.35,6.85.4.31.39.65,0,1,.34,7.47-12.97,1.45-18,2-2.32-1.71-4.96-4.17-7.03-6.47-1.6-1.78-1.55-3.35-3.97-5.53-.33-.29-.81-.92-1-1,.62-.09.72-.6,1-1-1.86-2.24-.81-3.89,2-3,1.01,2.52,2.01,4.85,3,7Z"/>
  <path class="cls-124" d="M364.8,353.65l2.09-.81c3.39,2.77,7.99,5.48,12.5,4.41,2.91-1.74,8.78-4.97,8.41.4.36.75.66,1.41,0,2-.74.95-1.31,2.01-2,3-4.04-2.05-8.85,1.28-13.46,1.05-2.6-.13-4.35-1.45-6.54-2.05-2.83-2.96-3.83-5.63-3-8-.43-1.62.24-1.62,2,0Z"/>
  <path class="cls-183" d="M362.8,353.65c.12.18-.19,1.02.27,1.7,1.03,1.51,4.13,1.6,2.73,6.3-.9-.25-3.73.3-4,0,.59-2.72-.45-4.68-.99-7.01-.38-1.63.03-1.9,0-2,.73-2.28,2.46-1.1,2,1Z"/>
  <path class="cls-118" d="M366.8,364.64c-1.3.41-5.03-1.5-3.99-1.98,1.78-.27,3.51.06,3.99,1.98Z"/>
  <path class="cls-69" d="M548.77,402.65c2.23,1.49,1.18,3.12-3.14,4.9.36,3.28.41,6.31.14,9.1.48,2.39-.21,4.16-2.61,3.34-6.16,4.57-12.63,8.12-19.39,10.66-.42,1.63-.98,2.58-2,1,.44-7.41-5.26-8.96-11.25-5.95-1.1.55-.65,1.9-.74,1.95-1.32.75-5.32,1.23-7,3-.37-.31-.59-1.49-1-2,5.03-5.09,11.64-8.91,18.2-11.96,8-5.47,16.27-9.81,24.79-13.04-.17-1.72,1.93-2.47,3-1,.31-.02.7-.05,1,0Z"/>
  <path class="cls-120" d="M482.78,190.65c.11.8,1.96,1.55.53,4.1-.5.89-4.2.46-4.54.91-.41.56,2.15,7.35,1.99,8.99-2.98-1.53-5.9.31-5-3.99l-3.99,1.99c1.67-4.93,4.78-7.96,9-11-.57-1.57.88-2.27,2-1Z"/>
  <path class="cls-96" d="M491.78,262.65l8.91,2.96,3.08-3.96c.22,1.03-.45,3.25.12,3.87.28.31,5.93,1.88,7.88,3.13,7.76,4.36,12.43,11.69,14,22,1.74,8.26-12.31,10.32-13,1-2.09.48-3.78-1.43-5.09-5.73-4.33-2.52-5.97-4.94-4.9-7.27-3.2-2.9-11.92-1.9-15,0-1.56,2.9-4.54.95-3-2,1.96-3.45,3.96-6.78,6-10-2.18-1.81-1.59-3.34,1-4Z"/>
  <path class="cls-234" d="M527.77,290.65c2.33.55,7.06,4.67,10,6,.72,1.55,1.96,2.69,3,4,.86.34.87.67,0,1,1.73,2.62-5.41,8.51-8,7-2.02.56-3.69-.44-5-3-3.5-1.11-6.84-2.11-10-3-1.42-.64,3.04-3.24,2.99-3-.3,1.46-7.56,3.65-8.99,2-1.77-.07-2.77-2.07-3-6-1.62.61-2.04.45-1-1-.91-3.07,2.78-5.51,5-3,.6.28,2.77-.27,3,0,1.21,1.36-2.86,4.38,3.49,4s3.76-4.28,6.51-5c-.2-2.11.72-1.31,2,0Z"/>
  <path class="cls-190" d="M501.78,238.65v1c-.49.14-3.58,2.52-4,3-3.8-2.32-1.34-.88,0-2.99l-1.99-2c2.01-.21,4.07,1.18,5.99,1Z"/>
  <path class="cls-97" d="M486.78,238.65c-.06.72,1.23,5.43.77,6.76-.13.37-4.67,3.83-5.77,3.25v1.99c-.75,1.77-4.47,0-6.01-1-4.05,1.37-8.05,2.37-12,3-4.65-2.08,3.18-9.12,6.68-9.82,18.27,1.41-2.29-6.34-5.46.76l-6.35,1.85c-3,2.94-11.48,10.92-10.87,3.21.96-1.42,2.29-2.42,4-3-1.38-3.28,7.06-7.17,10.35-7.98,1.21-.3,2.43-.48,3.65-.02,3.2-.69,6.18-1.46,9.54-1.04l11.46,2.04Z"/>
  <path class="cls-38" d="M573.77,328.65c3.59-2.3-.23-3.88-.06-6.38.05-.72,4.66-3.93,6.02-2.61.34.33-.68,6.69,3.03,3.99,3.06-.75,4.35,1.88,2,4l1.43.28c.81,5.17,1.33,10.41,1.57,15.72.14,3.17-.52,6.46-1.99,9.86,7.93,2.37,8.38,5.32,1.99,10.14,0,.33-.04.68,0,1-2.41,1.48-5.67,2.63-8,4-1.78-3.71.85-3.4,2.23-4.04,3.59-1.67-1.44-1.87-1.92-2.22-1.4-1.01-.37-3.59-4.3-1.74-.37-1.92,1.46-2.93,1.73-4.65.19-1.22-.76-2.51-.74-3.35.02-.67-.01-1.33,0-2v-1c3.12-3.55,1.74-13.55-1-16-2.87.46-4.38-3.35-2-5Z"/>
  <path class="cls-242" d="M540.77,301.65c1.68,1.93,4.45,3.26,5.97,5.52l4.02,6.48c-4.93.93-16.93,11.45-22,7-.92-2.62.12-6.07,2-8-2.14-.92-.21-4.84,2-4,.32-.43,7.53-6.74,8-7Z"/>
  <path class="cls-11" d="M588.76,346.65c1.41-1.2,1.9-.66,1,1,2.48,1.35,5.59.66,6.56,1.98.33.45-1.27,7.26-.56,9.02-2.15,1.33-4.47,5.09-8,5,0-2.74-.96-3.51,1.46-4.05,5.19-1.14-3.57-4.18-5.49-4.49-.21-4.67,2.23-7.51,4.03-11.46.55.53.88,1.53,1,3Z"/>
  <path class="cls-52" d="M586.76,327.65c3.33.01,2.23,3.04,3,6-.05,2.04-.38,3.7-1,5-.05,2.66.03,5.34,0,8-1.03-1.67-.64-1.57-1-3-1.12-4.44-.86-2.47-1.99-4.7-2.08-4.11.18-6.79-1.01-11.3.67,0,1.33,0,2,0Z"/>
  <path class="cls-122" d="M590.76,337.65l-2,1c.03-1.6-.6-4.16,1-5,.35,1.34-.02,2.49,1,4Z"/>
  <path class="cls-81" d="M425.79,205.65c1.88.87.05,4.48-1,6-.45,7.35,3.57,5.64,9.3,9.2,2.76,1.71,3.54,2.57,5.7,4.8,2.69,4.57,5.02,9.24,7,14,1.03.9,1.4,3.51,0,4,.34,4.74-2.68,5.28-5.2,1.54l-.9,5.34c-4.28,2.69-8.18,6.06-10.69,11.02l-2.21.1c-1.19,3.19-7.14,2.4-6.92-2.17-2.87,2.15-5,5.14-6.54,8.37l-2.54.8c-1.41,1.33-1.92.77-1-1-1.58-1.11,1.2-6.67,3-7-1.65-2.79,3.31-6.2,6-6,.32-1.38,1.6-2.28,3-2-.32-1.56,1.49-2.52,3-2,2.1-2.25,4.96-3.85,8.59-4.78-.67-.53-.53-1.6.41-3.22l-1.11-.17c-2.94-7.86-8.7-10.08-15.88-11.83l-2.66-.45c-9.11,6.26-12.55,3.75-11.34-6.55-2.15,1.98-3.02.29-2-2l.6-.77c1.5.04,2.9.75,4.4.77,4.36.06,8.49-1.15,12.83-1.16.08-3.01,4.81-12.78,4.81-14.13,0-2.09-1.63-3.18,1.36-.71Z"/>
  <path class="cls-127" d="M328.81,330.65c1.49-.36,3.42.17,3,2,2.61-.3,5.46-.56,8,0,.33-.03.67.04,1,0,1.26,1.47.7,2.03-1,1-.65.36-1.33.67-2,1-1.59-.58-9.38-.04-9.84-.22-.31-.12-2.92-3.5-4.82-4.63-1.63-.97-7.33-2.71-7.34-4.62,0-.83,1-1.4,1-1.52,3.37,3.52,7.7,5.02,12,7Z"/>
  <path class="cls-45" d="M411.79,268.65c1.27,1.96,1.25,4.67-.07,8.13-.31,3.84-.62,7.46-.93,10.87l2.13.15c.93,6.66,7.89,9.81,6.86,1.14l2-1.29c.63.2.63.86,0,2,3.52.07,2.88,6.58,2,9,.85,3.13,2.04,11.07-2.36,9.48l-3.64-.48c-1.22,3.92-11.59,3.14-12-1-1.44.71-2.72.7-2-1-2.71.62-2.97-.05-1-2-.71-1.04-1.71-2.37-3-4,5.55-.18-2.94-2.47-2.98-3.5-.14-3.59,7.8,1.28,6.98-2.5,2.31.63,3.13-.06,4,0,.35-5.68.22-11.8-.41-18.36-.12-2.52.35-4.74,1.41-6.64.03-1.59,1.04-2.53,2-1l1,1Z"/>
  <path class="cls-110" d="M381.8,329.65c3.38,1.95-.41,8.4-4,6-.26.86-.59.84-1,0-2.52.52-6.66.03-8-2,.44-.28-1.52-2.93,3.99-1,.28-3.74-.6-7.39-.99-11,3.8,1.92,7.72,4.27,10,8Z"/>
  <path class="cls-18" d="M399.8,299.65c5.5,2,2.93,3.11,3,4l-2.35.87c-6.33-3.44-14.13-3.26-20.64-.87.87.28.86.62,0,1-.26.86-.6.85-1,0-.45-.18-1.39.12-2,0,.06-.14-1.72-.89-.05-2.47,5.16-4.88,16.71-4.84,23.05-2.53Z"/>
  <path class="cls-214" d="M343.81,332.65c.17,2.42-1.88,2.78-3.51,3.99l-.49-2.99c.37-.21.65-.8,1-1,.95-.13,2.08.16,3,0Z"/>
  <path class="cls-185" d="M403.79,223.65c.07.02.52-.9.97-1.02,1.82,5.73-1.51,10.8,6.32,8.98.38-.09,4.62-5.36,6.7-.96-.38.91-1.38,1.24-3,1-4.2,1.47-7.25,4.82-11,7-2.08,2.26-3.57-2.06-5-2-.49-5.07,3.16-8.7,5-13Z"/>
  <path class="cls-102" d="M610.76,380.65c.32,1.85-3.33,3.16-5,3-1.65,1.05-2.74.87-4,3-1.53,2.59-.83,3.34-1,6-4.84-6.07,4.64-14.89,10-12Z"/>
  <path class="cls-217" d="M553.77,467.65c4.09-.46,4.34,7.24,2.26,9.89.37,2.36,1.45,4.17,2.74,6.11,1.75,31.97,1.62,64.02,0,96-.15-1.74-2.02-5.18-1.01-7.99h-1.99s0,14.49,0,14.49c0,1.18-3.51,1.26-3.84,1.68-.78.99-2.03,7.08-2.16,8.82l-1.11-.06c-.1-37.02-.22-74.4-.38-112.13.07-2.14.59-15.79,1.28-16.92,1.14-1.86,3.34-2.02,4.21.11Z"/>
  <path class="cls-103" d="M547.77,417.65c-1.94-2.34.52-3.36,2.57-1.01.46,8.23,1.08,16.48,2.75,24.59,4.6.34,6.11,3.51,4.54,9.5l-1.85,8.21c2.35,2.6,2.1,8.99-2.02,8.72-.15.18-2.6.14-2.96,1.59-.33,1.34.98,2.8.98,3.84,0,.66-1.85.07-2.11,2-3.25,24,.45,62.26.14,88.12-.07,5.99.15,11.93-.01,18-.13,4.68-2.8,10.85-.04,15.46-.28,3.63.04,17.77-3.62,18.91-2.51.78-2.23-.91-2.38-.91.19-.63.95-1.47,1-2,.56-2.56,1.17-2.45,2,0,.76-57.88,1.09-116.88,1-177-.55-.08-.97-.17-.99-.3-.28-2.77-1.16-16.19-.35-17.03.32-.34.81-.52,1.33-.66Z"/>
  <path class="cls-46" d="M560.77,476.65c.52,38.29,0,76.7,0,115l-1.99,3.99c-.34-5.21.44-10.86-.01-15.99.02-31.98-.02-64.02,0-96-2.69-3.55-2.92-18.91-1.41-23.19l2.41-1.81c.81,5.9,1.14,11.9,1,18Z"/>
  <path class="cls-195" d="M592.76,618.65c-.28.87-.62.86-1,0-.87-.28-.86-.62,0-1,.08-.33-.12-.77,0-1,.99.27,1.02,1.12,1,2Z"/>
  <path class="cls-39" d="M665.75,579.65c-.32.03-.68.02-1,0,.31-.35.67-.67,1-1v1Z"/>
  <path class="cls-77" d="M548.77,402.65c4.47.75,5.26,8,10.02,9.7.99,10.63-1.47,21.95.98,32.3.62,4.65.73,9.38,0,14-1.84,7.77-.99,16.9-1,25-3.22,1.51-4.57-4.86-4.9-6.72s2.01-.64,1.99-2.71c-.02-2.18-1.3-4.56-2.09-6.57.16-.2,1.78-4.45,1.82-4.7.17-1.26-1.62-2.25-1.74-3.76-.16-2.08,3.86-13.8,1.93-15.55-.38-.35-3.45.45-3.97-.03-1.21-1.12-4.01-23.72-3.05-26.96-.74-.24-.88,1.01-.99,1-1.63,2.27-2.29,1.75-2-1-2.96-1.69-2.24-10.43-1.83-10.85.8-.82,4.3-.76,4.83-3.15Z"/>
  <path class="cls-121" d="M606.76,368.65c2.86,1.49,1.88,1.2.5,3-4.53,5.91-7.16,2.69-7.49,2.99-1.37,1.24.99,8.86-10,4.01,5.57-3.27,11.69-6.36,17-10Z"/>
  <path class="cls-23" d="M560.77,476.65c-.07-5.5-.91-12.06-1-18-.07-4.64-.07-9.36,0-14,.07-4.15-.07-8.33,0-12.5l.99-.5c-.51,14.95.38,30.04,0,45Z"/>
  <path class="cls-203" d="M509.78,459.65c1.2.27,4.82-.68,5.02.58.63,4.04-.2,9.99-.02,14.42l-4.8-8.71c-.63-2.03.03-4.26-.2-6.29Z"/>
  <path class="cls-25" d="M509.78,349.65c2.45-.75,7.35,3.53,6,6,5.7,4.76,8.72,13.62,7,21-.18.86.12,2.05,0,3-.49-.11-3.86-2.18-4.01-2.71-1.45-5.01,2.26-5.44,2.06-6.74-.12-.74-5.86-11.95-6.5-12.59-1.39-1.38-3.57-2.13-5.54-1.97-.2.96.32,3.69,0,4.01-.22.21-5.69,1-6,1-1.27-.02-2.4-.95-3-1-5.78-.01-11.45,1.32-17,4-4.92-.18-4.24-2.49-1.05-5.24-.64-3.47.05-5.72,2.05-6.76.56-1.45,1.93-2.23,4.12-2.36.55-2.04,1.51-3.25,2.88-3.64.28-.87.62-.86,1,0,1.34.4,2.12.18,2.44-1.51,2.45,1.38,5.03,1.96,7.76,1.72l7.8,3.78Z"/>
  <path class="cls-126" d="M492.78,305.65c2.36-.82,4.58.3,4,3l1.01,1.45c-5.75,3.98-8.08,9.16-7,15.55,1.43.58,1.16,2.11,0,3-.28.87-.62.86-1,0-.54.64-.87,1.98-1,4,.71.21.67.55,0,1l-.84,3.63c.91,7.06-.82,10.52-5.16,10.37-1.54.68-2.26-1.58-2-3-.82-1.12-1.07-1.2-2-2-3.1-1.49-6.2-2.96-9.61-3.58l-.39-1.42.33-1.4c4.56-.81,8.59-1.62,7.67-7.6-.87-.25-.85-.58,0-1-2.19-1-1.86-2,1-3-1.19-3.07-.52-4.4,2-4,1.52-4.09,3.51-7.09,6-9-.18-2.63,4.36-7.52,7-6Z"/>
  <path class="cls-216" d="M510.78,371.65c1.68-1.77,2.1-7.77-.99-7.02-.24-.16,2.7-3.77,3.97-2.96,3.72,4.13,1.58,5.21,1.99,9.42.18,1.88.97,3.64,1.03,5.55l-3.5,9.01c-.38-3.45-.69-5.81-1.5-9.01-.24-.96.32-2.3-1-3-1.02-.29-1.01-1.51,0-2Z"/>
  <path class="cls-151" d="M442.79,364.65c.1-9.87,4.72-3.44,5.39,3.05.03.33-2.82-6.05.61-5.05-1.44-1.33-.8-1.93,1-1,.77,1.65,2.1,3.38,3,5-.25.21,1.92,2.35-3,5h-3c-.96-.42-2.02-1.4-3-2-1.47.22-3.28-.22-5.44-1.31-2.48.7-4.34.47-5.56-.69.37-.5-.3-2.08,1.61-2.77,2.54-.92,5.87,2.08,8.39-.23Z"/>
  <path class="cls-21" d="M483.78,351.65c.05.37-.05,6.93-.15,7.28-.42,1.53-2.38,2.28-2.85,3.22-.06.11,1.87,1.5,2,1.5-2.45.14-4.8,1.89-6.53-2.04-.96-2.18.43-4.13,1.53-5.96-.2-2.03,3.42-6.04,5-5,1.42-1.32,1.99-.75,1,1Z"/>
  <path class="cls-215" d="M449.79,371.65c-.26.14-.26.87-1.28.83-.6-.02-1.17-.59-1.72-.83.14-1.5,2.86-1.5,3,0Z"/>
  <path class="cls-179" d="M451.79,329.65c5.84-4.16,12.36-3.05,17.74,1.74,2.53,1.18,4.67.9,5.08-2.1l2.17-.64c-.02.1.94.76.85,1.47-.78,6.72-2.21,6.5-8.85,7.53-9.36-1.24-13.08,6.04-19,10-3.35,5.11-3.68,10.11-1,15-1.21,2.32-.13,3.7,0,6-3.13-.36-2.69-6.66-3-7-1.68-1.91-2.2,2.27-2.99,3l-2.34-.94c1.18.02,1.36-.37,1.43-1.48.22-3.79.36-7.79.49-11.58.04-1.18.64-2.29-1.09-2.98-2.07-.82-1.67-.4-2.17.97-.6,1.66-1.05,6.66-2.28,7.56-1.09.79-7.33,1.17-9.79,2.17-.18.07-3.1,2.16-3.24,2.29-1.24.25-1.24-.41,0-2-1.16-1.32.62-2.71,2-2-1.16-3.17,7.62-5.69,10-4-.23-5.93.79-11.74,3.05-17.43l1.95-1.57c.43-9.23,5.05-3.89,4.12,2.78,1.25-5.62,3.54-7.88,6.88-6.78Z"/>
  <path class="cls-186" d="M423.79,360.65c-4.99,4.51-4.27,9.96-9,14v-1c-2.65-3.73,1.95-9.75,5-11-.01-2.17,1.96-4.52,4-4v2Z"/>
  <path class="cls-27" d="M487.78,278.65c-.54-2.6,1.11-2.1,2.87-2.35,1.61-.23,11.58.09,12.07.45.4.29-.12,1.6.06,1.9-4.98-2.48-10.95.51-15,0Z"/>
  <path class="cls-239" d="M484.78,276.65c-1.09-4.67,3.66-6.98,6-10-.02.1,1.18.67.56,1.91-.79,1.59-5.19,6.14-6.56,8.09Z"/>
  <path class="cls-223" d="M511.78,301.65l.09,1.02c-3.3.64-5.33,1.97-6.09,3.98-.34.18-.63.8-1,1-1.62.88-3.2,2.49-5,3-2.57,2.02-4.02,1.29-3-2-.88-.62-2.83-.99-4-3,2.59-5.06,10.38-8.34,16-10,.56-.05,1.32-1,1.5-.97,2.27.37.21,5.23,1.5,6.97Z"/>
  <path class="cls-209" d="M507.78,294.65c.37.18.88,1.01,1,1-5.47,3.1-10.96,6.2-16,10-2.51,1.89-5.03,3.5-7,6-1.43,1.07-1.76.4-1-2-.2-1.62,1.13-3.29,4-5,3.68-3.4,7.68-5.73,12-7,2.34-1.3,4.91-1.96,7-3Z"/>
  <path class="cls-24" d="M511.78,301.65c2.64-.72,6.28-.25,8.99-2l-2.99,3c-5.17.19-7.67,1.74-12,4-6.22-.9,2.94-4.16,6-5Z"/>
  <path class="cls-77" d="M424.79,300.65c1.82,1.66,7.23,2.22,9.99,3.5,1.88.87,4.16,2.37,6,3.5,1.63,1,2.29,2,2,3,2.31,2.52,1.23,3.53-1.05,5.54.85,4.54-1.86,6.35-5.95,5.46-3.4-2.03-7.06-3.64-10.96-4.83l-1.04-2.17c-3.23-1.38-4.72-3.73-6-7,1.1-.16,3.01.42,3.84-.14,1.7-1.16.23-7.36,2.16-8.86.3,1.03-.01,1.08,1,2Z"/>
  <path class="cls-67" d="M447.79,248.65c1.62,4.27,7.52-3.35,9.06-4.43,3.18-2.23,6-1.59,6.97-2.15.83-.48.68-2.42,2.91-3.03.67-.18,10.62-.15,11.1.13,1.76,1.04,2.47,4.11.49,5.58-2.71,2-11.28-3.08-10.58,3.91-2.48-2.19-3.65,2.39-3.96,3.99-.12.6-.78,1.34-1,2-3.17,1.44-1.71,1.78-2,2-1.13,2.81-2.13,3.48-3,2-2.36-.26-.73,6.8-.23,8.43-1.18,3.71-5.62,3.21-7.77.57-1.46-1.52-6.35-6.14-8-6-4.22-.05-8.37.88-12.16,2.72l-.84-.72c-2.97.81-3.82-.53-1-2,1.3-3.58,5.38-8.09,8.38-10.67.6-.52,2.16-.14,2.44-.45.63-.7-.31-5.83,2.15-7.4,3.06-1.95,2.85,6.37,6.03.53,1.58.3,3.26,4.52,1,5Z"/>
  <path class="cls-218" d="M447.79,239.65c.68,2.03.97,4.84,2.02,7l1.98-1c-.18.22.48,3.77-4,3-.21-.56-.69-3.66-1-5-.27-1.13.29-2.94,0-4,.28-.87.62-.86,1,0Z"/>
  <path class="cls-168" d="M575.76,333.65c.65-2.12,2.17.83,2.45,1.49,2.06,4.81,1.64,6.24.68,11.2-.36,1.85.87,3.89-2.13,3.31-.02-.67,0-1.33,0-2,.77-2.19.77-4.52,0-7-.37-2.12-.35-4.94-1-7Z"/>
  <path class="cls-70" d="M576.76,347.65c-.02-2,.02-4,0-6v-1c.29,1.68,2.7,4.98,0,7Z"/>
  <path class="cls-67" d="M443.79,230.65c2.29,3.62,2.68,5.06,4,9h-1c-.37-1.32-6.44-10.15-7.44-11.02-1.96-1.7-1.9-1.79.44-2.98,1.01,1.04,3.24,3.8,4,5Z"/>
  <path class="cls-219" d="M411.79,268.65c3.09-7.44,7.44-11.39,14.5-14.99,2.82,3.36-4.09,3.69-3.46,6.38.82,3.48,4.71,1.44,4.95,1.61.14.1-.26,2.14,1,2,.48,1.49-.91,2.29-2,1-3.59,1.77-6.52,6.7-7,11,3.04,1.44,1.5,4.72,0,7l-.35,2.41c-3.17.69-6.05,1.55-8.65,2.59-2.3-5.62-1.26-13.57,1-19Z"/>
  <path class="cls-112" d="M417.79,307.65l3.99,1v4.01c1.95-1.09,3.82-.29,2.01,1.99-.41,1.98-1.68,2.86-2.68,1.09-2.01,1.64-3.45,1.94-4.32.91-6.75,2.26-9.28.88-11-6-2.45-.3-2.25-2.29,0-3-.87-.28-.86-.62,0-1,3.44,1.55,7.79,1.6,12,1Z"/>
  <path class="cls-53" d="M419.79,282.65c1.61-.05,2.67,3.51,2,5,.06.71-.21,6.81-.24,8.78-.08,6.09-2.23,0-2.71-.3-1.57-.95-3.8-.03-4.88-.65-.36-.21-3-6.9-3.17-7.83-.04-.2,1.19-2.57,0-3.99,3.14.87,6.16.61,9-1.01Z"/>
  <path class="cls-22" d="M591.76,620.65c-.26.12-.69-.09-1,0v-1l1,1Z"/>
  <path class="cls-172" d="M569.77,645.65c.07.99-.1,2.02,0,3-1.99.46-2.65-.45-2.02-2.51.29-.97,1.7-.25,2.02-.49Z"/>
  <path class="cls-87" d="M583.76,655.65c.45.22,1.75-.24,2.01,0,.61.59-1.02,1.88-1.01,1.99h-1c-.36-.44-.77-1.91-1-2h1Z"/>
  <path class="cls-61" d="M587.76,665.64h-1.99c-.32-1.47.44-2.08,1.5-2.99l.49,2.99Z"/>
  <path class="cls-28" d="M556.77,644.65c.04-1.98.84-3.3,3-1.99.13.79-.91,1.4-1,1.99-.63-.1-1.45.14-2,0Z"/>
  <path class="cls-180" d="M490.78,345.65c.25,4.91-2.02,6.67-7,6-.04-.31-.94-.73-1-1-.19-.87.25-2.33,0-3-.82-3.14,2.41-1.54,2.88-2.07.59-.65-.91-9.7,3.12-11.93,1.75,3.18,2.86,8.5,2,12Z"/>
  <path class="cls-113" d="M490.78,335.65c1.52,2.34,3.04,7.98,1,10h-1c-.18-3.61-1.74-7.94-2-12-.02-.33,0-.67,0-1,.28-.87.62-.86,1,0,.62.75.95,1.75,1,3Z"/>
  <path class="cls-176" d="M476.78,327.65c-.05.32.05.68,0,1-.25,1.38-.76,3.79-1.98,4.51-6,3.54-10.36-4.86-15.69-5.28-.38-.03-6.98,1.61-7.32,1.77-2.23-1.81-1.78-2.56,1-2,1.99-3.47,22.93-2.68,23.54-1.61.27.47.38,1.03.45,1.61Z"/>
  <path class="cls-84" d="M496.78,308.65c.63.44,1.81,2.33,3,2v1c-5.26,1.7-8.25,8.94-9,14-2.82-1.02-1.39-8.38-.75-10.26,1.38-4.06,6.36-2.66,6.75-6.74Z"/>
  <path class="cls-221" d="M485.78,311.65c-2.26,2.87-4.46,6.33-5.01,10l-.99-1c1.81-5.05,2.07-6.39,5-11l1,2Z"/>
  <path class="cls-84" d="M490.78,335.65c-.09-.51-.82-1.29-1-3-.79-1.19-.72-2.78,0-4h1c-.12,2.32.08,4.68,0,7Z"/>
  <path class="cls-180" d="M489.78,328.65c.09,1.32-.13,2.69,0,4h-1c-.02-1.66,0-3.34.01-5l.99,1Z"/>
  <path class="cls-94" d="M449.79,347.65c-.15.92.22,2.21,0,3-.14,2.54-.47,5.21-1,8,.17.69.72,2.41,1,3-.24.38-.83.68-1,1-2.99-3.21-5.21-5.91-2.99-10.3.25-.49,1.4-.39,1.94-1.49,1.29-2.61-1.17-1.06,2.04-3.21Z"/>
  <path class="cls-17" d="M446.79,314.65c1.54,2.2,5.36,8.78,6,11,.11.38.08,1.54,0,2-.06.33-1.09,1.23-1,2-.21.1-3.38,2.8-3.5,3-1.74,2.96,1.75,5.72-5.49,5.99l-.02-8.99-1.99,3.99c-2.23-.21-2.56-1.88-1-5-.77-2.09-1.8-3.28-3-5-1.12-.11-1.68-1.04-1-2,.37-2.16,3.7-1.88,3.86-2.09.58-.72-.18-2.92.17-4.19.1-.38,3.35-2.6,2.97-4.72,1.44,1.48,2.5,1.85,4,4Z"/>
  <path class="cls-91" d="M457.79,258.65c1.27,2.45,1.93,5.45,2,9,.34.33.64.7,1,1-.25.49.39,2.54-.05,2.91-.29.24-6.81.95-7.49.95-.85,0-3.24-4.64-3.46-4.87h5.99s.01-10,.01-10c.85-.3,1.71,1,1.99,1Z"/>
  <path class="cls-93" d="M426.79,264.65c-3.23,3.3-4.98,6.92-7,11,0-1.36-.3-7.74,0-8.01.39-.35,3.26.52,3.94-.11.33-.31-.17-1.98.24-2.62.97-1.48,2.69-.22,2.82-.27Z"/>
  <path class="cls-178" d="M405.79,310.65c3.55.34,2.68,3.57,4.6,4.97,2.01,1.46,4.85-1.13,6.4,1.03-.98.46-2.02,1.38-3,2,.96,2.63-4.56,7.34-7,6-.19.19-1.85-.3-2,1-1.93.09-5.59-1.76-7-3-1.34-2.18-.6-4.58.78-6.58.91-1.31,5.8-6.33,7.22-5.42Z"/>
  <path class="cls-233" d="M628.76,608.65v-1h1c-.17.44-.54.9-1,1Z"/>
</svg>