<?xml version="1.0" encoding="UTF-8"?>
<svg id="Layer_1" data-name="Layer 1" xmlns="http://www.w3.org/2000/svg" viewBox="0 0 1165.28 716.53">
  <defs>
    <style>
      .cls-1 {
        fill: #161c1f;
      }

      .cls-2 {
        fill: #0f161a;
      }

      .cls-3 {
        fill: #1a2125;
      }

      .cls-4 {
        fill: #171b1d;
      }

      .cls-5 {
        fill: #0d1313;
      }

      .cls-6 {
        fill: #080d10;
      }

      .cls-7 {
        fill: #0f1314;
      }

      .cls-8 {
        fill: #071010;
      }

      .cls-9 {
        fill: #11181a;
      }

      .cls-10 {
        fill: #030a0a;
      }

      .cls-11 {
        fill: #181e20;
      }

      .cls-12 {
        fill: #11181b;
      }

      .cls-13 {
        fill: #11171c;
      }

      .cls-14 {
        fill: #161d21;
      }

      .cls-15 {
        fill: #14181d;
      }

      .cls-16 {
        fill: #10180e;
      }

      .cls-17 {
        fill: #171e20;
      }

      .cls-18 {
        fill: #0c1518;
      }

      .cls-19 {
        fill: #1e2a2f;
      }

      .cls-20 {
        fill: #111917;
      }

      .cls-21 {
        fill: #151b1e;
      }

      .cls-22 {
        fill: #262f32;
      }

      .cls-23 {
        fill: #0a1111;
      }

      .cls-24 {
        fill: #0c1923;
      }

      .cls-25 {
        fill: #171e22;
      }

      .cls-26 {
        fill: #0f1516;
      }

      .cls-27 {
        fill: #293131;
      }

      .cls-28 {
        fill: #1b2123;
      }

      .cls-29 {
        fill: #090e0d;
      }

      .cls-30 {
        fill: #13171a;
      }

      .cls-31 {
        fill: #141d1e;
      }

      .cls-32 {
        fill: #1a2124;
      }

      .cls-33 {
        fill: #0d1a1e;
      }

      .cls-34 {
        fill: #12191a;
      }

      .cls-35 {
        fill: #171d1f;
      }

      .cls-36 {
        fill: #1b2022;
      }

      .cls-37 {
        fill: #14191a;
      }

      .cls-38 {
        fill: #181e22;
      }

      .cls-39 {
        fill: #0a0f13;
      }

      .cls-40 {
        fill: #101719;
      }

      .cls-41 {
        fill: #060e10;
      }

      .cls-42 {
        fill: #101319;
      }

      .cls-43 {
        fill: #16191d;
      }

      .cls-44 {
        fill: #1c232a;
      }

      .cls-45 {
        fill: #192022;
      }

      .cls-46 {
        fill: #131a1b;
      }

      .cls-47 {
        fill: #020d0c;
      }

      .cls-48 {
        fill: #15191c;
      }

      .cls-49 {
        fill: #0d1316;
      }

      .cls-50 {
        fill: #14191b;
      }

      .cls-51 {
        fill: #0e1219;
      }

      .cls-52 {
        fill: #161d1e;
      }

      .cls-53 {
        fill: #080d0e;
      }

      .cls-54 {
        fill: #161c22;
      }

      .cls-55 {
        fill: #131719;
      }

      .cls-56 {
        fill: #10161b;
      }

      .cls-57 {
        fill: #050809;
      }

      .cls-58 {
        fill: #1b2023;
      }

      .cls-59 {
        fill: #0b1715;
      }

      .cls-60 {
        fill: #0c1817;
      }

      .cls-61 {
        fill: #040a0c;
      }

      .cls-62 {
        fill: #0c1517;
      }

      .cls-63 {
        fill: #101216;
      }

      .cls-64 {
        fill: #1c2225;
      }

      .cls-65 {
        fill: #141a1c;
      }

      .cls-66 {
        fill: #121c1c;
      }

      .cls-67 {
        fill: #080d0f;
      }

      .cls-68 {
        fill: #131a18;
      }

      .cls-69 {
        fill: #141a1d;
      }

      .cls-70 {
        fill: #151b20;
      }

      .cls-71 {
        fill: #181f21;
      }

      .cls-72 {
        fill: #050c11;
      }

      .cls-73 {
        fill: #13181a;
      }

      .cls-74 {
        fill: #14191e;
      }

      .cls-75 {
        fill: #181d1e;
      }

      .cls-76 {
        fill: #22282c;
      }

      .cls-77 {
        fill: #171f22;
      }

      .cls-78 {
        fill: #0d1112;
      }

      .cls-79 {
        fill: #080c0d;
      }

      .cls-80 {
        fill: #101415;
      }

      .cls-81 {
        fill: #0a1016;
      }

      .cls-82 {
        fill: #1a2020;
      }

      .cls-83 {
        fill: #1d2529;
      }

      .cls-84 {
        fill: #101618;
      }

      .cls-85 {
        fill: #0f1316;
      }

      .cls-86 {
        fill: #12161b;
      }

      .cls-87 {
        fill: #1d2224;
      }

      .cls-88 {
        fill: #1b262c;
      }

      .cls-89 {
        fill: #10171c;
      }

      .cls-90 {
        fill: #192124;
      }

      .cls-91 {
        fill: #070b0f;
      }

      .cls-92 {
        fill: #465153;
      }

      .cls-93 {
        fill: #0f171b;
      }

      .cls-94 {
        fill: #262d2f;
      }

      .cls-95 {
        fill: #111a1d;
      }

      .cls-96 {
        fill: #171e21;
      }

      .cls-97 {
        fill: #0c1113;
      }

      .cls-98 {
        fill: #12191b;
      }

      .cls-99 {
        fill: #151a1c;
      }

      .cls-100 {
        fill: #15181b;
      }

      .cls-101 {
        fill: #171f14;
      }

      .cls-102 {
        fill: #151c1f;
      }

      .cls-103 {
        fill: #101416;
      }

      .cls-104 {
        fill: #141b1d;
      }

      .cls-105 {
        fill: #050b0c;
      }

      .cls-106 {
        fill: #121d24;
      }

      .cls-107 {
        fill: #191f22;
      }

      .cls-108 {
        fill: #181a1c;
      }

      .cls-109 {
        fill: #111216;
      }

      .cls-110 {
        fill: #141d1f;
      }
    </style>
  </defs>
  <path class="cls-1" d="M253.64,430.74l2.28.54c.41,13.63,2.92,16.9,7.52,9.8,3.79-.55,7.63-.61,11.51-.19.29-3.33,3.24-8.33,5.68-4.15,1.81,4.22,2.32,10.59,2,15.49-.06-1.37.28-2.2,1-2.49l2.34,1.62c2.57,10.77,9.82,19.72,18.3,26.58l.37,2.8c3.61-.41,6.07,1.03,7.63,4.52l13.5,3.69c1.36.72,1.17,1.81-.13,2.79.68,1.19,7.28.57,10,0,.96-3.32,13.45-3.06,15,0,.79,2.09-10.81,1.93-10.25,1.87,11.72-1.26,22.96-1.77,34.96-.36l34.55.07c2.68.14,4.64,1.89,5.91,5.25,1.34,1.08,9.25,3.24,7.98,2.32-2.25-1.62-3.25-4.93-2.15-7.14,8.46-.76,18.3-.77,27,0l.64,1.46c-4.28,2.46-.25,5.56,3.14,7.34.29,3.25.36,6.51.2,9.79.2.49,6.04,7.33,7.78,5.31.74-5.48,6.33-5.4,8.94-.87,2.99.07,5.82,1.39,3.3,3.97-2.25.69-3.25,1.35-3,2-2.34,3.15-8.54,2.96-11,0-.95,1.28-2.63.72-4,0-10.17-1.1-21.82-1.24-32,0-7.27,2.43-13.93,2.43-20,0-5.15.55-10.33.72-15.56.53-1.45,2.56-4.09,1.97-5.44-.53h-6c-1.16-3.03,2.03-3.54,3-1l10.21-.59-2.21-.41c-5.48-.65-10.58-.72-15.46,1.06l-.54-1.06c-3.3-.79-3.04-12.62,0-14-1.65,3.28-14.06,3.13-16,0-1.41.08-2.34-.32-2.01-1.63-1.44,3.56-4.73,3.73-8.14,3.59.92,4.99.47,9.18-1.34,12.57-1.03.81-18.85,1.21-19.51-2.53.11,2.08-3.73,2.22-5,1l-3.37-.36c-2.41-1.34-3.28-1.21-2.63.36-4.74,4.05-11.76-1.03-15.54-4.36-.21-2.16-1.64-4.01-4.28-5.54l-.33-9.06-4.1-.19c-1.88,8.8-9.85,3.67-7.61-4.09-4.65.36-7.39-1.03-8.22-4.17-4.66-1.4-9.46-3.39-12.92-6.59-1.66.18-2.56-2.65-2-4-1.38-2.84-2.23-7.81-2.62-11.42-1.28-11.69-2.32-22.99-2.94-34.63-.1-1.85.39-3.49,1.56-4.95Z"/>
  <path class="cls-65" d="M323.64,518.74c6.46-.48,6.65,1.85,8.44,2.08,1.35.17,10.14-.76,10.51-1.13.64-.66-.49-12.43.05-12.96,1.3-1.28,10.56,3.57,8.01-7.99,5.92-1.81,3.46,8,3.99,8h16v14c2.98.8,1.09-1.99,3.45-2.12,3.18-.17,9.32,1.2,12.55,2.12-2.47.59-5.14.92-8,1-.96.24-2.3-.32-3,1h-5c-6.63-.85-13.38-.85-20,0-8.65.01-17.35-.02-26,0-.72-.16-1.05-.49-1-1-2.88-.42-2.73-2.23,0-3Z"/>
  <path class="cls-50" d="M259.64,485.74l6.16,1.1c.82,2.36,8.18,3.56,8.73,4.06.46.41-.47,2.33.75,2.88s6.96.65,7.31,1.01c1.52,1.57-3.14,10.12,4.05,7.96-1.24-6.28,3.17-3.52,8.01-4.01.53.53-.51,8.46-.05,10.34.35,1.44,3.41,1.01,3.92,1.81.6.92-.21,3.53.11,3.86.34.36,3.67-.37,4.02-.01.41.42-.8,3.06.58,4.12,1.69,1.29,3.84-.22,4.81-.09.73.09.54,1.95,1.18,2.02.81.09,2.41-1.1,3.43-1.04.72-2.44,1.01-2.38,2.34-.49l3.66.49c1.71-.3,2.71-.83,5-1v3c-5.39.52-11.67.88-17,0-10.38-.66-13.38-4.04-22-7-.8-.28-2.41-.91-3-1-1.61-.41-2.41-.77-1-2l-13.93-13.6c-4.75-3.8-7.11-7.93-7.07-12.4Z"/>
  <path class="cls-1" d="M370.64,522.74c-6.65,0-13.35,0-20,0,5.73-1.67,14.19-1.68,20,0Z"/>
  <path class="cls-1" d="M323.64,521.74c.47.07.89.52,1,1-.67,0-1.33,0-2,0-5.31.02-10.7-.19-16,0v-1c5.34.34,11.99-.73,17,0Z"/>
  <path class="cls-28" d="M506.64,262.75c51.99-.83,104.01-.8,156,0,1.66-.74,3.36-.74,5,0,3.59.88,7.41.85,11,0,13.33-.8,26.67-.79,40,0h7c2.92.86,6.08.86,9,0h20c44-.94,88-.72,132,0,.87.28.86.62,0,1l-4.14,2.05-18.04.64.43,2.46c1.54,9.39-1.08,13.31-7.88,11.77-.51,3.13-3.08,4.68-7.71,4.66-.48,8.53-5.85,6.15-11.19,2.95-7.92,2.31-11.22-1.57-9.9-11.65-9.75,1.85-14.99-.5-15.71-7.04-2.06.31-3.39-.06-4.67-1.82-.76-.29-7.04,1.56-7.37,1.78.63,2.62.02,4.35-1.81,5.21-.09.78-.33,1.94-.9,2-6.01.67-23.87.83-29.65,0l-1.45-2c-1.98.05-2.63-1.64-1.94-5.06-2.09.06-10.35-.09-10.42-2.37-.01-.52.14-1.05.35-1.57,4.01-.89,9.77-.82,14,0-.87-.28-.86-.62,0-1-4.33.56-8.83.72-13.5.5-1.14,2.32-3.64,2.15-7.5-.5,3.24.63,5.71,2.39,2.27,4.78-1.17.82-26.34.91-28.19-1.37-.52-.64.17-1.75.92-2.41,5.85-1.28,13.68-.69,20,0-5.91-1.41-14.07-1.09-20.57.54-21.56.4-43.3.5-64.87.43-1.42,0-2.85-.31-4.29-.65s-2.86-.81-4.27-1.33c-25.98,1.13-51.98,1.13-78,0-1.64-.89-3.33-.63-5,0l-2.84,1.33c-17.88-.06-35.41-.2-52.6-.42l.44,1.08c.17,3.06-7.83,4.93-9,2-2.8,3.4-12.1,3.33-14.94.54-2.54,3.3-4.18,1.86-6.47-.39-.23-.23-.72-.16-1.26.04-4.88,1.86-5.79,1.98-10.66-.04-3.14-.39-6.37,1.22-9.67,4.84,1.33,1.51.69,2.11-1,1-1.49,2.28-4.26,1.67-8.33-1.85-6.07.03-11.96-.68-17.67-2.15-1.46.78-2.53.1-3.19-2.04-3.19.44-8.36-1.29-6.31-4.96-.01.78-.23,1.55-.92,2-1.48.97-31.5.15-35.39,0-.34-.01-.65-.67-.95-1.5-8.92.27-17.5.1-25.74-.5-.69.68-.03,1.01,2,1,7.72-.82,16.69-.79,24.5,0,3.54,3.24-2.2,3.06-5.22,2.9.21,1.55-.09,2.63-1.78,3.1.05.47.06.93-.08,1.33-.69,2.04-38.02.97-42.75.67l-1.17-2c2.89.14,2.81,3.41,0,4l-1.14,2c-3.3.57-13.44.9-14.86-2,3.06.4,2.93,7.34,0,8,.79-3.3,12.62-3.04,14,0,3.61.85,2.78,2.6-2.48,5.25l-11.41.45c.08,2.55-1.59.91-1.31.44.57-.93,8.39-.36,6.31,3.49-7.05.03-12.76,2.15-17.11,6.36.89.19.85.52,0,1-.09,2.94-4.21,4.51-6,2-5.5,2.4-9.59,5.25-13.78,9.42l-2.22-.42c-3.92,5.29-7.17-6.1,0-6.23-1.08-1.16-1.75-2.42-2-3.77-1.91-.56-1.92-1.44,0-2,.54-1.85,2.48-2.58,5.83-2.19.48-.48,1.6-13.66-1.76-11.95-5.35-7.18-7.39-8.16-6.1-2.95-.15.52-.34.99-.69,1.24-3.54,2.61-18.16-10.72-3.78-10.31-3.06.43-3.96-2.21-3.56-4.93-.55,7.04-9.6,6.76-12.41,1.03l-8.73-.29c-2.66-.23-5.04-.51-4.81-3.66,3.84-.29,7.84-.62,12-1,12.3-.08,25.06-.88,37-1,70.3-1.2,140.69-.77,211,0Z"/>
  <path class="cls-95" d="M248.64,414.75c-.03-2.96.97-5.55,3.79-2.81l.24,11.88c1.71,2.86,2.04,5.17.97,6.93.05,14.75.65,29.76,3.23,44.28.35,1.97.69,6.38.77,6.72.5,1.53.49,1.79-1,1-1.04-4.65-2.19-9.29-3-14-1.36-.1-1.25-1.4,0-2,.04-1.77-.29-3.43-1-5-1.5-.77-1.7-2.47,0-3,.02-1.76-.31-3.43-1-5-2.23-1.09-3.21-6.56-1-8,.73-1.87.73-3.87,0-6,.02-1.76-.31-3.43-1-5-2.11-1.02-2.19-5.07-1-7,.76-2.58.97-5.43,0-8-1.59-.59-1.69-4.53,0-5Z"/>
  <path class="cls-84" d="M259.64,485.74c1.46,3.54,3.82,7.25,6.45,10,5.53,5.8,12.08,7.79,14.55,15.99-.28.87-.62.86-1,0-8.07-4.7-13.17-12.88-20-19-.89-3.58-2.11-6.01-3-10l1-1c.11.41,1.55,2.9,2,4Z"/>
  <path class="cls-11" d="M223.64,263.75c3.79.25,7.46.58,11,1,.87.28.86.62,0,1-3.8,1.14-7.11,1.61-9.94,1.39l-1.06-1.39c-.19,1.83-.79,2.66-1.02.93v69.86c1.74.29,1.73.69.02,1.2-.74,0,.15,1.36-2,0-.49-23.92-.82-47.92-1-72,.03-.66-.06-1.34,0-2,1.33-.07,2.67.06,4.01,0Z"/>
  <path class="cls-33" d="M258.64,263.75c-2.98,1.84-8.22.99-12,1-3.52,1.41-7.52,1.41-12,0-3.46-.02-8.36.84-11-1,11.47-.52,23.46.08,35,0Z"/>
  <path class="cls-45" d="M734.64,262.75c-1.86,1.68-7.14,1.68-9,0h9Z"/>
  <path class="cls-1" d="M602.64,374.75c5.61-7.08,6.86,4.65,5.86,9.44,3.08,1.87,5.86,4.16,8.33,6.88l-.23,29.6c1.27-.01,1.8.85,2.04,2.07,5.13,1.91,7.46,5.01,6.99,9.31-.78,8.26-.66,16.43.38,24.51,2.55,1.41,3.41,4.01,2.58,7.78,2.57.27,3.98,1.42,4.22,3.44-1.03,7.79-.94,11.13,6.96,13.72.88,3.89,4.17,5.72,9.87,5.47-.7-4.04.23-6.48,2.81-7.32-1.93-2.22-1.96-3.79,1.2-3.92,2.74-.2,5.48,1.14,8.23,4.02,7.61,4.54,15.2,8.2,22.77,10.98.87.28.86.62,0,1,.94,1.09-1.1,1-1,.99,8.99-.58,18.02-.93,27,.01,34.13,1.32,68.46,1.32,103,0-1.4-.34-2.74-.67-4-1-.87-.28-.86-.62,0-1,7.41-1.52,14.75-3.33,21.42-7.42l1.58.42c2.09-1.05,2.91-.42,4.4,1.07.33-4.77,8.81-6.37,7.23.07,2.47.14,3.72,1.72,4.44,4.01,5.02-1.01,8.33-.4,9.92,1.85l-2-1.15v-17.42l2-1.43c-3.41,5.84-8.95-8.45-2-7,4.48-.04,12.11,2.59,6,7l2.01,1.34-.18,15.69c6.6,9.45,1.65,15.75-8.65,19.36,1.91,1.25,2.74,3.96.44,3.6-1.48,1.35-3.88,3.79-2.62,5.01.11,2.11-3.92,3.33-6,3-.8.29-1.55.86-2,1-1.14,4.76-11.15,4.48-15,3-2.24.94-5.58.74-8,0-1.13,2.21-6.69,1.95-8,0h-48c-30.05-.4-60.71-.74-92-1-6.4-.43-10.29-3.83-13.53-9.43-6.52-.39-9.38-2.99-8.59-7.79-4.96-1.65-9.82-3.82-14.59-6.52-5.12,1.27-8.2.53-9.24-2.22.46-9.15.28-10.42-7.58-13.9-2.04,11.26-6.38,9.94-8.87.23l-1.6-.38c-1.54-1.54-2.94-6.07-2-8,.89-1.52.9-4.23.02-8.12-1.87-4.06-1.77-6.89.28-8.51-.34-9.42-.43-18.87-.28-28.37l-2.01-1.99c-1.26,1.93-2.74,1.93-4,0-1.99,8.4-6.87-10.17-6.6-11.26,1.07-2.49,4-3.36,8.8-2.64l-.16-13.18c-3.42-4.28-4.1-7.25-2.04-8.93-3.52-2-2.94-13.51,0-16Z"/>
  <path class="cls-99" d="M610.64,481.74l1.01-5c1.47-1.81,2.19,11.99,4.49,11.98,2.75-2.29,2.66-5.69,2.5-8.98,3.29-1,4.21,1.52,6.09,2.45,1.21.6,2.9.29,3.67.78,2.51,1.63,2.41,10.83,2.24,13.77,2.48.37,4.72-1.33,7.21-.81,4.1.86,8.45,4.45,12.04,6.02,1.47.64,4.53.65,4.7.82.57.59-.58,4.63.17,5.83.51.82,5.59.87,7.45,2.06,1.45.92,1.88,3.26,2.74,3.82,2.27,1.45,3.29-1.9,1.68,4.25,2.85.07,6.46.29,8,3.01.87.28.86.62,0,1-1.33,0-2.67.03-4,0-1.9-.38-3.9-.72-6-1-1.6-.05-4.15.61-5-1,.5-1.24,2.11-.84,3,0,.7-.32.69-.65,0-1-10.31-.84-20.96-5.01-29.28-11.37l-1.72.37c-6.5-1.5-14.22-11.52-18.12-17.33l.12-2.67c-1.19-.83-1.86-2.49-2-5-1.01.16-1.49-1.08-1-2Z"/>
  <path class="cls-8" d="M766.64,522.74c-30.65,0-61.36.22-92,0v-1c28.82.24,57.68-.32,86.51-.02,1.69.02,4.45-.64,5.49,1.02Z"/>
  <path class="cls-76" d="M918.64,262.75c.1.05.91.86,1,1,.15.24.91.5,1,1-.13.95-.47,1.61-1,2-.13.77-.42,1.94-.96,1.96-3.18.14-21.36-.51-22.39-2.09-1.11-1.69.72-2.47,2.35-2.87,1-.74,2.04-.73,3,0,4.64.68,9.57.76,14.23.4.06,0-.92.16-1.23-.4-.87-.28-.86-.62,0-1h4Z"/>
  <path class="cls-65" d="M246.64,392.75c-.82-.43-.34-3.13.17-3.34,5.67-2.42,5.02,12.03,4.72,15.16,2.5-.21,4.17.6,5.02,2.42l-.02-12.14c.72-1.43,2.08-2.27,4.08-2.54,1.22-11.03,7.26-16.34,11.13-2.56,2.46-3.02,4.76-4.35,6.9-3.99,1.46,6.97,1.88,14.57,1,21.5.57,6.43.85,13.58.99,20.35l-.99.65c1.63,1.08,1.87,7.02,1,8.5-3.89-.49-3.47,5.34-4.11,5.89-1.16,1.01-10.83-.99-12.96.57-.89.65-.57,2.65-1.2,3.28s-2.63.31-3.28,1.2c-1.62,2.22,1.53,7.78-2.45,7.06-.37-2.54,1.25-4.9,1-7.41s-2.54-3.85-2.96-6.13c-.71-3.87.62-6.01-1.04-10.46-.77-2.06-2.55-3.93-2.93-6.57-.57-3.9.27-8.43-.07-12.43l-1.99,2.99c-.07-.91-.83-2.87-1-5-.42-1.7-.42-3.37,0-5-.28-3.18-.62-6.51-1-10-.83-.26-.72-1.47,0-2Z"/>
  <path class="cls-71" d="M476.64,487.74c2.25,1.87,1.82,2.67-1,2,.85,3.62-.89,7.28-5.2,11,6.49-.79,9.37.63,11.72,6.31,4.86,1.84,10.49,2.63,16.89,2.37l.58,2.31c4.71,2.81-3.89,5.01-6.98,4.48l-3.02,1.52v.88c-3.22.4-5.22,1.11-6,2.12.28,1.07-.72,1.41-3,1-3.29.35-5.96.02-8-1-.67-3.1-5.21-1.42-5.93-2.12-.41-.4.41-2.74-.56-2.92-3.23-.59-4.32.06-3.52,3.4.28,1.15,2.44,0,2.01,1.63-2.17-.51-8.49-.89-9.73-2.27-.43-.48-.3-1.93-.84-2.59-.95-1.16-2.81-1.5-3.26-2.78-.82-2.3.56-9.33-.3-10.21-.36-.37-2.06-.08-2.82-.65-1.09-.84-.71-2.53-1.31-3.2-.5-.55-4.69-1.27-4.7-2.78-.02-2.53,6.79-.36,6.98-2.5h-27c-.4,1.67,1.67.39,2.02,1.71.26.98-.28,2.98-.02,3.28,1.08,1.24,9.15-2.95,7,4-3.33-.36-7.39.51-10.57.08-1.7-.23-1.16-1.52-2.26-1.99-.72-.31-2.01.1-2.85-.43-2.59-1.64-2.42-6.35-5.85-6.64-15-.04-30.01-.05-45.02.02-2.37.01-4.53-1.11-6.91-1.08-6.26.09-14.07,2.18-20.54,2.03-1.66-1.25.1-1.82,1.48-2,3.14-.41,6.85.29,10.1.04,1.28-.1,2.29-1.03,2.42-1.04,1.01-2.66,3.01-2.66,6,0,3.6-2.19,10.33-2.17,14,0,1.73.35,3.4.68,5,1,8.94-.79,18.06-.8,27,0,2.31-.74,4.67-.74,7,0,14.09-.04,27.76-.37,41-1,.21-.67.55-.64,1,0,2.16.7,7.2.94,7,0-.87-.28-.86-.62,0-1,2.24-1.1,5.44-1.54,8-1,.1-.92.45-.87,1,0,2.42-.08,4.75-.75,7-2,.53-1.14,1.73-1.47,2,0Z"/>
  <path class="cls-85" d="M279.64,382.75c.27,2.51.6,5.18,1,8,.74,5.66.74,11.35,0,17,.25,4.21.59,8.54,1,13,1.48.64,1.52,1.44,0,2,.78,2.27.86,4.74,0,7,.29,1.92.62,3.92,1,6,.89.18.86.52,0,1,.7,1.57.88,3.56,0,5,.25,1.6.58,3.27,1,5,.11.96-.14,2.06,0,3l-1,2.49c-.27-5.18-1.51-10.41-2-15.49-.22-2.22-1-7.13-1-8.5v-21c0-6.31-.9-14.49-1-21.5-3.18-12.7-3.1-26.29,0-39l1.01-.56c.55,11.87.8,24.5,0,36.56Z"/>
  <path class="cls-60" d="M386.64,520.74c5.48-.44,11.03-.88,16.55-1.04l11.45,2.03h-35.99c3.48-.86,4.57-.72,8-.99Z"/>
  <path class="cls-59" d="M454.64,522.74c-10.65.19-21.35-.15-32,0,1.04-1.66,3.79-1,5.49-1.02,7-.09,14.03-.07,21.03,0,1.69.02,4.45-.64,5.49,1.02Z"/>
  <path class="cls-65" d="M312.64,519.74c-3.68-2.24-2.84-4.86,1.5-4.04.89.17.22,1.8.47,2.28.84,1.63,3.21.15,4.03,1.76-3.98.7-2.98.16-6,0Z"/>
  <path class="cls-47" d="M472.64,520.74c3.56-.03,5.44.69,8,1-3.25.38-7.76.81-11,1-1.09-1.38-3.38-.33-3-1.99,1.99-.03,4,0,6-.01Z"/>
  <path class="cls-23" d="M335.64,491.74c-2.85,2.18-7.6.53-11.01.98.12-.47,1-.83,1.01-.98h10Z"/>
  <path class="cls-45" d="M648.64,264.75c29.79,0,60.93-1.23,90.51,0,1.23.05,3.71-.76,3.49,1h-20c.37,1.84,1.96,1.86,3.46,2.03,7.17.84,16.99-1.15,24.53-.04l-2.99-2.99h21v1h-14c.59,1.42,5.05,1.64,6.63,1.88,1.36.21,5.18-.07,5.38.12.32.31-.23,5.65,0,7.01h32c.16-5.79-1.93-7.96,5.01-7.01l-1.01-1.98h8.01s-1.01,1.98-1.01,1.98c7.23-.57,3.99.25,5.21,4.29,1.6,5.31,12.91,1.32,14.69,2.83,1.59,1.35.68,11.48,1.11,11.89.54.52,5.27-.74,7.04-.56,3.73.39,5.24,3.44,5.62,3.54,5.41,1.47,2.3-3.46,4.57-5.76,1.61-1.64,6.52-.99,6.77-1.23.39-.39-.35-3.63,0-4.01.38-.4,7.6.43,8.01.01s.42-11.59,0-12.01c-.38-.38-7.44.29-9.01,0l1.02-1.98-3.01-1c11.63.89,23.13.05,35-.01,3.98-.75,8.01-.75,12,0l-1.5,2,22.5,1c.94,2.39.77,5.54,0,8,.75,1.34.77,2.7,0,4-.11,7.98-4.65,9.1-13.63,3.37-1.32-.39-7.94-2.25-8.38-2.25-1.47-.01-16.41,5.28-4.11,3.73l1.12,2.15c-5.81.31-11.36.71-16.67,1.19l-1.33.81c2.96.91,2.05,5.16-1,5-.67,3.07-.6,6.33.21,9.76-1.75,2.55-6.1,1.08-6.65-1.88l-3.05.17c-4.64,2.42-9.08,2.21-5.57-3.24,0-7.38-2.85-5.34-7.22-1.64-4.44-.97-8.84-1.72-13.19-2.23-1.99,3.57-4.16,4.92-6.53,4.06-2.36,1.11-5.46.58-9.27-1.57-3.82-.31-6.39-1.45-7.73-3.43-4.2.47-8.43.66-12.69.57l-.62,1.43c-3.94-.75-8.17-1.41-12.69-2-1.52.52-3.06.99-4.62,1.32s-3.09.63-4.62.64c-21.47.12-43.07,0-64.53-.24-3.15-.04-6.22-.87-9.22-1.72-7.01-1.11-15.53-1.27-22.75.86-5.81.18-11.56-.44-17.25-1.86-1.56.31-3.23.65-5,1-.41,2.88-8.49,4.46-10,2-3.96.44-1.5-8.93,2.51-10.14,3.36.5,5.85-.12,7.49-1.86-.2.78-.48,1.78-1.17,2-1.02.32-19.91.29-21.38,0l-1.46-2c4.25.69,1.07,5.83-2.61,5.89l-7.57,7.54c.14,5.02-8.03,6.68-9.82,2.57-2.24,2.82-5.75,2.83-8,0-3.1-1.83-1.65-5.15,1.27-6.37,3.44-6.5,3.83-8-3.96-8.27-2.84-3.84-6.83-4.28-11.99-1.3-4.91.9-10.55-6.1-5.32-8.06-.2-1.23-.19-2.51.04-3.86-3.47-.25-9.29-2.09-5.04-5.14,21.38-.18,41.8-.28,61.24-.29l1.76-.71Z"/>
  <path class="cls-107" d="M306.64,298.75c-.1-6.22.19-2.88,3.22-4.04.9-.34.75-1.66,1.54-1.89,3.27-.95,7.8-.5,11.24-1.09-.15-2.25-5.41-.36-6-.99-.13-.14-.09-3.74.08-3.92.73-.77,13.71-.44,15.94-1.08v-3h-14.01v-8h16c.2,0-.2-4,0-4h44c-.97-6.94,1.2-4.82,6.99-5.01v-.99s-24.49,0-24.49,0c-.66,0-2.85,1.77-4.5.99-.58-.76,2.03-1.99,2.5-1.99h63c.28,0,1.78,2.4,3.2,2.8,1.52.43,4.9-.1,5.25.26.14.15-.07,2.24,1.05,3.94.9.44,1.83.82,2.83.97,8.19,1.19,10.58,2.11,6.75,11.68-2.68.75-4.87,1.87-6.58,3.36.54-2.88,7.38-2.9,8,0-6.06-6.2,5-9.58,11.07-7.81.81-2.72,2.12-4.12,3.93-4.19.12-.28.82-.59,1-1,0-.6.05-1.1.32-1.28,6.36-4.32,8.04-4.47,15.85-1.8,4.75-3.88,19.42-2.92,13.43,4.95-11.4,5.27-2.43,5.78,5.19,5.15l1.2,1.97c5.92,11.34-9.23,14.67-12.63,4.84-11.63,2.26-24.29,1.74-36.18.57l-3.19-1.4c5.8,5.95-14.11,5.25-8,0-1.15,4.16-6.91,2.06-5.99-2.58-.87-.85-14.14-1.08-12.89,3.57l-1.8,1.14c-7.29,1.8-16.39,3.57-22.43-.51l-15.08.71c-4.1-.57-8.28-2.01-12.55-4.32-4.52,3.2-8.41,4.88-14.29,4.39-8.06-1.62-15.06-.75-20.98,2.59-.06.61-.39.94-1,1-5.57,2.18-11.57,3.84-18,5-.05,2.66-1.31,3.15-3,1Z"/>
  <path class="cls-71" d="M282.64,300.75c2.84.15,4.78,3.33,4.01,6-.96.21-3.69-.29-4.02,0-.16.15-1,5.08,2.01,4,2.58.58,2.59,3.01.04,7.28l-1.04,4.72c2.74,1.53,2.67,2.49,0,4l-.72,3.41c1.7,1.19.81,1.52-1.28,1.59-2.23,2.3-2.95,6.17-2.17,11.6l-.83,3.4c-1.2,2.25-1.83,4.91-1.9,7.98l-3.63,3.19c-.06,4.7-2.96,10.3-6.47,4.83l-2-1.15v-17.42l2-1.43c-.28.77-.78,1.76-1.47,1.73-6.66-.29-10.35-14.05-8.34-19.9-3.24-2.42-7.65-8.06-2.2-9.83,2.67-2.96,13.79-3.35,16,0-4.26-.85-2.08-6.18,2.09-6.11-1.12-4.46,1.65-11.27,5.91-6.89.82-2.78,2.38-3.81,4-1Z"/>
  <path class="cls-107" d="M585.64,265.75c-.64,3.77,5.27,2.12,6.57,3.93,2.18,3.01-1.46,4.76-1.57,5.07l-1.99,1.45c-8.74-3.04-19.6-2.29-19.95,9.05l-2.06,1.5c-.18.9-.52.87-1,0-2.23-.65-4.7-3.05-5.07-5.46-3.85-1.23-6.22-4.8-1.93-6.54-.09.78-.35,1.96-.9,2-6.78.53-17.85.52-24.65,0l-1.45-2c1.38,3.48,2.81,6.18,5.42,9.19l.58,4.89c4.89-1.37,7.43,1.12,7.64,7.47,5.22-.03,7.67,1.5,7.36,4.6,3.63-.45,5.63.5,6.01,2.85,1.25.43,1.52,1.73,0,2,1.11,3.1-2.66,3.89-4,1-.37.76-.85,1.6-1.65,1.81-3.57.93-24.81-8.62-20.25-15.95-4.99-1.48-7.35-3.47-7.2-8.9-5.13.46-8.3-2.26-7.83-7.57-3.46.59-5.81.13-7.06-1.39-2.55,3.72-15.25-2.28-9-6,2.09-.15,7.1-1.88,9-2l.9-1.08c6.3-.06,12.56.35,18.79,1.21,10.5-1.88,21.49-1.68,32.01-.52,1.78,10.38,4.32,10.81,7.61,1.27l2.7-.88c1.03-1.54,3.95-1.51,5,0,1.66,1.15,3.33.81,5-1,.86-.76,2.14-.75,3,0Z"/>
  <path class="cls-71" d="M246.64,264.75c3.81,3.01,10.92.98,14.35,2.15,1.94.66,1.11,3.66,5.13,3.95,6.38.45,3.78-4.26,4.58-5.04.14-.14,3.79-.2,3.93-.06.41.41-.55,4.22.13,4.94.29.31,1.69-.15,2.02.11,4.23,3.18-.81,4.76-4.65,3.96-2.91.3,4.76,8.78,6.49,7,.65-.67-1.5-10.66,3.93-5.12.88.9,3.63,5.1,4.35,5.85.76.79,2.95.08,3.61,1.88,1.14,3.12-.58,10.64.12,14.39h-8.01c-2.34-2.17-4.34-4.66-5.98-7.47,1.56-6.43-8.72-11.56-14.12-12.88-1.33-3.14-4.07-1.3-8.21,5.49-4.18.47-6.05-2.02-5.62-7.48-1.6-.94-2.91-2.21-3.95-3.81-4.42.73-11.71-2.43-6.11-5.86-1.13-.39-2.46-.72-4-1v-1c3.99.02,8.01.02,12,0Z"/>
  <path class="cls-11" d="M238.64,266.75c-.17.84-.02,2.03.07,2.92,1.97,1.4,6.38.5,7.73,1.29.28.17.92,1.94,1.7,2.8.53.59,2.01.72,2.29,1.19.69,1.17-.01,11.53,3.45,6.47,1.77-2.59,3.38-4.13,5.43-6.71,3.38-.92,3.08,1.52,4.11,1.95,1.31.55,2.91.21,4.6,1.22,1.18.7,9.8,7.32,10.13,7.87,1.1,1.85.1,4.35.68,6.32.92,3.12,3.92.27,3.82,6.68,0,.67,0,1.33,0,2-.21-.01-3.39.82-4,1-1.6-.73-2.2-2.41-1.81-5.01-2.73.39-4.41-1.86-5.06-6.75-2.15-.75-4.2-1.49-6.14-2.24-.1.87-.51,1.5-1.29,1.82-3.39-1.92-9.87-5.27-12.71-2.82-1.58.83-3.39.41-5,0-2.51,2.44-9.76,5.89-10.93.19l-.74-10.02c-5.48,1.57-11.86-8.06-8.24-10.35,1.26-.8,10.13-.41,11.91.18Z"/>
  <path class="cls-45" d="M501.64,268.75c-.06,1.17-.17,2.83.95,3.54.36.23,7.56,2.41,8.05,2.46,5.94,3.35-1.05,7.55-6.01,5.84,1.06,5.15-8.6,5.94-9.99,2.16-2.04.05-12.4.31-12.88-.12-.28-.25-1.08-4.1-.68-4.89,1.03-2.06,5.8-2.03,6.43-4.69,1.17-4.93-4.75-5.24-8.16-4.32-1.05.28-1.38,3.43-4.35,3.76-2.87.32-5.12-3.1-8.75-2.76-3.32.3-4.5,3.62-7.6,4.01.26-.6-.37-2.67.02-2.97.58-.45,3.29.48,3.92-.13.43-.41-.51-2.74.6-2.97,3.65-.75,7.6,1.15,10.96,1.15,8.46.02,19.37.49,27.5-.09Z"/>
  <path class="cls-11" d="M565.64,264.75c2.33.74,4.66,1.41,7,2-1.34,2.02-4.46,10.07-6.49,10.05-5.44-.04-3.62-9.08-6.15-9.92-1.7-.56-19.36-.54-21.91-.19s-3.84,2.04-6.92,2.17c-6.21.26-13.56-2.55-20.52-2.11h-9c4.02-4.37,12.72-.41,18.5-2.99,15.08,1.32,30.32.98,45.5.99Z"/>
  <path class="cls-45" d="M457.64,274.75c-.49,1.2-1.88,5.69-2.14,5.87-1.51,1-7.95-.81-10.87.62-2.56,1.26-1.61,3.69-2,5.51-1.45-.04-7.72.29-8,0-.14-.14-.14-3.85,0-3.99.84-.84,7.72,2.61,5.98-6.48-1.06-5.55-6.4-1.65-8.98-5.54,5.46.54,12.17-.78,17.44.06,3.79.6,4.73,4.19,8.56,3.94Z"/>
  <path class="cls-31" d="M570.64,264.75c25.98.02,52.02,0,78,0,.56,3.02-1.53,1.94-3.45,2-19.52.65-39.69-1.42-59.55-1-1,.02-2-.03-3,0-1.05,1.75-3.81,2.85-5,1-1.66.08-3.34-.04-5,0-2.66.06-5.34-.04-8-.01-.12-.08.83-1.84,1-1.99,1.68-.7,3.38-.87,5,0Z"/>
  <path class="cls-88" d="M300.64,301.75v1c-5.66,5.93-10.95,12.15-14.52,19.79l-2.48.21c-.16-1.76-1.4-5.36-1.01-7.29.15-.73,1.53-.54,1.98-1.47s-.22-2.71.03-3.23c.09-.18,2.11-2.54,2.26-2.68.79-.75,2.44-.29,3.72-1.92,1.05-1.34-.14-3.31.01-3.39.61-.31,2.86.61,4.15.44,1.81-.23,4.03-.94,5.85-1.45Z"/>
  <path class="cls-45" d="M848.64,264.75c.23,1.43-3.84,1.62-4.67,1.62-1.93,0-3.78-.78-5.83-.71-2.69.1-5.14,1.18-8,1.18-2.58,0-4.66-.93-7.02-1.06-1.95-.1-7.04,1.74-8.48-1.03h34Z"/>
  <path class="cls-107" d="M467.64,266.75c-1.44-.03-5.79.86-5.99-.99,7.59-1.48,15.35-.85,22.99,0,.23,1.74-2.27.94-3.48.99-2.82.12-5.69,0-8.51,0-1.58-.79-3.41-.78-5,0Z"/>
  <rect class="cls-107" x="315.64" y="263.75" width="26" height="1"/>
  <polygon class="cls-45" points="794.64 264.75 791.66 266.33 778.64 264.75 794.64 264.75"/>
  <path class="cls-11" d="M310.65,264.76c3.08,2.92-9.4,1.9-10,1.98l6.99-1.98-7.99-1c1.84-.17,10.13.18,11,1Z"/>
  <path class="cls-45" d="M678.64,262.75c-2.54,1.71-8.66,1.66-11,0,3.66,0,7.34,0,11,0Z"/>
  <rect class="cls-107" x="366.65" y="265.76" width="4.99" height=".98"/>
  <path class="cls-107" d="M570.64,264.75c-1.67,0-3.33,0-5,0,1.46-1.3,3.71-1.89,5,0Z"/>
  <rect class="cls-45" x="769.65" y="264.76" width="4.99" height=".98"/>
  <path class="cls-45" d="M472.64,266.75c-1.66,0-3.34.04-5,0,.66-1.58,4.34-1.58,5,0Z"/>
  <path class="cls-69" d="M234.64,265.75c1.66.02,3.34-.03,5,.01.25.81-.98.89-1,.99h-10c-2.56,10.04,7.16,7.17,8,8.01.49.49.66,10.64,1.15,12.35.86,2.97,2.68.19,4.61-.15,1.54-.27,2.82-.12,4.25-.21,1.13,0,1.8.34,2,1-2.1,4.54-4.54,11.05.45,14.63l-.45,2.37c.49,2.2,10.15,2.79,13-1-2.18-1.99-.67-3.46,2-3,.66-2.34.54-4.65,0-7-2.68.08-3.98-3.67-4-6-1.7-.41-3.36-.74-5-1-.96.7-1.99.67-3,0-2.48-2.29,1.7-2.85,2.56-2.89.46-.02.29,1.63,1.13,1.85,2.09.56,8.03,1.7,10.31,2.03,13.36,2.85,10.43,26.39-4.09,22.64-3.27,1.23-12.16,5.97-10.99,10.1l.04,12.24c-2.4,2.18-3.49,4.55-3.27,7.11l2.08,45.07c-1.85,4.32-3.22,2.27-3.77-1.16-.87-1.96-.77-3.99,0-6-.27-2.51-.6-5.18-1-8-.85-1.62-.77-3.33,0-5-.24-2.86-.58-5.86-1-9-.07-1.66.09-3.34,0-5-.25-4.51-.59-8.85-1-13-.29.07-.66-.03-1,0-6.15-.51-12.35-.64-18.58-.41-.58-23.2-.76-47.46-.43-70.92,0-.23.44-.45,1.01-.67,3.69.26,7.28-.06,11,0Z"/>
  <path class="cls-6" d="M223.64,265.75l-1,70.99c1.07,1.02,16.38-1.5,19,1.01-5.94.5-12.9-.03-19,0l-1.01-71.45c-.08-.93,1.34-.6,2.01-.55Z"/>
  <path class="cls-1" d="M243.64,350.75c-.17-3.11-1.93-8.02-1-12v-1c.08-.02.17-1.25.99-1v14Z"/>
  <path class="cls-65" d="M248.64,427.74c-.22-2.61.26-5.4,0-8,1.67,1.54,1.68,6.42,0,8Z"/>
  <path class="cls-65" d="M250.64,445.74c-.13-1.98.04-4.01,0-6,.29,1.32,2.67,4.19,0,6Z"/>
  <path class="cls-1" d="M247.64,404.75c-.28.87-.62.86-1,0-.16-1.94,0-4.04,0-6-.74-1.33-.73-2.7,0-4,1.81,2.29,1.01,6.88,1,10Z"/>
  <path class="cls-1" d="M265.64,287.75c.3.04,2.12-1.26,4.24-.84,6.24,1.23,4.35,7.44,4.75,7.85,1.06,1.08,5.61-3.18,4,6.99-1.04.31-3.77.93-3.92,1.07-.63.6.39,7.51-.07,7.94-.98.92-5.29-2.48-4.01,3.99h-16c-2.44,5.32,3.81,7.85,4.02,8.7.82,3.36-.92,9.11.16,12.62.11.37,4.32,4.63,5.29,5.71.8.9,2.53.83,2.53.97v20c6.26,1.05,2.89-1.93,4.73-5.78.86-1.81,2.95-2.12,3.71-3.29,1.44-2.22.2-7.45,3.57-6.94.04-5.65-.03-11.34,0-16.99l2.99,2c2.63,1.17,1.86,5.73-1,6,1.75,4.74,2.24,10.03,1.49,15.88l.49,25.64-1.98,3.48c-.28.87-.62.86-1,0-.09-10.8.46-21.76,0-32.54-.06-1.52.82-3.18-1-3.45-.09,12.97-.19,26.03,0,39-5.91,6.89-8.46,9.38-11.04-1.48-1.14-4.8-4.47,4.27-4.91,6.05-.29,1.22.17,4.22-.04,4.44-.33.34-3.65-.36-4.02-.01-.91.85,1.69,13.63-1.5,15-3.49,1.49-2.04-2.32-2.6-2.83-.66-.61-3.48.29-4.47-1.09-2.07-2.86,2.07-12.47-2.93-15.07l-.49,2h-1c0-2,0-4,0-6-.4-1.06-.77-2.07,0-3l1.99,3c-1.27-9.08-.84-18.37-1.12-27.36-.22-6.9-1.76-16.38-.95-23.17.27-2.3,2.63-1.33,3.11-3.93.69-3.72-1.33-15.13,1.22-17.29.7-.59,2.83-.54,4.1-1.37,2.03-1.33,4.83-4.39,6.95-5.11,2.42-.82,5.43,1.34,7.73-.24,1.07-.74,1.39-3.02.98-3.52s-3.89,1.32-3-2l5.51,1.01c1.23-2.32-1.19-10.51-2.39-12.45-1.08-1.75-5.25,1.49-4.13-3.57Z"/>
  <path class="cls-1" d="M244.64,364.75c-.28.87-.62.86-1,0-.03-2.99.13-6.02,0-9,1.81,1.98.98,6.18,1,9Z"/>
  <path class="cls-1" d="M245.64,377.75h-1c-.01-2,0-4,0-6-.39-.76-.69-1.42,0-2,1.78,1.66.98,5.49,1,8Z"/>
  <path class="cls-77" d="M906.64,322.75c.46-3.3,7.99-3.08,9,0,5.15,4.56,2.5,11.63-5.57,9.83-1.32,4.88-2.69,4.91-7.82,4.31l-2.61.86c-1.98,12.61-2.98,25.28-3,38-.54,6.7-.42,13.77-1.01,20.49-.33,3.79-.9,8.93-1.99,12.51-2.03-.88-.24-3.47-.31-2.76-1.95,21.23-4.23,43.69-7.24,65.33l.55,5.43c-.71,4.03-2.12,7.17-3,11-.08,2.78-3.16,8.47-6,8-.3.87-.64.86-1,0-.86.36-1.53,1.02-2,2-.68,1.73-2.17,2.85-4,3-2.1,3.05-8.32,3.04-4.32-1.55,1.7-6.77,2.55-13.7,2.6-20.87-2.47-1.88-4.57-4.41-6.28-7.59-.05-1.09.36-3.14-.13-3.84-1.14-1.62-7.07.23-5.87-3.16-.63-.38-1.07-.93-.94-1.7.19-1.16,2.54-7.3,3.17-8.84.09-.22.4-.35.77-.46,1.06-3.4,1.39-6.73,1-10-3.29-1.27-3.41-11.31,1-11l.85.29c-.5-4.22-.12-7.98,1.15-11.29,2.74-.07,3.78,2.29,3.13,7.08,1.67-3.39,3.52-6.71,5.54-9.96-.41-5.22,1.08-8.2,4.47-8.92l.02-12.69c.32-.81.96-1.3,1.84-1.52-1.93-2.63-1.93-5.37,0-8,.14-1.31.9-1.93,2.04-2.19-.91-6.47.03-12.16,2.83-17.05-.87-6.22.19-11.47,3.18-15.76-1.41-7.86.39-13.47,5.4-16.84.6-5.43,3.46-6.55,8.53-6.38-.55-3.78,2.3-9.27,6.01-5.78Z"/>
  <path class="cls-11" d="M590.64,274.75c-.71,2.03.51,5.14,2.71,5.81,4.5,1.37,6.52-2.54,10.74-1.83,2.68.45,3.31,3.27,5.26,3.82,1.63.47,3.89-.25,5.08.41,3.34,1.85.98,7.87-.76,10.35s-2.51-.87-3.03,5.43c2.76.79,2.82,3.24,0,4-4.2,2.75-6.42,6.26-6.66,10.53l-2.34,1.47c-1.06,2.22-1.42,4.85-1.11,7.89-3.08,5.36-2.87,7.75,1.11,12.22-1.54,4.13-.71,7.45,2.49,9.97,7.11-.67,6.83,4.44,6.49,9.97,2.53,7.54,3.47,15.66,2.82,24.35,3.22,2.06,5.95,4.6,8.19,7.61,1.91.9,2.77,6.53,1,8-.55,2.63-.55,5.29,0,8,1.88.5,1.88,1.4,0,2-.87,1.74-1.6,3.52-2.2,5.35,3.24-3.71,4.07,7.6,3.74,8.45-2.07,1.12-3.92,2.52-5.55,4.2-1.53-.43-3.82,1.38-4.01-1.47-.31-4.56,1.13-29.49.02-30.54-.37-.35-3.68.36-4.02.02s.36-3.68.02-4.02-3.65.36-4.02.02.15-8.64.02-10.54c-.19-2.85-2.47-1.04-4.01-1.47-2.31-4.68-2.62-10.14-1.31-15.14-1.2,2.11-5.59,1.71-6.69-.86-1.66-.92-3.27-2.28-4-4-1.82-1.03-1.98-2.1,0-3-2.03-.38-2.65-2.54-1.87-6.49-2.74-.66-4.79-1.5-4.1-4.58l-2.03-1.92c-.78-.21-1.95-.55-2-1.17-.49-5.49-.48-15.89,0-21.38l2-1.46,1.06-2c8.12.85,6.01-3.9.09-6.4l-.86-1.75c2.03-5.36-1.18-26.83-8.06-20.25-3.34,3.3-6.09,4.1-8.23,2.4.2-14.86,11.88-16.18,24-12Z"/>
  <path class="cls-38" d="M622.64,404.75c2.6,3.16,4.11,7.69,4.54,13.58l1.46.42c2.81,8.22,4.71,17.39,6,26,2.57,7.09,3.57,8.76,3,5,1.16,3.83,3.09,8.47,5,12-.25,2.45,7.2,13.3,7.91,12.96l1.09-.96c.63.64,1.36,1.4,2,2-2.46,1.87,3.1,4.23,3,4.49-.84,1.92-4.6,1.18-4.95,1.54-.69.71,1.2,6.71-1.53,7.93-2.41-2.44-7.45-1.22-9.52-2.46-1.5-.89-1.47-3.91-2.18-4.36-2.14-1.35-1.39,1.09-5.31-3.17-.55-.6-2.01-.73-2.29-1.19-1.06-1.73.45-11.19-.2-11.8-.37-.35-3.65.36-4.02.01s.35-5.7,0-7.31c-.18-.82-1.77-.71-2.29-1.9-3.11-7.08,1.01-28.55-1.65-30.35-2.9-1.96-4,2.49-4.04-4.44-.04-6.93,2.76-3.42,3.87-5.13.73-1.13-.2-5.14.12-6.87l-3.98,3.99c-.02-5.65-1.51-7.47,3.99-9.99Z"/>
  <path class="cls-48" d="M590.64,351.75c.04,1-.07,2.01,0,3,1.77.66,3.09,2.33,4,4,1.98.16,2.61,2.01,1.9,5.56,2.28.23,3.68,1.17,4.2,2.8l-.21,21.36c1.12.45,1.98.83,2.12,2.28.56,4.32,3.5,6.04,3.98,8.52.3,1.52.57,14.94.02,15.49-.36.35-8.13-.44-10,1.01l3.52,11.03c1.12,1.59,1.96-.03,2.48-.04,4.5,1.42.71,8.02-3,6l-2.12-3.4c-3.2-13.5-6.34-27.04-9.45-40.6l.57-3.99c1.25-1.19,1.87,4.65,1.83,4.38-2.05-10.23-3.66-20.6-4.81-31.1l.99-1.27c.98-1.47.98-2.8,0-4-.64,2.56-.98,2.4-2,0-.87-.28-.86-.62,0-1,.72-2.77,5.43-2.99,6,0Z"/>
  <path class="cls-65" d="M859.64,452.74c-.86,3.52-1.26,8.09-3,11-.13.22-1.17.36-1.51.98-1.01,1.82.7,3.81,1.87,5.64.39.6,1.64.3,1.64.38v20c-2.11-.4-11.07.63-11.87-.15-.37-.37-.08-2.1-.64-2.83-1.41-1.84-4.94.54-3.5-6.02-5.53-.72-2.43,3.56-4.01,6.99l-5.99-5c1.75-.98,4.36-2.77,6-4,3.73-.58,10.44-7.66,12-12,1.78-2.4,3.44-4.98,4-8-.7-2.44,1.13-8.12,4-8,1.03-1.46,1.36-1.12,1,1Z"/>
  <path class="cls-1" d="M862.64,470.74c6.33-1.09,2.91,2.15,4.12,3.85.63.89,3.56.32,3.92,1.81.76,3.14-.55,9.2-.1,12.79l-3.97,11.04c-.93,2.6,3.38.98,4.02.51,2.02-.24,1.33.8,0,2-3.75,3.3-7.75,6.3-12,9-1.61.54-2.28,1.21-2,2v1c-1.1.08-2.02.55-3,1l-8.22,1.28c-2.29.68-3.91,2.15-6.34,2.67-.93.2-3.72.75-3.43-.93,3.48.11,4.05-3.03,7.72-3.78,2.34-.47,4.94.28,7-.55.31-.13,5.15-3.88,5.27-4.2.92-2.51-5.29-.72-2.98-3.47.91-1.08,10.04-5.03,11.65-6.36,6.13-5.08-1.02-7.92-1.64-11.18-.92-4.81.21-13.04-.02-18.48Z"/>
  <path class="cls-48" d="M606.64,426.74c1.33.02,2.67-.03,4,0,.44,10.46-1.06,21.18,1,31.48-.63,1.87-2.9.37-2.99.52-.44.72,1.63,4.84,1.87,6.61.13.94-.03,3.74-.06,5.03-.04,1.88,1.42,3.89-1.82,3.37-3.82-9.75-6.37-20.57-7-31,.92-1.38,1.9-1.25,2.96-.27l.14-14.35,1.9-1.38Z"/>
  <path class="cls-21" d="M590.64,354.75h4.01c.07,1.32-.08,2.67,0,4,2.65.15,5.36-.11,8.01,0,.03,5.32-.06,10.68,0,16,.05,4.94-.6,11.36,0,16-1.53-.43-3.82,1.38-4.01-1.47-.24-3.49.84-21.76.02-22.54-.37-.34-3.66.36-4.02.01-.29-.28.1-6.43,0-8.01-1.33-.08-2.68.07-4.01,0-.08-1.32.1-2.68,0-4Z"/>
  <path class="cls-87" d="M813.64,492.74c2.16,1.8.07.93-1.48,1-15.16.64-30.84.41-46.02.44-16.04.03-37.7,1.08-53.07-.39-.94-.09-2.33.2-2.43-1.05,34.31-.86,68.7-1.4,103,0Z"/>
  <path class="cls-49" d="M809.64,491.74c1.32.05,3.3-.52,4,1-34.32-.09-68.68.13-103,0-.87-.28-.86-.62,0-1,32.55,0,66.65-1.3,99,0Z"/>
  <path class="cls-70" d="M606.64,426.74l-.05,17.42-1.96,1.09-2.99-2.52c-1.4-.95-1.22-2.39-1-4-2.48.81-2.75-.11-1-2-1.39-.42-1.63-3.69,0-4,1.98-2.2,3.88-2.34,3-6,1.33-.01,2.67-.02,4,0Z"/>
  <path class="cls-99" d="M616.64,466.74c.36.34-.25,6.09.01,7.5-4.36,3.41-4.83-6.7-4-7.5.14-.14,3.84-.14,3.99,0Z"/>
  <path class="cls-61" d="M710.64,491.74v1c-8.99-.03-18.01.03-27-.01l1-.99h26Z"/>
  <path class="cls-2" d="M631.64,508.74c.3-5.39,3.49-.09,4.22.32,4.28,2.42,5.85,2.33,10.78,1.69l-3,1c1.32,4.23,6.08,2.56,8.3,3.38,3.82,1.41,6.48,3.79,10.7,4.61.87.28.86.62,0,1-.98.04-2.02.06-3,0-.66-.04-1.35.07-2,0-3.32-.37-10.96-2.57-14-4-3.38-1.58-8.96-5.59-12-8Z"/>
  <path class="cls-1" d="M510.64,506.74c1.18-.72,1.63-.23,1,1-1.56,1.31-3.33,2.88-5,4-.6.41-1.37.62-2,1-3.61,2.17-6.01,3.47-10,5-1.92.19-3.59.19-5,0,1.72-3.23,6.57-2.43,9.42-3.01,1.01-.21-.45-2.17.58-2.99.96-2.67,8.27-6.2,11-5Z"/>
  <path class="cls-1" d="M670.64,522.74c-2.06-.04-4.25.58-6-1,1.82.06,3.66-.08,5.5,0l.5.99Z"/>
  <path class="cls-1" d="M662.64,519.74c1.45.28,3.96-.66,5.01.5,0,.93-3.87.46-5.01.5v-1Z"/>
  <path class="cls-101" d="M870.64,502.74c2.5,2.43-2.88,7.84-6,7-.53.41-1.39.61-2,1-.39.25-2.07.59-3,1h-1l9.28-8.74c.76-.71,2.27-.04,2.72-.26Z"/>
  <path class="cls-1" d="M858.64,511.74h1c-.75.34-1.53,1.71-3,2-.59.12-1.35-.05-1.99-.01v-.97c2.52,0,1.56-3.25,3.99-1.02Z"/>
  <path class="cls-17" d="M915.64,322.75c1.57-3.83,4.05-2.02,3.37,1.9l.63,4.1,1-5h1c-.04,4.99.03,10.02,0,15-6.08-.25-14.52-2.14-20.43-1.07-1.25.23.06,3.58-1.57,4.06-.72-.7-.72-2.03,0-4,2.32-3.24,5.46-.08,6.92-1.06.8-.54.91-5.68,1.12-5.89,1.48-1.48,12.74,3.84,7.96-8.05Z"/>
  <path class="cls-102" d="M893.64,408.75c.05,5.16-.93,10.49-1,16l-1,6c-.02,1.66.1,3.35,0,5l-1,5c-.94,11.37-2.23,19.95-4,31-.25,1.53.26,3.5,0,5-1.69-1.6-1.18-5.37-.98-7.49,1.65-17.16,4.48-33.79,5.95-51.06.32-3.81-1.76-11,2.02-13.45.03,1.33,0,2.67,0,4Z"/>
  <path class="cls-54" d="M899.64,341.75c0,1.65.1,3.35,0,5l-1,5c-.73,7.97-1.35,16.02-2,24-2.98-7.38-.02-15.46.88-22.62.47-3.74.35-12.91,2.12-15.38v4Z"/>
  <path class="cls-52" d="M891.64,430.74c.03-1.89-.68-4.91,1-6-.03,1.89.68,4.91-1,6Z"/>
  <path class="cls-77" d="M890.64,440.74c.06-1.6-.62-4.15,1-5-.13,2.21-.95,4.38-1,5Z"/>
  <path class="cls-77" d="M898.64,351.75c.06-1.6-.62-4.15,1-5-.14,2.26-.93,4.28-1,5Z"/>
  <path class="cls-8" d="M920.64,323.75c-.03,3.99.03,8.01-.01,11.99-2.07-.68-.71-5.16-.99-6.99-.05-2.86-.72-5.37-2-7.53.04-11.38.03-22.82-.02-34.31l2.02-8.16c0-1.33,0-2.67,0-4,.28-.87.62-.86,1,0,.37,16.27.12,32.72,0,49Z"/>
  <path class="cls-62" d="M920.64,274.75h-1c.02-2.65-.15-5.36,0-8,.05-.85.04-1.73,1-2,.49,2.63-.07,7.01,0,10Z"/>
  <path class="cls-45" d="M914.64,263.75c1.11.05,3.26-.69,2.99.99-5.05-.56-11.34,1.28-15.99-.99,4.3.02,8.71-.21,13,0Z"/>
  <path class="cls-17" d="M529.64,342.75c.32-.34.65-.64,1.04-.82,3.22-1.47,3.12,9.12,2.27,11.15.36.41,9.87,6.22,7.63,2.2.62-2.06,2.12-2.87,4.16-2.61-1.07-5.53.27-8.17,4.03-7.9.14-5.67,7.12-5.85,7.93-.38,4.49.04,6.25,7.44,3.95,10.35-.55,2.13-3.05,2.76-7.49,1.88-.72,3.62-2.02,4.06-5.16,4.46l.56,18.59c-3.58,4.06-4.98,9.05-4.22,14.97-4.98,4.18-6.18,11.79-.22,15.57.3,4.14,1.03,6.01,2.53,9.55.72-.85,1.05-.51,1,1,2.4,3.13,1.05,5.12-2,7,1.33,2.08-.18,5.44-2,7,.98,6.17-1.14,12.45-3.7,19.07l-4.23,18.56-2.08,1.37c.42,3.43-.25,5.76-2,7-2.23,1.19-3.35-.19-3.36-4.12l-3.5.11c-.08,2.46-1.35,4.04-3.82,4.23,2.16,3.03,1.42,6.88-2.19,11.55.75,2,1.04,3.74.88,5.23.28.95-.06,1.28-1,1-2.48,1.48-4.2,2.8-6,5,1.71.93-.33,3.69-2,3-2.6,1.79-8.09,5.04-11,5-.53,0-2.02-.95-3.45-1-3.11-.12-9.59.66-11.89-.15-1.23-.44-1.64-2.27-2.79-3.26-.6-.52-2.05-.34-2.58-.88-.75-.76-.12-2.95-1.9-3.6-1.95-.71-13.32,1.37-8.72-2.95,3.55-3.33,5.15-6.05,7.33-10.17,3.37-3.6,5.13,3.44,4.92,6.79,5.11-.44,5.72,8.57,2.08,10.21,1.65-3.28,14.06-3.13,16,0-4.03-1.36-2.18-5.76,1.67-6.05.35-2.84,1.53-4.16,4.46-4.15-1.48-7.13-.15-11.13,4-12-1.45-7.32-.14-11.23,3.94-11.72.6-3.26,4.65-6.03,5.93-2.07l-2-1.15v-17.42l2-1.43c2.24-1.35,2.82-3.75,1.74-7.2.67-3.85,9.13-4.11,10.26-.8-.78-.21-1.9-.53-2-1.17-.45-2.82-.47-18.67,0-21.38l2-1.46c-.1-3.02,3.33-2.74,4,0l-2-.92v-44.88l2-1.2c-.24,2.38-2.25,2.52-6.03.42l-.34,8.01c-.39,3.54-1.56,8.28-5.62,6.57-1.34-3.51.15-10.78,1.38-14.81.16-.51.81-.87,1.62-1.19-.61-3.55.05-6.21,2-8l1-6c-1.92-2.83-.92-11.48,1-14Z"/>
  <path class="cls-1" d="M522.64,386.75c5.63-3.14,2.81-11.58,4.15-15.38.5-1.42,3.92-1.42,2.86-4.61,1.95-.14.49,2.66,1.43,4.07.84,1.25,3.56.74,3.56.92v47c0,.2-4-.2-4,0v24c-1.48.25-7.65-.36-8.01,0-1.37,1.37,3.16,10.18-3.99,8v20c0,.15-2.09-.25-3,.48-1.17.94-.71,2.99-1.14,3.38-.74.67-3.48-.21-3.87.13-.45.4.46,11.59.01,12.01-.37.35-3.65-.36-4.02-.01-.45.42.46,11.59.02,12.01-.37.35-3.68-.36-4.02-.02s.36,3.68.02,4.02c-.89.89-5.33-2.44-4.01,3.99h-16c-.24-1.46.34-7.7,0-8.01-.37-.35-3.67.36-4.02.01s.87-8.07-2.99-9.01c.3-.57,1.1-1.06,1-2,2.15-6.09,8.1-3.07,11.43,1.13l8.59.08c-.98-5.65.41-8.38,4.15-8.2-1.69-5.06,2.53-12,5.84-6.01-3.22-1.06-3.11-12.44,0-14-.12.73-.44,1.44-1.17,1.73-5.65,2.23-2.56-7.91-.62-11.06,1.26-6.4,3.19-12.29,5.8-17.67-.13-6.38,1.97-14.7,4-21-.01-3.61.65-7.28,2-11-3.34-1.66-1.12-12.76,3-12-.05,3.82.49,2.82,1.62-3.02l1.38.02Z"/>
  <path class="cls-46" d="M510.64,433.74c-2.11,8.57-3.45,17.74-7.99,25.51-.27.86,3.99,1.28,3.99,1.49v14c-7.13-2.21-2.65,6.74-3.99,8.01-.37.35-3.65-.36-4.02-.01-.41.38.43,7.59.01,8.01s-10.08.22-11.28-.05c-.75-.16-5.14-4.95-6.23-5.05-2.18-.2-3.1,1.51-4.5,2.09-.48.2-1.52-.2-2,0-.73-.29-.72-.62,0-1-.68-1,.14-1.96,2.46-2.86-.93-2.13.6-2.39,2.54-1.14.28-.9.62-.89,1,0,2.58-.41,4.91-1.74,7-4,2.84-2.67,4.51-5.34,5-8-.17-2.92,1.21-5.88,4.16-8.89,1.17-2.87,2.66-4.67,4.46-5.39,1.52-5.73,3.32-11.3,5.38-16.72-2.61-1.7-.93-5.89,2-6,.74-2.21,1.31-2.26,2,0Z"/>
  <path class="cls-93" d="M448.64,491.74c.81-.45,1.47-.45,2,0-1.04,1.66-3.79,1-5.49,1.02-11.83.15-23.7-.02-35.51-.02-.87-.28-.86-.62,0-1,12.98.02,26.02-.1,39,0Z"/>
  <path class="cls-93" d="M402.64,491.74c.87.28.86.62,0,1-8.98,0-18.02.15-27,0-.87-.28-.86-.62,0-1,8.98-.11,18.02.03,27,0Z"/>
  <path class="cls-66" d="M494.64,517.74c-3.58,1.37-7.13,2.68-11,3,.19-.26-.32-1.63.06-1.92.24-.18,4.7-.82,5.94-1.08,1.53-.32,4.19-1.88,5,0Z"/>
  <path class="cls-1" d="M474.64,486.74v1c-.59.25-1.43,2.08-4.02,2.64-2.32.5-2.83-.66-2.98-.64,2.12-1.07,5.02-1.89,7-3Z"/>
  <path class="cls-93" d="M458.64,491.74c.66.04,1.34-.04,1.99.01v.98c-2.76-.38-6.82,1.1-8.99-.99,2.32.04,4.69-.15,7,0Z"/>
  <path class="cls-1" d="M409.64,491.74v1c-2.33,0-4.67,0-7,0v-1c2.33,0,4.67,0,7,0Z"/>
  <path class="cls-1" d="M375.64,491.74v1c-1.61-.03-4.16.6-5-1,1.67-.03,3.33.02,5,0Z"/>
  <path class="cls-65" d="M302.64,430.74c.22-1.77.57-2.19,1.07-1.26l-.06-11.37c.58-1.92,6.94-2.3,7,.63,3.28,1.65,3.13,14.06,0,16,1.46-3.48,10.11-3.3,10.06,1.55,5.69,1.12,5.95,8.27-.26,8.34-.87,3.66,1.12,5.07,5.97,4.23,4.76,3.22,2.21,16.97-3.94,9.38-1.87,2.54-3.06,5.18-3.58,7.91l-2.25-.41c-3.15-2.14-6.73-4.97-9-8s-5.09-8.46-6-12l-.26-14.35,1.26-.65Z"/>
  <path class="cls-63" d="M302.64,411.75c.89.18.86.52,0,1-.87,3.25-.85,6.74,0,10,1.52,2.43,1.59,5.6,0,8,.02,4.73.83,10.89-1,15-2.88-11.23-.92-34.23-1-47-.84-19.29-.87-38.69,0-58-1.58-1.07-2.01-7.13,1-6,.84,1.92,1.71,3.93,1.75,6.05.44,22.57.59,45.4.54,67.88l-1.3,3.07Z"/>
  <path class="cls-99" d="M300.64,398.75h-1c-.85-10.61-.91-21.39,0-32,.07-6.95-.35-14.07,0-21-.66-1.56-.75-4.76,1-5,.09,19.32-.12,38.68,0,58Z"/>
  <path class="cls-1" d="M321.64,317.75c4.73.84,5.54,6.67,4.54,10.93,5.01.65,2.18,5.08,1.57,4.56-.39-.34,1.27-2.6,1.89-.49,2.41.65,7.88,5.16,7,8,2.94-.65,5.66,2.35,4,5,4.68.78,19.03,13.28,19.83,16.84.16.7.18,1.43.17,2.16,2.76-.53,2.84-.03,1,2l.71,1.14c-7.96,8.8,1.47,14.36,10.51,14.92.72-3.55,2.98-3.58,6.78-.07.28-.86.61-.85,1,0,2.64-1.75,5.84,2.61,4,5,6.85,9.26,14.97,18.01,23.89,25.21,1.4,1.39.61,2.71-.99,3.76l1.47,11.74c2.59.39,3.64,1.91,3.86,4.43,8.58-1.7,15.27.89,11.78,9.86,1.11,10.88-2.04,10.78-12.25,9.93-2.71-.8-3.93-3.36-3.68-7.69-2.58.38-5.44.07-7.13-2.15-2.42-4.17-4.02-2.89-5.95.13-.36.57-1.61.21-2.48-.22.83,2.85-16.24,2.37-17.08,2-.75-.33-1.12-1.21-1.42-2,5.39,4.4,1.8,11.06-5.75,9.94-.13,2.88-1.53,4.16-4.49,4.24-.71,4.08-4.42,4.55-7.92,3.73.4,3.03-.22,5.06-1.85,6.09.01-.77.23-1.53.88-2,.76-.54,17.71-.66,17.62,2-1.05-2.15-.79-12.08.34-13.18,4.99-4.87,19.84.98,15.29,11.25,5.21-.45,9.75-.54,14.32,2.58,11.46,1.66,23,2.41,34.65,2.22l2.9,2.13c.87.28.86.62,0,1-.66.75-1.37.73-2,0-35.64-.4-71.98-.73-109-1-4.53-.5-9.25-3.45-13-6l1.52-1.85-2.52-1.12c1.2.35,4.28-3.54,4.68-4.34.65-1.3.12-3.42.35-3.67.14-.14,3.82-.16,3.97-.03.73.68-1.73,4.78,2,4v-8s-8,.01-8,.01c.49-4.84-2.27-9.25,4.01-8.01,1.47-5.45-2.7-3.7-3.82-5.27-.5-.7.32-2.5-.75-2.8-1.77-.49-5.31.46-7.44.07v-16h-6.01c-.08,2.83.12,5.7,0,8.55-.08,1.92,1.03,4.01-2,3.45-.01-2.62,0-5.31,0-8-.84-3.33-.85-6.69,0-10,0-.33,0-.67,0-1-.23-3.89,6.79-4.27,8-1-.79-.09-1.98-.37-2-.93-.62-17.74-.83-38.46,0-56.16-.69-3.7-.02-6,2-6.91.17-3.28,7.12-2.74,8,0-.78-.09-1.94-.33-2-.88-.25-2.52-.28-19.48.67-20.46.32-.34.81-.52,1.33-.66-.04,2.66-4.83,2.61-6.07,1.03-3.17-4.04,5.88-12.14,9.07-8.03Z"/>
  <path class="cls-35" d="M438.64,472.74c-36.29.65-72.7-.49-109,0v-1c34.48.29,69.02-.38,103.51-.02,1.69.02,4.45-.64,5.49,1.02Z"/>
  <path class="cls-65" d="M281.64,420.75c-1.85-3.32-.99-8.89-1-13h1c-.04,4.32-.01,8.68,0,13Z"/>
  <path class="cls-65" d="M280.64,390.75c-1.78-1.66-.98-5.5-1-8h1c0,2.66,0,5.34,0,8Z"/>
  <path class="cls-65" d="M282.64,435.74c-1.68-1.09-.97-4.11-1-6h1c.03,2-.03,4,0,6Z"/>
  <path class="cls-1" d="M283.64,446.74c-1.65-.02-.92-3.36-1-5,.28-.87.62-.86,1,0,.03,1.62-.18,3.45,0,5Z"/>
  <path class="cls-17" d="M833.64,297.75c2.23-.86,4.21-5.33,5.66-5.83,5.3-1.85,9.49,3.01,14.8,1.9,1.13-.23.19-2.53.6-2.95.24-.25,6.7-.37,6.94-.11.29.31-.15,6.5,2,7.99l-3.99,2c3.73-.4,5.31-2.63,9.52-2.09,2.27.29,1.66,2,2.48,2.56,4.84,3.31,2.54-5.73,3-8.98l1,.52c1.67,1.07,2.54,3.37,2.62,6.9,1.75,1.77,2.88,3.46,3.38,5.1,3.08-.9,5.41-.57,7,1-.45-2.65.22-2.99,2-1,4.77-2.19,5.99-1.8,5.54,3.98,6.03-.63,6.65,5.34,1.74,8.14,4.97-1.12,15.58.74,8.72,5.88-6.17.96-3.26,7.24-3.99,8.01-.4.42-5.3-.73-7.05.45-1.25.84-1.1,3.59-1.9,4.85s-3.22,1.45-4.31,3.95c-1.73,3.98-.02,8.45-.76,12.24-.42,2.16-2.33,2.76-2.78,4.22-1,3.25.43,7.97-.41,11.59-.45,1.96-2.36,3.15-2.75,5.25-.65,3.43.22,8.25-.03,11.99-.19,2.85-2.47,1.04-4.01,1.47-.91,0-1.59-.36-1.99-1.15l.26-12.87c-1.84-.48-3.21-1.26-4.16-2.98-.61,2.67-2.93,4.53-5.11,2.5.78.09,1.96.35,2,.9.25,3.13.5,26.82,0,28.13-.29.76-1.21,1.14-2,1.46-.04-1.75,1.64-2.51,5.04-2.29-1.05-4.29,2.84-10.88,5.96-5.71-.05,3.53.76,13.02.07,15.39-.32,1.12-2.83.46-3.63,1.53-.93,1.24-.12,4.38-.7,6.32-.98,3.27-3.81,6.23-5.15,8.85-.38.75-3.76,12.93-4.59,6.43-.5-3.93,1.22-8.99-1-12.52l-1.01-2.83,1.48-47.09c.16-1.51-.37-1.44-1.47-.08-2.28,1.78-3.01-.12-3.12-2.57.62-12.11.2-24.2-1.26-36.28l1.39-3.15.17-4.39c1.36-5.32,3.15-15.24-4.12-15.44l-1.04-2.17c-1.72,1.24-5.99-2.09-4-4-2.66-3.35-6.66-5.59-9.91-1.22l-2.09-.78c-2.14,2-5.81-.18-5-3Z"/>
  <path class="cls-102" d="M894.64,285.75l-15.99-1.99c2.31-.2,5.02-.41,7.22-1.1.77-.24.73-1.64,1.51-1.86,4.49-1.25,6.69.8,9.77-5.04,2.05,4.99,5.73,3.14,9.52,4.46,5.33,1.86,10.55,7.74,12.98-1.48-.03,10.88-.03,21.83.05,32.46.04,5.84-.13,11.71-.05,17.54-.21-1.4-1.91-3.66-1-6.01-1-.04-2,.04-3,0-2.61-.08-6.61-.37-9,0-.43-1.53,1.38-3.81-1.47-4.01-1.89-.13-10.17.38-10.54,0-.24-.26.17-3.02,0-3.99,2.94,1.7,5.87-2.22,4.02-4-.74-.71-6.18,2.27-4.01-6-1.54.8-2.91,0-4,0l-.28-2.16c2.98-3.81,3.54-8.46,1.68-13.94l1.61-1.89,1-1Z"/>
  <path class="cls-58" d="M618.64,298.75c4.48,1.95,1.71,5.41-2.11,6.57l.16,8.3c-3.61,3.75-3.1,8.27,1.67,10.8l.29,2.33c2.71.92,2.82,3.06,0,4,2.17,1.8,2.1,6.6-1,7-.28.87-.62.86-1,0l-.64-.53-.15,10.65c.52,7.27,1.78,14.23,3.79,20.88.33,1.74,1.48,4.49,2,7-.23,3.38.08,6.74.93,10.09l-.93.91c-3.88-.45-6.67-4.34-9.84-6.66-.95-6.15-.31-13.98-1.11-19.89-.3-2.24-1.67-3.3-2.01-4.99-.43-2.15.61-5.95-.47-7.52-1.09-1.58-4.07-.39-5.36-1.15-.5-.29-.62-1.77-1.2-2.29-.94-.84-2.94-1.47-3.09-2.17-.38-1.84,1.44-4.6,1.15-6.82-.34-2.62-4.55-1.32-3.02-8.95.31-1.53,1.62-2.6,1.89-4.09.93-5.12-2.44-7.3,3.05-7.45,1.64-1.52,3.07-3.37,4.3-5.53l2.82-.6c-.71-3.27-.09-5.22,1.88-5.86.05-1.32-.11-2.68,0-4,2.66-.04,5.34.06,8,0Z"/>
  <path class="cls-64" d="M618.64,298.75c1.91-.04,5.74.5,7.07-.46.88-.63.56-2.64,1.2-3.27,2.81-2.73,5.26-5.23,8-8,.61-.61,2.39-.24,3.23-1.29.76-.94.34-2.99.5-2.99h24c1.03,7.14-2.52,2.49-6.04,3.42-1.48.39-2.87,1.99-3.94,3.08,2.18,4.12,8.6-2.02,7.98,2.5-2.09.15-4.55.02-6.55.47-.59.13-3.52,2.04-1.45,2.54l-.41,2.27c-6.54,2.69-12.79,6.25-18.42,10.53l-2.17-.8c-.12,1.67-2.35,3.68-4,4-3.6-.42-5.16,3.22-5,6,2.5,1.63-1.1,10.12-4,10-5.09-2.1-7.23-5.91-5.98-11.32.19-.81,1.81-.26,2.05-2.12s-.5-10.19-.09-10.57c.94-.89,5.39,2.33,4.01-3.99Z"/>
  <path class="cls-51" d="M894.64,285.75c.1.91-.3.87-1,1-5.06.96-11.8-1.27-17,1,.03-.66-.05-1.34,0-2h18.01Z"/>
  <path class="cls-64" d="M667.64,291.75v1c-1.64.02-3.38-.15-5,0,.84-1.6,3.39-.97,5-1Z"/>
  <path class="cls-11" d="M510.64,274.75c2.05.22,3.82-.86,5.53-.82,5.56.12,2.27,3.76,4.36,6.43,1.56,2,4.86.91,6.17,1.83,1.44,1.02.47,4.32,1.84,6.15,1.29,1.73,5.56,1.92,5.97,2.53.57.83-.19,4.29.33,6.17,1.13,4.04,15.46,9.51,19.79,9.7,4.26.7,2.17,6.12-1.97,6.01.55,5.95-12.73,6.05-12.11-.11-5.46,1.08-8.1-.27-7.91-4.07-3.81.11-7.48.83-11.01,2.16.38,4.03-1.56,2.73-5.8-3.88-6.14-5.24-14.1-11.11-22.2-12.12-1.75,2.73-7.82,1.99-9-1-5.85-1.71-13.69-2.2-23.5-1.48l-2.5-.52c-2.66.72-5.36.73-8,0-9.28.86-18.71,1-28,0-2.99,1.58-6.99,1.55-10,0-15.42.44-30.75.44-46,0-10.32.75-20.67.63-31,0-1.89.9-5.13.68-7,0,3.4-2.64,1.12-5.19,8.51-5.08,6.15.09,12.34,1.04,18.94.03,5.75-.88,4.51-6.75,13.3-2.24,1.14.58,1.21,2.11,1.95,2.27,5.95,1.31,17.05-1.41,22.6,0,1.1.28.68,2.56,3.16,3.05,3.58.7,13.31-1.54,16.82-3.01,1.39-.58.36-3.21,2.33-3.89.58-.2,7.82-1.13,8.93-1.16,7.97-.25,4.69,4.2,5.45,5.05.34.38,3.45-.36,4,0,.33.21-.61,2.86,3.48,3.1,3.31.19,3.89-.17,4.52-3.1,10.68.26,21.85.31,32.54.04,2.45-.06,5.83-1.56,7.81-1.11,1.41.32,1.14,4.65,2.6,5.65,2.54,1.74,4.92-2.4,5.54,1.42,3.5-2.3,2.15-6.51,3.51-10,1.54-.04,7.73.3,8.01,0,.34-.36-.36-3.65-.01-4.02,1.21-1.29,10.14,3.13,8.01-3.99Z"/>
  <path class="cls-28" d="M335.64,291.75c.87.28.86.62,0,1-2.64.08-5.37-.21-8,0,.32-.35.63-.71,1-1h7Z"/>
  <path class="cls-25" d="M329.64,312.75c.33-.03.67.02,1,0,10.06.52,20.06.85,30,1,3.18,1.64,4.08,5.46,2.71,11.48,7.3,3.5,6.61,11.49-1.97,6.88-.38,1.75-1.3,2.63-2.74,2.63l-1.2.74c-2.71-2.89-5.64-5.47-8.8-7.74-.25.89-.58.86-1,0-2.71.27-3.71-.4-3-2-1.69-.49-3.36-.49-5,0-2.95,1.9-5.95,4.23-9,7-.26.89-.59.88-1,0-.8.2-1.53,1.51-3,.99,2.6-4.84-1.03-1.84-2.06-3.64s.41-5.02.07-6.64c-.07-.33-2.13-3.12-3.01-5.71l-2.05-.74c1.34-.12,1.35-.54.05-1.26.39-2.78,6.98-3.87,10-3Z"/>
  <path class="cls-20" d="M334.64,312.75c7.29-.79,14.78-1.05,22,0,11.32-.11,22.68.01,34,0,5.66-.58,11.39-1.11,17,0,2.02.19,2.4,1,1.39,2.75-1.31,2.25-20.29,2.3-22.89-.75-.96,3.32-13.45,3.06-15,0-1.89,3.19-8.7,1.91-10.5-1-10.08-.17-20.57,1.71-30-1,1.32-.09,2.67.05,4,0Z"/>
  <path class="cls-25" d="M356.64,311.75v1c-7.3.07-14.71-.27-22,0,6.73-1.84,14.92-.99,22-1Z"/>
  <rect class="cls-1" x="270.65" y="348.75" width="3.99" height="1.99"/>
  <path class="cls-21" d="M566.64,286.75c.92-.14,3.81.23,4.01,0,.35-.4-.4-3.64,0-4.01.32-.29,2.31.33,3.23-.04,1.07-.42.61-2.99,4.11-1.96.5.15,1.33,3.35,4.65,1.99l2.2,21.3c1.06,3.58,5.65,2.08,5.86,3.27.37,2.12-.37,5.14-.05,7.44h-8.01s0,23.99,0,23.99c6.43-1.32,3.1,3.12,3.99,4.01.34.34,3.65-.36,4.02-.02.33.31-.07,7.31,0,9.01-1.95-.15-4.09.22-6,0l-.92,1.23c-5.97-.76-11.87-.68-17.71.26-1.74,2.53-3.53,3.03-5.37,1.51-1.15-1.83-1.74-7.68-2.04-7.96-.5-.48-3.62.32-3.97-.03-.88-.85,2.4-5.41-3.99-4.02,1.25,6.5-3.02,3.07-4.01,4-.4.38.42,7.64.02,8.01-.37.34-3.7-.36-4.02-.01-.34.38.54,3.12-.12,3.87-.45.52-3.05-.2-3.75,1.75-1.58,4.39,3.17,12.15-4.11,10.39-1.8-4.21,2.48-9.54,2.06-12.46-.56-3.82-5.56-3.06-6.02-3.59-.61-.69,1.2-6.2.96-8.4-.23-2.08-1.95-3.3-2-3.56-1.91-5.74-4.31-15.41-2-21-.24-2.13-.91-3.46-2-4-2.51.17-6.47-5.42-4-7-.36-4.41,12.5-4.54,13.01-4.01.35.37-.36,3.65-.01,4.02.38.4,7.63-.42,8.01-.02.35.37-.36,3.65-.01,4.02.27.29,7.74.29,8.01,0,.35-.37-.36-3.68-.02-4.02.86-.86,5.43,2.31,4.01-3.99,2.31.1,3.79-1.01,4-1,1-1.29,1.68-.45,2,1l1-.68c4.34,2.61,10.7,3.34,15,1.68,1.18-2.5,2.85-4.17,5-5-.49-1.66-.52-4.12,1-5l-1-6c-2.75.86-3.38-1.52-1-3-3.93-1.02-8.06-.92-12,0-1,2.72-3.08,2.69-4,0-5.8,2.93-3.36-6.18,1-2,.32-.06.67.05,1,0Z"/>
  <path class="cls-28" d="M558.64,303.75c-3.02-1.15-7.72-.69-8.01-.99-.34-.36.35-3.68.01-4.02-.31-.32-4.52.75-6.61-.89-2.43-1.91-.99-6.68-1.4-7.1-.37-.39-6.64.4-7.01.01-.21-.22.16-4.32-.42-6.08-.99-2.98-5.74-3.4-3.57-9.92h27c-1.35,6.39,3.18,3.11,4,4,.28.3-.31,2.3.03,3.22.36.99,3.54,1.97,2.97,4.78-2.53.48-4.84,2.38-1,2,.3,2.33-1.31,9.1-4,6l-.76-.29c.33,2.91.72,6.86-.24,9.29-.24.86-.57.83-1,0Z"/>
  <path class="cls-45" d="M582.64,265.75c.32,3.62-5.91,4.6-5,1,1.04-.05,2.84-.94,5-1Z"/>
  <path class="cls-11" d="M560.64,304.75c1.47.56,1.9,1.82,0,2-.49-.24-1.85-.99-2-1v-2c.32.12.82-.15,1,0,.92-.64,1.19-.11,1,1Z"/>
  <path class="cls-24" d="M251.64,286.75c1,0,2-.02,3,0,.87.28.86.62,0,1-.48,2.92-4.98,2.63-6,0l-2-1c1.64-.11,3.35-.01,5,0Z"/>
  <path class="cls-67" d="M261.64,303.75c-.17.24.45,1.37-.6,2.09-1.77,1.21-9.56,1.3-11.8.77s-.52-1.76-.6-1.86c4.2,2.13,9.05.94,13-1Z"/>
  <path class="cls-1" d="M263.64,300.75c-.85-1.81-.78-4.17,0-6v-1c1.13,3.7,1.59,2.96,0,7Z"/>
  <path class="cls-11" d="M259.64,287.75c-1.14-.29-3.55.03-5,0v-1c1.61.04,4.16-.6,5,1Z"/>
  <path class="cls-110" d="M878.64,394.75c-6.23-1.23-3.2,7.2-4,8-.33.33-5.64-.24-7,0v-30.5c0-.61,2.75-1.12,3.02-2.2,1.03-4.2-2.78-8.55,3.98-7.3.25,1.93-.49,4.66.12,6.39.71,2.01,3.62,1.04,3.95,2.22.69,2.45-.11,11.82-.07,15.39.03,2.66.04,5.34,0,8Z"/>
  <path class="cls-100" d="M863.64,420.75c-.28,7.01-.15,14.01-1.01,20.99l-.99-9.99c-.49-20.4.44-40.71,1-61,.18-6.48-.73-14.37-.04-20.54.17-1.5.21-3.09,2.03-3.46-.66,6.18.58,12.49.81,18.5.73,18.53-1.06,36.95-1.8,55.5Z"/>
  <path class="cls-81" d="M859.64,452.74l-1-1c1.24-3.8,1.62-4.85,2-9,3.23,3.25-.39,7.51-1,10Z"/>
  <path class="cls-1" d="M874.64,497.74v1c-1.8,2.24-.1,2.09-4,4,.18-.45-.12-1.39,0-2,.15-.11-.28-1.21.17-1.76.14-.17,2.2.42,3.83-1.24Z"/>
  <path class="cls-56" d="M876.64,495.74c-.3.35-1.05,1.82-2,3v-1c.24-.24-.57-2.72,2-2Z"/>
  <path class="cls-21" d="M638.64,338.75c-.39-2.97,1.85-6.02,6.73-9.15.43-2.49,2.91-8.04,5.77-6.7,3.5,1.64,3.21,5.44-.5,4.35.77.09,1.94.32,2,.87.41,3.74.41,13.46,0,17.24l-2,1.4c.66-2.87,7.53-3.13,8,0l2,.92v52.39l-2,1.19c3.15-3.02,12.56,6.46,13.7,9.34.51,4.63.56,9.3.14,14.01,4.4.42,5.27,2.8,5.27,6.72,2.7,2.61,3.54,5.61,2.83,9.32l2.07,2.12c.78.21,1.94.54,2,1.15.26,2.68.27,20.19-.67,21.18-.32.34-.8.52-1.33.67.5-1.64,8.02-1.69,7.52,3.08-.13,1.24-1.81,1.15-2.91,1.05-.24-.02,2.6-3.41,1.89.87.09-.78.33-1.93.9-2,5.03-.64,22.23-.72,27.15,0l1.45,2c-2.6.31-2.62-3.53-1.35-5.08,2.78-3.38,26.07-.57,15.35,6.08-14.81.81-30.24,1.44-45,0-3.55-.32-9.62-2.45-13-4-1.54-.7-3.74-2.01-5-3-.52-1.92-1.52-2.92-3-3-1.81-1.76-1.9-2.64-3-4-2.83-2.76-3.83-5.42-3-8l.55-1.71c-3.22-3.35-3.57-5.76-1.04-7.24l-2.51-.05c-1.64,2-3.12-.03-2-2-2.33-3.34-4.67-13.14-1-16l-1-8c-.92.39-1.81.33-2.57-.32-1.17-1-7.65-25.43-5.43-27.68-.86-.46-.53-1.79,1-4-2.39-12.2-2.98-24.81-1.78-37.82-2.34-1.86-4.42-3.92-6.22-6.17Z"/>
  <path class="cls-96" d="M839.64,436.74c1.79.53,1.47,5.06,1,7,.77,1.83-5.09,8.4-5.88,8.4-2.91-2.49-3.69-1.59-2.35,2.71-1.88,1.74-2.81,3.71-2.78,5.89-1.1.54-5.76,5.62-8,7-4.06,1.05-8.06,2.39-12,4-1.96.46-5.2.88-6-1-1.91-.61-2.91-1.61-3-3l.05-2.25,7.47-4.67c2.15-4.05,5.19-6.64,9.11-7.76l1.38-1.32c.54-4.65,3.86-7,8-9l7.25-3.94c2.96-4.85,4.88-5.54,5.75-2.06Z"/>
  <path class="cls-14" d="M732.64,471.74c.2-.79.54-.75,1,0,6.12-2.05,11.79-2.05,17,0,.19-.89.52-.86,1,0,3.41-1.63,6.87-1.75,10.37-.34,12.68-.72,24.97-.67,36.87.14l-.24,1.2h-111v-1c13.77,1.24,30.8-.08,45,0Z"/>
  <path class="cls-83" d="M840.64,443.74l1,1c.92.1.86.45,0,1l-11,15c-.34,0-.82-.09-1,0l-3-2.5,3.99-4.02c.69-1.96-1.67-1.32-1.87-1.57-1.12-1.4,2.88-4.65,5.26-3.94.63.19,1.03,5.05,2.61-.97l-1.99-.99,4.98-1.05,1.01-1.96Z"/>
  <path class="cls-21" d="M751.64,471.74c.87-5.71,5.81-9.45,9.43-2.71,4.05-.34,7.86.04,11.43,1.14,1.61-1.65,3.65-1.8,6.14-.43,4.13-2.39,12.65-2.75,16,1,.96-.97,2.53-1.44,3,0,1.23-2.05,4.64-1.86,6,0,1.23.07,4.31,1.13,6,1h1c-1.53.41-2.03.71-4,1h-8c-1.04-1.66-3.79-1-5.49-1.02-13.83-.17-27.7.02-41.51.02Z"/>
  <path class="cls-68" d="M821.64,467.74c-4.29,2.63-6.6,2.82-11,4h-1l8.07-4.24,3.93.24Z"/>
  <path class="cls-100" d="M636.64,336.75c2.03-.25,2.69.42,2,2,5.3-1.17,3.05,3.56,8.05,4.66.09,13.1-.28,26.25-.05,39.34-.9,2-1.51-.72-1.44-.6,1.93,3.48-.18,6.31-2.56,2.6-1.54-7.36-3.48-14.63-5-22-1.21-7.96-1.88-15.96-2-24-2.22-1.58-1.69-2.32,1-2Z"/>
  <path class="cls-15" d="M645.64,386.75c0,1.14,1.78,14.55,1.98,15.3.27,1.04,2.43.96,2.88,2.31,1.61,4.8-1.03,4.06,3.15,10.39l1,8c.16,5.35-.41,10.46,1,16-.61,2.64-.96,2.42-2,0-4.41-16.52-6.52-34.27-10-51-.62-1.96.53-2.1,2-1Z"/>
  <path class="cls-30" d="M635.64,443.74c.13,1.08.09,1.41-1,1-2.46-9.1-4.11-16.65-6-26-3.11-4.88-5.02-12.31-4-18-2.95.41-3.68-4.22-2-6-.43-2.09-.59-5.39-1-8-.49-3.11-1.77-8.71,0-11,4.49,21.79,8.57,46.91,14,68Z"/>
  <path class="cls-73" d="M616.64,337.75c.26,4.21.59,8.54,1,13,.27,6.08.89,12.03,2,18l-1.14.65c-2.83-11.7-4.59-22.63-2.85-34.64,1.68-.26.93,1.88.99,2.99Z"/>
  <path class="cls-13" d="M655.64,438.74c.28.14.99,1.89,2,2,3.61-1.26,2.26,1.17.9,3.6,2.66,1.63,3.36,3.44,2.1,5.4,1.62,2.69.85,1.68,1.94,4.3.43,1.03,3.14-.19,1.06,3.7-.33-.41-2.1-.46-2.69-1.29-2.92-4.07-5.99-12.76-7.31-17.71.59.13,1.62-.19,2,0Z"/>
  <path class="cls-109" d="M637.64,362.75c-.18-.85-.77-1.85-1-3-.26-1.32-.93-2.57-1-3-1.89-.93-2.74-6.34-1-8-.1-1.87-.15-4.16,0-6-1.67-1.2-1.38-4.22,1-4l2.42,12.53-.42,11.47Z"/>
  <path class="cls-1" d="M651.64,473.74c.3,3.16-.61,1.88-2.16.66-1.45-1.14-5.26-6.53-6.49-8.5-.74-1.18-2.55-3.25-.35-4.16,1.97,3.64,5.99,8.94,9,12Z"/>
  <path class="cls-4" d="M637.64,449.74c-.12,1.53.65,3.36-.99,2.99-.02-2.83-1.3-5.36-2.01-7.99l1-1c.27,1.06,1.44,4.16,2,6Z"/>
  <path class="cls-1" d="M666.64,461.74c.46-2.02,2.51-1.28,3.99-2l-.99,5c-1.55-1.21-1.91-1.94-3-3Z"/>
  <path class="cls-1" d="M646.64,382.75c.04,2.51-.99,3.21-1,4l-2,1c-.12-.59-.72-1.66-1-3l3,.99-.99-3.99,1.99,1Z"/>
  <path class="cls-45" d="M610.64,302.75c-.06,1.56.3,7.73,0,8.01-.36.34-3.68-.36-4.02-.02s.36,3.66.02,4.02c-.17.18-3.92-.04-5.01,0,1.28-5.41.03-7.15,4.67-10.74,1.67-1.29,1.63-1.82,4.33-1.26Z"/>
  <path class="cls-44" d="M628.64,418.75l-1.99,4.01c.69-2.66-1.56-4.52-1.96-6.56-.44-2.22.41-4.78-.06-6.78-.06-.28-2.4-.78-1.99-4.67.07-.65-.15-1.51,0-2-1.67-2.38-.45-3.44,2-2,1.29,5.97,2.77,11.92,4,18Z"/>
  <path class="cls-38" d="M622.64,394.75c.15.71,1.45,3.44,2,6-.42.6-1.85,1.52-2,2-3.09,1.48-3.25-8.97,0-8Z"/>
  <path class="cls-89" d="M584.64,351.75v1c1.06-.31,1.37.54.92,2.57-3.47-.07-6.45.07-8.92.43.87.28.86.62,0,1-2.65-.11-5.35.12-8,0-1.65,2.35-5.15,3.66-6,0-2.47,1.58-3.34.58-2-2,3.39-.34,1.4-1.23,2.71-2,7.22-4.22,13.33-1.93,21.29-1Z"/>
  <path class="cls-42" d="M586.64,352.75c1.32,1.19.93,2.54,0,4,.04,8.19,2.54,16.03,3.61,23.7.37,2.68.02,6.45.37,9.29l-1.99-5c-.58-2.97-1.47-5.95-2-9-.83-4.78-.85-11.74-2-16-.09-2.99-2.76-4.32-8-4l-9.99-.99c4.75-.84,13.17,1.11,17.34,0,1.07-.28.55-1.93.65-2.02.08-.07,1.62-.09,2,0Z"/>
  <path class="cls-21" d="M586.64,356.75c0-1.33,0-2.67,0-4,2.72.65,1.89,2.58,0,4Z"/>
  <path class="cls-7" d="M850.64,467.74c1.37.06-.4,4.88-.56,5.08-.66.81-1.92.07-2.18.33-1.83,1.87-4.03,4.94-6.04,6.49-1.16.9-2.18,2.6-3.22.1,3.87-2.9,9.12-8.12,12-12Z"/>
  <path class="cls-70" d="M606.64,451.74c-.5-1.31-1.32-2.38-1-3.99,3.24-.61,1.5,1.22,2,2.99.39,1.42.38,1.69-1,1Z"/>
  <path class="cls-1" d="M607.64,450.74c.31,1.09,1.63,2.23.99,4-1.77-.21-1.55-1.85-1.99-3l1-1Z"/>
  <path class="cls-16" d="M517.64,501.74c-1.11,1.08-4.23,5.55-5,6-.13.08-.7.03-1,0-.76-.07-1.08-.16-1-1,.64-.44,1.33-2.51,2-3,.39-2.73,1.74-3.79,4-2,.31-.44.64-.43,1,0Z"/>
  <path class="cls-90" d="M560.64,354.75c.21.33,1.86,1.96,2,2l-6,27,1.32,2.4-4.9,17.25-2.41,1.35c-1.79,5-3.12,10-4,15-6.91-4.11-2.26-4.44-4.48-9.03-.69-1.44-3.26-1.52-3.55-2.67s-.16-10.45.23-11.1c.34-.56,2.61-.78,3.31-2.17,1.4-2.79-.24-7.25.68-10.33.58-1.94,3.24-2.48,3.77-5.22.71-3.64-1.95-18.53.08-20.43.54-.51,3.6.3,3.96-.04s-.36-3.65-.02-4.02,8.13.2,10.01,0Z"/>
  <path class="cls-86" d="M493.64,294.75c.12.02.81-1.02,1.51-.93,5.43.69,11.49,4.59,15.24,6.89,4.69,2.87,8.13,5.09,9.33,10.98l1.92-.94c.12,3.14,2.6,4.15,4,7,1.14.32,1.8,1.65,2,4,.91,7,.69,14.23,2,21-1.92,4.52-.75,9.65-1,14l-1,6c-.72,2.75-1.38,5.17-2,8-1.34.89-1.67-.11-1-3-2.74-1.49-2.04-6.27,1-7-.01-2.08.32-4.08,1-6-2.74-1-2.78-3.02,0-4,.81-5.17.81-10.51,0-16-.38-1.21-.72-2.54-1-4-.67-.05-1.21-.15-1.29-.39-.96-3.05-1.44-8.37-1.71-11.61l-2.6-.83c-5.5-9.86-15.64-15.85-25.53-20.58l-.87-2.59Z"/>
  <path class="cls-3" d="M519.64,497.74c-7.6-5.53,2.04-10.53,1-14.35-.15-.55-3.39-1.15-2-4.65,6.46,1.28,3.1-3.1,4-4.01.27-.27,3.97.28,5.34,0,.76-.16.83-3.16,3.67-1.98.42.35-2.69,6.7,0,7.99-.67,1.92-2.08,4.06-3,6-2.61.51-3.95,2.51-4,6-1.09,1.77-.83,3.43-3,6-1.26.98-2.41.74-2-1Z"/>
  <path class="cls-102" d="M525.64,370.75c-1.17,5.3-1.95,10.96-3,16-.34,1.63-2.45,3.73-2.01,5.99h-.98c-.09-.98.1-2.02-.01-2.99-2.75-.6-2.49-1.77,0-3,0-5.24.99-10.24,3-15-.45-3.47.22-4.8,2-4l1,3Z"/>
  <path class="cls-106" d="M550.64,404.75c-1.3,5.09-1.62,10.56-3,16-.38-.25-.66-.8-1-1,1.48-2.54-.04-6.76.27-8.36.29-1.46,4.13-3.88-.27-3.65v-.97s4-2.02,4-2.02Z"/>
  <path class="cls-3" d="M518.64,498.74c.9,1.32-.71,2.28-2,3-.9,1.21-3.23,1.44-4,2v-5s6,0,6,0Z"/>
  <path class="cls-5" d="M521.64,498.74c-.31.36-.68.66-1,1-.69.75-2.23,1.25-3,2h-1c.68-.99,1.28-2.04,2-3,.27-.36.72-.63,1-1,.39.28,1.59.18,2,1Z"/>
  <path class="cls-102" d="M527.64,362.75c.14-1.88-.77-4.88,1-6-.17,2.98-.34,3.44-1,6Z"/>
  <path class="cls-26" d="M514.64,412.75c-1.43,8.67-1.82,12.18-4,21h-2c1.89-7.27,3.24-14.7,5-22,.62-.88.96-.54,1,1Z"/>
  <path class="cls-103" d="M514.64,412.75l-1-1c.81-3.38,1.49-6.84,3-10-.54,4.11-1.36,7.08-2,11Z"/>
  <path class="cls-29" d="M492.64,470.74c6.02.48-3.09,6.26-5,8h-1c2.04-2.61,3.9-5.44,6-8Z"/>
  <path class="cls-80" d="M486.64,478.74h1c-2.37,2.16-.47,3.78-5.67,4.68-.66.11-1.25-.69-1.33-.68l6-4Z"/>
  <path class="cls-35" d="M448.64,425.74c-2.14-2.29.87-3.55,2.51-1.33,1.48,2-.5,4.88-2.11,6.31,3.23,2.96,4.36,6.29,3.4,9.98.46.53,10.09,1.42,8.2-1.69,9.15-10,12.02,13.37,3.81,14.12-.34.66-.99,15.6,3.19,11.6.99-4.35,7.23-6.12,6-1,.85.23.82.57,0,1-1.47,2.17-3.14,3.17-5,3-1.68.99-4.21,2.33-6,3-.84,1.33-2.84,2.31-4,1-.36,1.66-2.79,1.93-4,1-4.8-.31-9.47-.64-14-1-11.73-.64-25.68.01-37.28-2.22-2.47-.48-4.24-2.35-6.28-2.72-3.2-.58-7.13.27-10.45-.05.89-12.41.41-12.88-12-12.01-.2,2.13.89,12-1.49,12h-18.5c-1.74-12.9,3.3-5.68,7.08-8.45.99-.72.61-3.04,1.07-3.42.72-.6,2.98.33,3.71-.27.53-.44-.17-3.06,1.76-3.75,5.64-2.01,7.29,4.04,6.39-8.12h18.5c1.26,0,1.11-3.79,2.11-4.07.77-.21,6.99-.04,7.26.21.5.46-.2,3.05,1.74,3.74,6.18,2.2,6.33-4.23,6.96,8.13,1.83-.33,11.02.4,11.43-.01.64-.65-1.6-7.29,2-8-.08-1.97,1.32-2.72,4.18-2.24-.38-4.99.09-7.67,4.82-3.76,1.44-1.43,2.28-1,2,1,3.4-1.98,7.07-5.31,11-10-1.19-2.42-.39-2.75,2-2Z"/>
  <path class="cls-99" d="M319.64,315.75c2.91-.5,1.62.87,2,2-5.17-2.49-7.07,3.06-8,6.99.79.2,5-.24,5,0v22c0,.4-8-.4-8,0v64c0,.4-6.64-.69-8,1-.24-25.31-2.28-52.2-1-77,.03-.66-.11-1.43,0-2-2.8-4.53,5.78-13.45,11-14,2.2-1.47,4.65-2.05,7-3Z"/>
  <path class="cls-99" d="M302.64,422.74c-1.71-2.21-1.66-7.98,0-10,.02,3.33,0,6.67,0,10Z"/>
  <path class="cls-37" d="M422.64,424.74c4.87.29,10.8,7.2,11,12-.93-.38-2.08-.43-2.99-1,.56,10.1.06,5.78-6.01,7-1.17-1.33-1.64-7.51-2.1-7.9-.9-.77-11.39.47-11.91-.09-.93-.99,2.49-5.28-4-4,1.41-3.83-1.6-12.81-1.05-15.38.16-.77,2.22-.56,2.07-1.11-1.47-5.19-5.6-3.55-6.5-4.46-5.06-5.14-9.42-13.71-16.01-19.16-.64-.53-1.38-.37-2.01.07l1.5-2.97c12.22,13.04,25.16,24.71,38,37Z"/>
  <path class="cls-18" d="M374.64,354.75v-4.22c7.97-1.68,11.75,2.99,8.97,10.87,2.83,4.88-4.69,10.92-8.97,12.85-.34.15,5.99-5.02,6-2.5l.61,2.24-4.61,5.76-1.95,1.18c-5-3.24-9.35-7.4-13.46-11.67l.41-2.51c-.41-.47-.57-1.52-1-2,1.99.19,2.14-1.07,3-2,.58-4.44,7.16-9.11,11-8Z"/>
  <path class="cls-12" d="M379.64,382.75c-.2-.12-1.83,1.14-3.5-1.98-1.68-.04.71,5.58-6.95,3.93-.73-.16-9.64-4.56-10.03-4.96-2.94-2.98-.28-9.28-2.51-12.98l2.5,2,2.5-2.01c3.24,3.65,10.46,10.57,15,13,2.42-2.33,4.86.18,3,3Z"/>
  <path class="cls-72" d="M454.64,472.74c-4.11,1.37-9.64.71-14,0v-1c4.49.24,10.16-1.02,14,1Z"/>
  <path class="cls-43" d="M854.64,306.75c1.18.44,3.79-.21,5.38.92-.11,1.66,2.53,3.58,2.57,3.8.95,4.33.26,13.63-2.96,17.28-1.1-4.69-4.27-10.99-7-15,1.3-2,1.26-4.11.55-6.37l1.45-.63Z"/>
  <path class="cls-55" d="M850.64,302.75c1.21,1.47,2.03,3.26,4,4-.67,2.67,1.03,8-2,7-.24-.35-.72-.63-1-1,0-3.72-1.34-5.39-4-5-1.21-1.2-3.52-2.84-5-4,1.6-4.19,5.45-6.28,8-1Z"/>
  <path class="cls-43" d="M838.64,300.75c4.36-4.12,6.83-5.83,11.04-.54.8,1.01.77,2.31.96,2.54-4.72-4.48-3.23,1.14-8,1-1.14-.89-2.88-2.29-4-3Z"/>
  <path class="cls-82" d="M824.64,317.75c4.99,3.32,8.24,4.43,12,10,2.06,3.05,5.61,10.49,6,14-.19,1.84-.52,3.5-1,5-2.14,3.9-4.35.37-4.2-3.27-3.85-1.27-7.04-3.26-9.56-5.95l-1.37-4.47c-3.89-.04-5.67-2.72-5.34-8.07-5.63-4.76-3.73-10.67,3.48-7.24Z"/>
  <path class="cls-104" d="M842.64,374.75c.15,7.31-.08,14.68,0,22-.58,13.68-.92,27.68-1,42,.8,1.74.78,4.25,0,6-.98.06-.84-.32-1-1-.35-1.5-.83-5.28-1-7-1.92-.8-2.76-2.31-2.49-4.53,1.34-23.98,2.03-47.88,2.08-71.7l2.42.23c.59,4.56.92,9.23,1,14Z"/>
  <path class="cls-1" d="M842.64,419.75c-.03,6.31.2,12.7,0,19-.28.87-.62.86-1,0-.33-12.1-.14-24.4-.02-36.51.02-1.69-.64-4.45,1.02-5.49.08,7.65.04,15.35,0,23Z"/>
  <path class="cls-53" d="M842.64,374.75c-.08-3.88-.91-9.26-1-14-2.83-4.57-2.84-9.43,0-14,.03-1.61-.6-4.16,1-5,1.14,10.3-.84,22.47,0,33Z"/>
  <path class="cls-43" d="M851.64,312.75c-1.09-1.43-2.85-3.86-4-5,1.84-5.16,7.81,2.37,4,5Z"/>
  <path class="cls-1" d="M666.64,312.75c2.52.84,5.48.84,8,0,.67-.01,1.33,0,2,0,1.4,1.9,0,4.06-4.22,6.5-.21.4.03,8.63.36,8.93.5.45,10.88.26,10.94-.29-1.44-2.87-.26-5.44,2.92-4.14.77-.61,1.1.06,1,2,3.21-.32,5.22,1.83,5,5,1.97-.77,2.76.02,2,2,2.32,0,4.74,2.87,6,5,1.97-.75,2.77.03,2,2,4.46-.24,10.88,8.81,11,13,.85.99,1.52,1.99,2,3,2.32,1,7.01,4.82,5,7-.79,3.3-12.62,3.04-14,0,3.28,1.65,3.13,14.06,0,16,1.09-4.35,10.12-2.11,10.19,2.79.03,8.78-.19,17.56-.65,26.34,5.14,3.15,7.19,10.01.3,12.82.52,2.99-.1,5-1.84,6.04.21-.79.56-1.96,1.17-2,5.47-.39,29.44-1.02,33.36,0l1.47,2c-5.66-6.3,8.88-9.97,9.86-1.41l6.58,4.63c4.16,6.45,7.16,2.62,5.05-4.18-.72-4.12,3.99-9.81,6.51-5.05,2.08,3.59,5.48,7.72,9.52,10.62.92,3.16-3.18,4.67-5.52,2.88.77.1,1.93.32,2,.88.51,3.81,1,13.81-2,15.62-.32,2.03-2.21,2.67-5.67,1.92-.31,3.21-1.79,4.45-4.88,4.08-1.25,3.72-4.21,4.04-7.65,4.19-1.77,5.76,7.44,5.12,11.32,3.7,6.74-1.31,12.43,4.08,2.99,4.37l-.12.74c-.13,0-1.13,1.03-2.42,1.04-4.34.03-13.46.74-17.03.03-1.18-.24.94-4.45-4.06-3.1-.3.08-.62,4-3.5,4.04-.33,0-.67,0-1,0l-1.91-.98c1.16-3.38-8.19-3.02-6.82.48l-8.27.5c-.33,0-.67,0-1,0l1-3.5c-1.14-2.03-14.47-2.07-15-1.51-.28.29.18,3.07,0,4.01h-29.5c-.45,0-1.54-1.25-2.49-1.01l1.99-1c-1.48-3.69-5.46-1.14-8.27-1.24-3.71-.13-3.8-3.93-7.72-2.76.06-1.47,5.69-1.97,6.3-1.83,1.53.35,2.15,2.51,3.69,2.84v-23c-6.43,1-3.15-2.13-4.01-6.49-.38-1.94-1.96-2.6-2.74-4.26-.53-1.13.02-3.22-.68-4.32-.95-1.47-4.15-.62-4.52-.97-.65-.62.52-12.71-.05-15.27-.18-.79-1.53-.77-1.95-1.43-.78-1.21-.84-2.57-2.06-3.75-.86-.83-7.97-4.54-7.97-5.01v-54.5c0-.4-8,.4-8,0v-19.5c0-.26,1.42-1.34,1-2.49-4.02-.37-3.32,4.11-4.6,5.92-1.5,2.11-7.4,5.93-8.39,8.07-.26.57.18,2.13-.01,2.99h-.98c.87-2.1-.77-3.87-1.01-4.99-.87-.33-.87-.66,0-1-.1-5.18,4.37-14.64,10-14,.1-4.85,10.3-8.15,15-8,1.66-.52,3.29-.73,5-1Z"/>
  <path class="cls-55" d="M700.64,312.75c.99-.08,2.01.04,3,0,11.89-1.05,24.1-.8,36,0,16.98-.68,34.04-1.1,51,0,1.64-.75,3.34-.73,5,0,1.62-1.4,3.35-1.34,5,0,1.09.03,1.76.37,2,1,3.09,1.52-.06,3.9-2.86,4.05l-25.34-.98c-4.85-1.22-9.5-1.3-13.95-.24.8,6.55-6.77,5.95-8.42.17l-39.03-.05c-3.88,1.29,2.86,8.32,4.45,9.62,3.35.47,4.41,3.09,1.15,4.44,1.3,1.16,1.3,1.83,0,2-1.94.41-3.4-1.05-3-3-5.88-1.75-11.21-7.14-13-13-2.1,1.57-4.04-1.85-4-4,.51-.93,1.19-.62,2,0Z"/>
  <path class="cls-58" d="M678.64,312.75c2.13.78,4.37,1.31,6.71,1.58.2,3.46.62,6.27,1.29,8.42.87.18.84.52,0,1-4.38,3.97.64,2.5,2,5.99l-18,1.02c.59-3.49-.82-9.21,0-12.28.23-.85,5.33-4.24,6-5.73.67,0,1.33,0,2,0Z"/>
  <path class="cls-92" d="M692.64,312.75l1.15.65-4.15,9.35c1.01,2.25.16,2.71-2,3-.41-.68-.9-.71-1-2-.02-.32-.02-.68,0-1-1.45-2.19-1.36-7.87,0-10,1.99-.04,4.01.09,6,0Z"/>
  <path class="cls-27" d="M686.64,312.75c2.17,3.76.21,7.03,0,10-3.67.68-1.6-6.53-3.18-7.82-.86-.7-4.31.46-4.82-2.18,2.66-.02,5.34.06,8,0Z"/>
  <path class="cls-1" d="M739.64,311.75c.87.28.86.62,0,1-11.94.05-24.08-.46-36,0v-1c11.99-.03,24.01.04,36,0Z"/>
  <path class="cls-41" d="M674.64,312.75c-.98,2.07-9.18.92-8,0,2.66-.04,5.34.05,8,0Z"/>
  <path class="cls-105" d="M896.63,298.74c-2.27-.88-.43-6.01-.98-7.99,2.27.88.43,6.01.98,7.99Z"/>
  <path class="cls-1" d="M824.64,317.75l-5,1.01c-.15,2.73,3.16,4.33,3.58,5.87.45,1.65.25,5.87.46,6.08.32.32,2.9-.3,4.01.47s1.54,6.34,3.22,7.33c.86.51,2.42-.01,2.93.3,1.11.69.95,1.6,2.05,2.25.97.57,3.32.4,3.66.78,1.01,1.14-1.72,5.69,2.1,4.9-.09,4.64-.09,9.36,0,14-1.66,1.04-1,3.79-1.02,5.49-.22,20.95,1.45,43.09-1.8,63.21-.06.39.71,6.17.82,7.3l-1.17-.91c-3.04,3.54-6.59,7.18-11.83,6.91-1.85-2.49,0-4.71,5.58-6.66.54-.63,1.9-6.96,1.03-7.63-4.45-.85-5.23-2.84-4.52-7.1-2.23-.28-3.61-1.59-4.41-3.62-5.19.15-10.39-.8-13.66-5.06-2.13,2.64-3.61,2.05-6.03.08-1.29.13-2.63.13-4,0-2.74,1.48-7.19-2-6-5-8.02-3.22-16.45-13.07-20-21-1.36-2.76-4.29-6.01-6-6-.87.43-1.17.05-1-1-1.09-5.63,6.7-3.12,7,2-2.62-3.34-3.56-12.74,0-15-2.42,6.27-10.04-2.62-5-7,.99-2.75,3.02-2.79,4,0,2.04-.19,4-.92,5.89-2.18.58.12,8.94-1.56,9.24-1.97,2.68-3.57-1.2-7.65-4.76-8.32,1.26-6.16-3.52-8.09-14.34-5.78-3.73-4.37-8.75-8.98-14.04-10.75-1.45,1.5-3.52.61-6.24-2.65-2.48-2.04-3.9-3.12-6.76-1.35.49,1.23-.74,2.45-2,2,.71,1.32.47,2.5-1,3-.62.53-1.43,1.03-2.07.7-3.07-1.57-4.31-1.99-8.42-1.55-1.78-1.63-4.85-2.79-6.51-1.15,2.36,1.87,2,2.92-1,3-1.38,1.08-2.56-.5-3-2,0-5.15-.46-1.76-1.78-2.29-.48-.19-6.55-7.26-6.75-7.73-.43-1.05.43-5.92,1.11-6.04l43.43.05c-1.69,3.58,2.53,5.55,3.99,4.01,1.03-1.09-3.13-4.34,5.52-4.99,4.35-.33,7.36,1.04,10.99,1.07,7.02.07,19.48,1.35,25.02.94,1.91-.14,2.33-1.97,2.48-2.02,4.3-.37,8.97-.7,14-1,3.93,1.24,5.22,3.15,8,5Z"/>
  <path class="cls-22" d="M622.64,316.75c-5.04-1.35,3.86-11.62,5-6-1.37,1.55-4.12,4.47-5,6Z"/>
  <path class="cls-107" d="M412.64,291.75c-14.26.14-29.41.81-44,1-.67,0-1.33,0-2,0-.87-.28-.86-.62,0-1h46Z"/>
  <path class="cls-107" d="M450.64,291.75c.87.28.86.62,0,1-8.34,0-17.84.62-26,0-.85-.06-1.73-.03-2-1,9.31-.1,18.68-.01,28,0Z"/>
  <path class="cls-107" d="M458.64,291.75c7.48.01,15.06-.25,22.55,0,1.93.06,4.01-1.02,3.45,2-8.69-.58-17.11-.86-26-1-.87-.28-.86-.62,0-1Z"/>
  <path class="cls-20" d="M438.64,312.75c5.32.09,10.68-.07,16,0,1.54-.46,10.54-.12,10.88.31,2.05,2.58,1.56,3.01-2.33,3.71l-48.36-.91c-2.25-.12-3.29-.81-2.19-3.1h1c8.32.05,16.69-.15,25,0Z"/>
  <path class="cls-1" d="M488.64,314.75l1.2,1.89c-.18,5.59-.61,11.18-1.3,16.74l3.76,3.84c8.41,2.52,5.04,13.18-3.38,11.49-1.38,2.66-4.18,3.8-8.41,3.41,1.12,5.19-.15,8.26-3.82,9.2-.49,3.66-4.79,5.36-6.05,1.42l2,1.14c.57,3.3.9,13.44-2,14.86-.17,3.28-7.12,2.74-8,0l2,1.14c.57,3.3.9,13.44-2,14.86-.31,4.01-6.56,1.93-5.75-2.15-3.36.72-5.44.11-6.25-1.85,3.28,1.65,3.13,14.06,0,16l-2.13,1.89c1.49,5.79-2.06,6.86-6.87,6.11-3.13.77-10.73-6.68-10-10-1.22-2.66-3.47-5.29-5.74-7.7-4.19-4.47-7.47-6.35-13.26-4.3-7.67-3.13-15.64-11.07-19-19-1.56-1.77-2.68-3.95-5-5-.17-.64-.93-1.43-1-2-2.22-3.01.03-1.15-.38-.99-4.27,1.68-3.71-7.41,4.56-4.66,1.02-4.31,4.34-5.69,9.97-4.12,2.94.3,3.62-1.59,2.56-4.16-4.62.68-7.19-.39-7.72-3.23l-7.73-.11c-4.72-2.67-14.35-7.81-15.86-.21l-2.39-.53c-2.7,1.37-6.76-.85-6-4-2.09-1.87-4.79-4.85-7-7l1-3c.99-8.99,6.35-1.69,8-3.01.14-2.62-4.85-5-5.02-5.69-.86-3.43,1.32-8.71-.98-12.3,3.52.06,7.02,1,10.5,1h15c5.71,0,12.08.23,18.05,0,1.93-.08,4.01,1.03,3.45-2,1.67,0,3.33-.01,5,0,1.04,1.66,3.8,1,5.49,1.02,16.24.17,32.29,1.17,48.51.97l-11.99-1.99c1.04-1.66,3.8-1,5.49-1.02,9.6-.12,19.76-1.22,28.51,3.02Z"/>
  <path class="cls-108" d="M358.64,334.75c2.31,1.88,2.83,2.13-1,3-1.64-1.6-3.49-3.31-5-5-1.39-1.55-2.74-3.33-4-5,3.41-.45,7.09,4.63,10,7Z"/>
  <path class="cls-94" d="M339.64,325.75c.87.28.86.62,0,1-3.6,2.14-2.77,4.06-9,6,.96-3.99,3.72-3.31,4.85-4.11.14-.1-.86-1.87.57-2.97,1.89-1.44,3.42.18,3.58.08Z"/>
  <path class="cls-39" d="M576.64,307.75l.52,1c-7.99.22-9.94,1.13-16.52-2-.12-.61.17-1.53,0-2,.29-.83.62-.81,1,0,3.61,3.4,10.29,3.8,15,3Z"/>
  <path class="cls-11" d="M540.16,314.75c2.94-.66,3.43,5.44.97,5.99-2.94.66-3.43-5.44-.97-5.99Z"/>
  <path class="cls-11" d="M580.64,288.75c-.51-.32-10.14-.09-12,0,2.67-1.67,9.13-1.7,12,0Z"/>
  <path class="cls-11" d="M527.64,321.75c-1.8-.83-1.43-2.85-2-4l.5-.98c3.13,1.66,1.43,4.37,1.5,4.98Z"/>
  <path class="cls-11" d="M582.64,297.75c-.06-.43-1.51-1.79-1-3,.2-.83-.13-2.06,0-3,.78,2.05,1.58,3.35,1,6Z"/>
  <path class="cls-21" d="M560.64,294.75c.16,3.33-.71,6.98,1,10h-1c-.02-.07-.89-.91-1-1l.02-10.01c.49.11.83,1,.98,1.01Z"/>
  <path class="cls-15" d="M657.64,440.74c1.25-5.73,9.79,2.31,2,2-1,3.3,2.7,1.14,3.07,2.54.28,1.08.81,5.36-2.07,4.45-1.29-2.14-2.81-4.25-3.99-6.5,3.4-.95.85-1.86.99-2.49Z"/>
  <path class="cls-1" d="M654.64,422.74c-2-1.73-.68-5.5-1-8,1.74,2.64.91,4.92,1,8Z"/>
  <path class="cls-75" d="M778.64,420.75c-2.57-2.14-.46-3.75,2.22-1.16,3.42,4.75,7.02,9.65,11.78,13.16,2,2.93,4.34,4.93,7,6,.8,3.05,1.22,6.48,1.04,10.05,4.73-.66,7.4.46,10.44,3.97,3.29-2.07,5.8-2.41,7.52-1.02,1.47,4.86-3.32,2.24-4.01,2.99-.35.38.37,3.69.02,4.02s-3.13-.55-3.86.13c-.37.35.02,2.12-1.2,3.32s-7.11,4.76-8.94,5.54c.02,2.09-1.69,2.49-3,1-.38.88-1.38,1.55-3,2-5.12-.2-11.15-1-16-1-5.97-1.2,4.72-1.84,3.99-2.99-3.58.44-9.57-1.89-10.02,2.99-1.74-3.88-9.59-2.61-9.98-3-.29-.28-.29-7.73,0-8.01.23-.22,3.87.27,5.32-.17,2.19-.67,2.19-3.21,2.9-3.62,1.11-.65,3.47.1,3.78-.19.37-.35-.36-3.64,0-4.01.3-.33,6.54.25,8.01,0v-16.5c0-1.13,2.72-1.2,3.3-1.51,3.38-1.8-1.64-1.98-2.29-2.49-1.06-.83-.68-2.62-1.28-3.23-1.39-1.42-5.15-.02-3.73-6.27Z"/>
  <path class="cls-104" d="M804.64,412.75c4.55,1.86,4.18-3.07,4.49-2.99,3.88,1.03,4.09,3.56,6.2,4.8,3.15,1.86,7.01.48,9.69,1.35,1.25.4,1.36,2.13,2.34,2.91.78.62,2.79.54,3.15,1.05.79,1.11-.53,4.82.28,5.75.75.87,4.81-.45,4.8,4.48,0,1.2-1.17,6.38-1.85,7.24-1.37,1.73-5.89,1.72-7.09,5.41-.29.9.33,3.73,0,4-.41.35-3.13-.55-3.86.14-.85.79.36,2.41-4.14,4.86-1.17.64-6.69,2.99-7.53,2.98-2.34-.04-3.16-3.19-5.17-3.78-1.81-.53-7.02.09-7.31-.2-.99-.98,1.99-8.27-1.99-8.5,1.28-.64,2.24-2.92,3-3.51.24-.47.57-.81,1-1-.89-.92-.28-1.42,1-1l1.36-.31c3.04,4.34,8.88,5.85,17.53,4.55l.31-6.26c4.41-2.28,3.13-6.06-3.85-11.33-.71-3.29-3.13-5.07-7.26-5.34-3.62-1.31-5.32-3.08-5.09-5.31Z"/>
  <path class="cls-14" d="M800.64,467.74c1.44,1.2,3.66.6,3,3-1.99-.12-4.01.08-6,0-2.02.08-1.69-1.24,0-2,.95-.36,1.91-.53,3-1Z"/>
  <path class="cls-21" d="M733.64,471.74l7-1.01-1.99-3.98h12.49s-.5,4.99-.5,4.99c-5.65,0-11.35.03-17,0Z"/>
  <path class="cls-96" d="M797.64,468.74v2c-1-.04-2,.04-3,0,.44-1.87,1.79-1.54,3-2Z"/>
  <path class="cls-17" d="M526.64,350.75c-.73-4.23-.86-8.74,0-13v-3c1.08,5.24,1.3,10,.99,15.5l-.99.5Z"/>
  <path class="cls-102" d="M525.64,360.75c.14-1.88-.77-4.88,1-6-.2,2.78-.66,3.98-1,6Z"/>
  <path class="cls-19" d="M528.64,486.74c-1.22,2.57-2.73,3.94-4,6-2.6-3.58,1.03-6.39,1.01-10l2.99,4Z"/>
  <path class="cls-74" d="M508.64,346.75v5c-2.13,5.88-3.47,14.54-5,21-.46.18-.91.32-1.36.31-4.36-.12,2.54-27.37,3.89-31.36l2.47-.95c.23,1.78,0,4.1,0,6Z"/>
  <path class="cls-17" d="M506.64,334.75c.75,1.98,1.72,3.85,2,6-1.36,3.3-1.8,7.23-2.7,10.8-1.1,4.38-2.52,8.57-2.92,13.21-.17,1.92-.51,6.48.62,7.99-.78,3.27-1.24,6.73-2,10-4.73,20.3-9.26,40.7-14,61-2.73.92-5.95,1.31-9.68,1.17-1.44,2.39-3.25,3.76-5.45,4.09,1.13,6.76-.26,11.61-4.87,15.73-.45.4.47,3.38-5,2,.44-2.27-.59-15.46,0-16.01.37-.35,3.65.36,4.02.01.44-.41.42-11.6-.01-12.01-.26-.24-3.02.17-3.99,0-.21.95.29,3.71,0,4.02-.41.44-11.59.42-12.01,0-1.37-1.37,3.15-10.21-4-8.01l2.01-2.5-3.01-.51c1.26-2.51,4.68-3.65,3.98-7-.55-.12-.91,1.02-.98,1.01-2.44,1.75-4.66-.53-3-3-.73-.93-1.34-2.01-2-3-2.44-1.93-3.1-3.59-2-5,.43-2.69,4.54-1.63,4.96-2.04,1.3-1.29-2.85-7.69,4.04-5.96v-16c4.84.49,9.25-2.28,8,4.01.71-.14,4,.19,4,0v-16c0-.4,8,.4,8,0v-16c6.43,1.32,3.1-3.12,3.99-4.01.34-.34,3.65.36,4.02.02.52-.49-.69-6.54.13-7.86.89-1.43,7.36-.83,7.8-1.26.37-.36-.23-2.42.12-2.78.86-.87,6.8,1.35,7.8-1.75,2.02-6.27-1.34-4.66-3.41-6.32-.25-.2-4.25-4.39-4.35-4.69-.58-1.84,1.01-4.59.99-6.85-.04-4.25-2.1-7.91.91-12.5,8.17,3.96,14.81,11.57,18,20Z"/>
  <path class="cls-32" d="M487.64,443.74c.04.33-.05.68,0,1-1.21,2.28-2.14,4.75-3.59,6.91-2.94,4.41-7.67,8.2-10.41,12.09-1.08-2.39-4.71-.13-6,1v-3s.99,1.99.99,1.99c-1.69-3.7,1.9-5.32,1.99-5.68.5-2.06-.47-10.87.02-11.31.33-.3,2.67.46,3.78-.2.58-.34.77-2.23,1.61-2.87,2.31-1.75,8.79-1.3,11.61.07Z"/>
  <path class="cls-40" d="M416.64,396.75c-2.27-10.71,8.83-2.18,10.79,3.22,3.22.98,4.62,2.57,4.21,4.78,2.01,1.63,7.88,7.69,10,10,1.2,1.31,1.37,4.07,2,5-3.5-1.97-7.97-5.4-11-8-5.48-4.72-10.73-10.03-16-15Z"/>
  <path class="cls-34" d="M370.64,348.75c2.67-1.46.78-4.86.99-4.99.4-.26,8.2-.19,9.53-.03,4.1.49,5.34,3.18,8.18,3.82,2.93.66,6.32-.34,8.75.14,1.14.23.19,2.55.6,2.96,1.36,1.36,8.45-2.91,8.03,4.61-.38,6.71-10.62,2-12.09,3.49-.3.3.22,3.9,0,5-4.2-2.36-1.94.4-3.98.99,1.46-1.74-3.8-2.19-4-1.99-1.85,1.84,2.09,2.05,2.07,2.62-.02.69-1.09,1.24-1.08,1.38-3.34-.44-5,2.84-7,5l-6,2.5c2.01-1.92,4.21-3.4,4.01-6.5l1.98,1.99c-1.07-2.43,2.01-3.28,2.05-3.64.17-1.37-1.09-3.16-1.06-4.85.05-2.37,1.98-5.46.13-7.92-.19-.25-5.85-1.8-6.07-1.58-.12.12.09,1.86-1.04,2.99-.12-3.29-2.02-4.2-4-6Z"/>
  <path class="cls-21" d="M717.64,355.75c.68-.46,1.43-.78,2.26-.72,1.43.09,19.8,17.97,21.08,19.44l.66,3.29,3.13.22c7.99,8.37,15.84,16.88,23.54,25.54l.34,3.24c2.14,2.71,5.47,6.81,7,7,6.82,2.46,15.88,11.78,17,19-1.15-.81-3.12-1.03-4.9-2.6s-4.18-6.26-5.43-7.14c-1.64-1.15-3.94,1.4-1.67-3.25-1.79-.57-1.82.94-2,.99-.76.23-1.88-.2-2.95.51-3.44,2.26-.03,9.75-1.05,13.5-1.67-.32-7.14.56-7.87-.16-.37-.36-.07-2.07-.65-2.82-.42-.54-6.49-4.6-7.21-5.3s-.1-2.95-1.88-3.61c-7.03-2.59-5.93,3.88-6.39,3.88h-36c-.37,0-.18-7-.07-7.39.39-1.37,4.53.7,4.16-5.12-.31-4.72-3.75-2.7-4.16-4.1-1.85-6.39,2.04-23.31-.07-29.75-.96-2.93-7.86-1.22-7.86-1.64v-16h14c-1.12-2.64-3.16-4.86-5-7,.29-.71.63-.7,1,0,.33-.88.67-.88,1,0Z"/>
  <path class="cls-57" d="M716.64,355.75h-1c-.69-.8-2.22-1.03-2-3,.81.85,2.6,1.32,3,3Z"/>
  <path class="cls-97" d="M721.64,332.75c1.85-1.96,4.58-.78,4,2l2.41-.2c1.45,3.69,12.42,3.89,10.22-1.07l2.37-.73c1.83-1.81,2.83-.81,3,3,3.26-.72,4.59,1.87,2,4,1.45,2.37,5.08,7.97,7.33,7,3.36,3.63,6.97,7.33,10.84,11.1l-1.16.89c.74,2.18.52,4.93-.64,8.26,1.39,3.17,1.27,5.41-.36,6.74-3.15,1.27-12.07-5.54-11-9-10.79-10.56-21.45-21.21-32-32,0-.67,0-1.33,0-2,1.05.59,2,1.33,3,2Z"/>
  <path class="cls-10" d="M816.64,312.75c1.99,1.56-13.16.71-14,1l-2-1c5.32.03,10.68-.02,16,0Z"/>
  <path class="cls-9" d="M804.64,412.75c1.28.91,2.03,2.65,2.19,2.72,1.49.67,8.22,1.07,10.47,3.56.72.79.57,2.41,1.3,3.22,2.32,2.55,7.6,6.78,7.1,10.01-.38,2.44-2.81,2.08-3.09,3.19-.39,1.58.45,6.88.03,7.31-.6.59-14.8.03-16.85-.66-3.78-1.27-2.37-2.41-4.16-5.34l-.54-.91c4.08-4.28,7.6-8.65,10.54-13.09-1.72-3.38-7.95-7.19-11-10,1.24-3.02,1.92-1.48,4,0Z"/>
  <path class="cls-36" d="M755.64,330.75c2.16-.37-.99-2.24-2-3.5l1.48-.49c3.46,4.11,8.66,5.94,12.58,9.45,1.12,1,1.87,3.52,2.58,3.62,2.57.38,10.42-2.42,14.39.38,1.91,1.35.52,6.11.95,6.55.35.35,4.68-.36,5.01-.01.29.3-.31,3.14-.03,4.3.33,1.37,3.52,1.16,3.04,3.2-4.18-.06-2.5,2.76-3.1,3.36-.52.52-3.67-.1-5.19.36-2.55.79-7.25,5.1-6.74.79-1.75-.4-.63,1.52-1.07,1.89-.15.13-2.58-.85-3.92-.9-.36-1.75.6-2.92,2.89-3.53-1.45-2.03-1.74-3.85-.89-5.47-2.72.75-8.6-5.53-7-8-2.6,1.36-4.32-.4-3-3-4.11-.28-5.77-1.62-5-4-2.37,1.12-7.2-2.37-5-5Z"/>
  <path class="cls-98" d="M768.64,359.75c.19-.89.52-.85,1,0,4.41,2.32.06,1.77.09,2.42.42,7.04,4.91,4.16,4.91,4.58v15c-2.18-1.2-3.31-3.93-6.3-2.86l-.7.86c-1.95-1.88-3.96-4.01-6-6l-1.68-6.26c.23-3.62.89-5.79,2.68-8.74,1.4-.98,3.4-.65,6,1Z"/>
  <path class="cls-86" d="M722.64,329.75c.05-1.23-.65-6.29.03-6.98.14-.14,3.82-.16,3.96-.02.39.38-.38,5.63,0,6.01.36.36,7.91-.16,10.16.57,1.98.65,1.8,1.5,2.85,2.42.87-.44,1.18-.06,1,1-1.28,2.45.3,2.87-.08,4.37-.59,2.34-9.15,2.02-11.21,1.42-2.16-.63-2.84-3.23-3.71-3.79-.07-1.73-1.07-3.4-3-5Z"/>
  <path class="cls-55" d="M722.64,329.75c5.72.92,8.68.67,3,5-.62-.41-2.03-.68-4-2,.55-.91.95-1.93,1-3Z"/>
  <path class="cls-98" d="M774.64,386.75c-2.04-1.98-3.99-4.06-6-6l.49-.98c3.09,1.27,4.11,4.37,6.5,6.48l-.98.5Z"/>
  <path class="cls-65" d="M412.64,392.75c.64-5.45,8.43-1.68,11.26.03,1.45.87,3.93,4.85,5.47,5.97,2.78,2.02,4.6-.47,2.26,6-2.21-1.8-5.52-3.06-8-4.51,5.53-2.53-4.82-3.61-4.02-8.49l-2.99,4.99c-1.41-1.33-2.65-2.7-4-4Z"/>
  <path class="cls-9" d="M792.64,432.74c2.12,1.5,4.55,4.4,5.18,4.82.51.34,1.44-.8,1.82-.82,1.42-1.24,1.91-.69,1,1-.02.06.99.43.97.91-.58.31-1.73-.09-1.97.09-3.53.73-5.44-3.87-7-6Z"/>
  <path class="cls-79" d="M811.64,422.74c.29.56,1.11.21.63,2.03-.07.28-2.99,4.68-3.2,4.89-2.72,2.8-5.01,1.79-7.43,7.09-.11.25-.86.55-1,1-.41-.15-.92-1-1-1,2.58-5.43,7.33-10.33,12-14Z"/>
  <path class="cls-35" d="M462.64,423.74v7.01s-6.99-.01-6.99-.01c-.54-2.47,2.54-2.75,3.64-4.38s-.95-3.34,3.35-2.62Z"/>
  <path class="cls-78" d="M770.64,407.75c1.66,1.7,3.35,4.26,5,6l-.5.98c-2.29-3.07-6.47-3.67-6.5-7.98.41.42,1.59.58,2,1Z"/>
  <path class="cls-1" d="M721.65,366.74c.6-.65.99-3.21,1.49-2.99,2.42,1.08.97,3.31-1.49,2.99Z"/>
  <path class="cls-91" d="M754.64,346.75c4.14.91,5.74,1.64,6,6,2.64,2.35,5.35,4.67,8,7-1.17-.06-3.92.63-6-1-.14-.11-.11-1.74-.98-2.48-2.76-2.31-4.38-.32-7.35-5.55-.34-.6.43-1.89.33-1.97-2.27-1.69-1.95,3.14-2.98,1.99-1.56-1.75-3.22-5.14-4.57-6.97-.56-.76-2.17-.91-2.33-1.16-.25-.4.97-2.05.88-2.87,2.38,2.76,6.61,4.89,9,7Z"/>
</svg>